SplineFontDB: 3.2
FontName: KawaiiMonoRegular
FullName: KawaiiMonoRegular
FamilyName: KawaiiMono
Weight: Regular
Copyright: Copyright (c) 2023, Qwreey
UComments: "2023-1-6: Created with FontForge (http://fontforge.org)"
Version: 001.000
ItalicAngle: 0
UnderlinePosition: -100
UnderlineWidth: 50
Ascent: 800
Descent: 200
InvalidEm: 0
LayerCount: 4
Layer: 0 0 "+tLe6dAAA" 1
Layer: 1 0 "+xV66dAAA" 0
Layer: 2 0 "OldS" 0
Layer: 3 0 "Old" 0
XUID: [1021 168 1591860576 30271]
FSType: 0
OS2Version: 0
OS2_WeightWidthSlopeOnly: 0
OS2_UseTypoMetrics: 1
CreationTime: 1673013936
ModificationTime: 1730457982
PfmFamily: 17
TTFWeight: 400
TTFWidth: 5
LineGap: 0
VLineGap: 0
Panose: 2 0 4 9 2 0 0 9 0 4
OS2TypoAscent: 800
OS2TypoAOffset: 0
OS2TypoDescent: -200
OS2TypoDOffset: 0
OS2TypoLinegap: 0
OS2WinAscent: 800
OS2WinAOffset: 0
OS2WinDescent: 200
OS2WinDOffset: 0
HheadAscent: 800
HheadAOffset: 0
HheadDescent: -200
HheadDOffset: 0
OS2CapHeight: 730
OS2XHeight: 526
OS2Vendor: 'PfEd'
OS2CodePages: 2000009f.dfd70000
OS2UnicodeRanges: a00002e7.0000f8fb.00000000.00000000
Lookup: 4 0 1 "liga standard lookup" { "liga standard lookup-1"  } ['liga' ('DFLT' <'dflt' > 'cyrl' <'dflt' > 'grek' <'dflt' > 'latn' <'CAT ' 'ROM ' 'dflt' > ) ]
MarkAttachClasses: 1
DEI: 91125

StartChar: A
Encoding: 0 65 0
Width: 550
Flags: HMW
HStem: -170 0 -20 0 20 0 645 90 690 0 160 0 100 0 500 80
VStem: 82 386 235 80
LayerCount: 4
Fore
SplineSet
315 730 m 1049xe040
390 0 m 1041
315 730 m 1025
315 730 m 1025
235 730 m 1025
468 0 m 1xe080
 391 0 l 1
 357 154 l 1
 193 154 l 1
 159 0 l 1
 82 0 l 1xe080
 235 730 l 1
 315 730 l 1xe040
 468 0 l 1xe080
342 230 m 1
 276 574 l 5
 209 230 l 1
 342 230 l 1
EndSplineSet
EndChar

StartChar: B
Encoding: 1 66 1
Width: 550
Flags: HW
HStem: 0 80<160 312.065> 326 78<202 311.399> 650 80<160 312.217>
VStem: 362 78<450.653 603.971> 390 78<144.76 283.684>
CounterMasks: 1 e0
LayerCount: 4
Fore
SplineSet
275 425 m 18
 337 425 367 467 367 518 c 2
 367 545 l 2
 367 601 335 648 275 649 c 10
 160 650 l 25
 160 425 l 25
 275 425 l 18
275 346 m 10
 160 346 l 1
 160 80 l 25
 275 80 l 18
 337 80 387 92 387 173 c 2
 387 240 l 2
 387 296 335 345 275 346 c 10
394 385 m 1
 438 353 468 304 468 252 c 2
 468 173 l 2
 468 21 377 0 275 0 c 10
 82 0 l 25
 82 730 l 25
 275 729 l 18
 376 728 448 648 448 557 c 2
 448 518 l 2
 448 466 438 417 394 385 c 1
EndSplineSet
EndChar

StartChar: C
Encoding: 2 67 2
Width: 550
Flags: HW
HStem: 0 78<212.438 341.555> 651 78<212.438 341.555>
VStem: 82 81<125.254 182 547 603.746> 387 81<126.249 199 530 602.751>
LayerCount: 4
Fore
SplineSet
82 170 m 18
 82 81 176 0 280 0 c 0
 385 0 468 88 468 199 c 1
 387 199 l 1
 387 132 340 78 281 78 c 0
 219 78 163 127 163 182 c 10
 163 547 l 18
 163 602 219 651 281 651 c 0
 340 651 387 597 387 530 c 5
 468 530 l 5
 468 641 385 729 280 729 c 0
 176 729 82 648 82 559 c 10
 82 170 l 18
EndSplineSet
EndChar

StartChar: D
Encoding: 3 68 3
Width: 550
Flags: HW
HStem: 0 80<163 345.904> 650 80<163 341.791>
VStem: 82 81<80 650> 387 81<119.175 604.325>
LayerCount: 4
Fore
SplineSet
163 650 m 1
 163 80 l 1
 275 80 l 2
 337 80 387 122 387 173 c 2
 387 546 l 2
 387 602 335 650 275 650 c 6
 163 650 l 1
82 0 m 1
 82 730 l 1
 275 730 l 6
 376 730 468 649 468 558 c 2
 468 173 l 2
 468 81 377 0 275 0 c 2
 82 0 l 1
EndSplineSet
EndChar

StartChar: E
Encoding: 4 69 4
Width: 550
Flags: HW
HStem: 0 80<162 468> 324 80<162 468> 650 80<162 468>
VStem: 82 80<80 324 404 650>
LayerCount: 4
Fore
SplineSet
162 404 m 5
 468 404 l 5
 468 324 l 5
 162 324 l 5
 162 80 l 1
 468 80 l 1
 468 0 l 1
 82 0 l 1
 82 730 l 1
 468 730 l 1
 468 650 l 1
 162 650 l 1
 162 404 l 5
EndSplineSet
EndChar

StartChar: F
Encoding: 5 70 5
Width: 550
Flags: HW
HStem: 0 21G<82 162> 324 80<162 468> 650 80<162 468>
VStem: 82 80<0 324 404 650>
LayerCount: 4
Fore
SplineSet
82 0 m 21
 82 730 l 5
 468 730 l 5
 468 650 l 5
 162 650 l 5
 162 404 l 5
 468 404 l 5
 468 324 l 5
 162 324 l 5
 162 0 l 13
 82 0 l 21
EndSplineSet
EndChar

StartChar: G
Encoding: 6 71 6
Width: 550
Flags: HW
HStem: 0 80<204.544 346.067> 251 81<247 387> 650 80<208.479 341.942>
VStem: 82 81<119.175 604.325> 387 81<119.175 251 511 604.325>
LayerCount: 4
Fore
SplineSet
257 362 m 29
 468 362 l 21
 468 173 l 2
 468 61 407 0 275 0 c 0
 172 0 82 81 82 173 c 2
 82 558 l 2
 82 649 172 730 275 730 c 0
 416 730 468 649 468 558 c 2
 468 521 l 9
 387 521 l 17
 387 546 l 2
 387 622 355 650 275 650 c 0
 214 650 163 599 163 543 c 2
 163 178 l 2
 163 127 213 80 275 80 c 0
 367 80 387 122 387 173 c 2
 387 281 l 13
 257 281 l 29
 257 362 l 29
EndSplineSet
EndChar

StartChar: H
Encoding: 7 72 7
Width: 550
Flags: HW
LayerCount: 4
Fore
SplineSet
388 404 m 1
 162 404 l 1
 162 730 l 9
 82 730 l 17
 82 0 l 9
 162 0 l 17
 162 324 l 1
 388 324 l 1
 388 0 l 9
 468 0 l 17
 468 730 l 9
 388 730 l 17
 388 404 l 1
EndSplineSet
EndChar

StartChar: I
Encoding: 8 73 8
Width: 550
Flags: HW
VStem: 112 326
LayerCount: 4
Fore
SplineSet
112 0 m 1
 438 0 l 1
 438 80 l 1
 315 80 l 1
 315 650 l 5
 438 650 l 5
 438 730 l 1
 112 730 l 1
 112 650 l 5
 235 650 l 5
 235 80 l 1
 112 80 l 1
 112 0 l 1
EndSplineSet
EndChar

StartChar: J
Encoding: 9 74 9
Width: 550
Flags: HW
HStem: 0 80<206.009 352.852> 710 20G<389 469>
VStem: 82 80<127.488 236> 389 80<117.993 730>
LayerCount: 4
Fore
SplineSet
469 730 m 21
 469 190 l 5
 468 67 403 0 285 0 c 4
 142 0 82 70 82 236 c 5
 162 236 l 5
 162 124 197 80 285 80 c 4
 358 80 389 121 389 216 c 6
 389 730 l 13
 469 730 l 21
EndSplineSet
EndChar

StartChar: K
Encoding: 10 75 10
Width: 550
Flags: HW
LayerCount: 4
Back
SplineSet
343 730 m 1
 443 730 l 1
 443 -120 l 5
 343 -120 l 5
 343 730 l 1
EndSplineSet
Fore
SplineSet
203 324 m 1
 368 0 l 1
 468 0 l 1
 259 410 l 1
 468 730 l 1
 368 730 l 1
 162 430 l 1
 162 730 l 9
 82 730 l 17
 82 0 l 1
 162 0 l 1
 163 263 l 1
 203 324 l 1
EndSplineSet
EndChar

StartChar: L
Encoding: 11 76 11
Width: 550
Flags: HW
LayerCount: 4
Fore
SplineSet
82 730 m 21
 82 0 l 5
 468 0 l 5
 468 80 l 5
 162 80 l 5
 162 730 l 13
 82 730 l 21
EndSplineSet
EndChar

StartChar: M
Encoding: 12 77 12
Width: 550
Flags: HW
HStem: 0 21G<36 116 434 514> 710 20G<36 122.652 427.403 514>
VStem: 36 80<0 487> 434 80<0 487>
LayerCount: 4
Fore
SplineSet
36 0 m 1029
35 730 m 1045
251 80 m 1029
301 80 m 1029
301 80 m 1029
433 730 m 1045
301 80 m 1053
116 0 m 5
 36 0 l 5
 36 730 l 5
 116 730 l 5
 276 250 l 5
 434 730 l 5
 514 730 l 5
 514 0 l 5
 434 0 l 5
 434 487 l 5
 301 80 l 5
 251 80 l 5
 116 487 l 5
 116 0 l 5
EndSplineSet
EndChar

StartChar: N
Encoding: 13 78 13
Width: 550
Flags: HW
HStem: 0 21G<82 162 379.423 468> 710 20G<82 170.577 388 468>
VStem: 82 80<0 527> 388 80<203 730>
LayerCount: 4
Fore
SplineSet
162 527 m 9
 162 0 l 1
 82 0 l 17
 82 730 l 25
 162 730 l 17
 388 203 l 9
 388 730 l 1
 468 730 l 17
 468 0 l 25
 388 0 l 17
 162 527 l 9
162 527 m 1041
162 527 m 1025
162 527 m 1025
162 730 m 1025
EndSplineSet
EndChar

StartChar: O
Encoding: 14 79 14
Width: 550
Flags: HW
HStem: 0 80<204.544 346.067> 650 80<208.479 341.942>
VStem: 82 81<119.175 173 546 604.325> 387 81<119.175 173 546 604.325>
LayerCount: 4
Fore
SplineSet
163 173 m 2
 163 546 l 2
 163 602 214 650 275 650 c 0
 335 650 387 602 387 546 c 2
 387 173 l 2
 387 122 337 80 275 80 c 0
 213 80 163 122 163 173 c 2
82 173 m 2
 82 81 162 0 275 0 c 4
 387 0 468 81 468 173 c 2
 468 558 l 2
 468 649 376 730 275 730 c 0
 172 730 82 649 82 558 c 2
 82 173 l 2
EndSplineSet
EndChar

StartChar: P
Encoding: 15 80 15
Width: 550
Flags: HW
HStem: 0 21G<82 160> 310 80<160 312.065> 650 80<160 326.961>
VStem: 82 78<0 310 390 650> 390 78<454.76 597.673>
LayerCount: 4
Fore
SplineSet
275 650 m 18
 335 650 387 602 387 546 c 2
 387 473 l 6
 387 422 337 380 275 380 c 14
 160 380 l 29
 160 650 l 25
 275 650 l 18
275 300 m 22
 377 300 468 381 468 473 c 6
 468 558 l 2
 468 649 376 730 275 730 c 10
 82 730 l 25
 82 0 l 25
 160 0 l 25
 160 300 l 29
 275 300 l 22
EndSplineSet
EndChar

StartChar: Q
Encoding: 16 81 16
Width: 550
Flags: HW
HStem: 0 80<204.544 314.368> 650 80<208.479 341.942>
VStem: 82 81<119.175 604.325> 387 81<147.228 604.325>
LayerCount: 4
Back
SplineSet
242 226 m 5
 399 -21 l 5
 497 -1 l 5
 330 256 l 5
 242 226 l 5
163 173 m 6
 163 546 l 6
 163 602 214 650 275 650 c 4
 335 650 387 602 387 546 c 6
 387 213 l 6
 387 152 347 80 255 80 c 4
 203 80 163 112 163 173 c 6
82 173 m 6
 82 51 182 0 275 0 c 4
 357 0 468 71 468 223 c 6
 468 558 l 6
 468 649 376 730 275 730 c 4
 172 730 82 649 82 558 c 6
 82 173 l 6
EndSplineSet
Fore
SplineSet
230 236 m 5
 399 -21 l 1
 497 -1 l 1
 310 266 l 1
 230 236 l 5
163 173 m 2
 163 546 l 2
 163 602 214 650 275 650 c 0
 335 650 387 602 387 546 c 2
 387 213 l 2
 387 152 347 80 255 80 c 0
 203 80 163 112 163 173 c 2
82 173 m 2
 82 51 182 0 275 0 c 0
 357 0 468 71 468 223 c 2
 468 558 l 2
 468 649 376 730 275 730 c 0
 172 730 82 649 82 558 c 2
 82 173 l 2
EndSplineSet
EndChar

StartChar: R
Encoding: 17 82 17
Width: 550
Flags: HW
HStem: 328 75<-905.541 -808.195> 650 80<-964 -804.44>
VStem: -750 78<452.161 604.192>
LayerCount: 4
Fore
SplineSet
488 10 m 25
 321 351 l 25
 231 351 l 25
 399 0 l 25
 488 10 l 25
275 650 m 22
 345 650 387 602 387 546 c 2
 387 483 l 2
 387 432 367 405 285 405 c 10
 160 405 l 25
 160 650 l 25
 275 650 l 22
276 320 m 18
 458 320 468 401 468 493 c 2
 468 558 l 2
 468 649 417 730 276 730 c 14
 82 730 l 25
 82 0 l 25
 160 0 l 25
 160 320 l 25
 276 320 l 18
EndSplineSet
EndChar

StartChar: S
Encoding: 18 83 18
Width: 550
Flags: HW
HStem: 0 80<209.663 340.05> 650 80<211.085 340.034>
VStem: 82 80<129.91 196 451.957 596.309> 388 80<129.515 270.06> 398 78<558.487 586.84>
LayerCount: 4
Fore
SplineSet
387 549 m 17
 387 555 l 2
 387 621 375 649 275 649 c 0
 184 649 163 601 163 545 c 2
 163 503 l 2
 163 451 204 406 275 406 c 1
 377 406 478 318 478 227 c 2
 478 173 l 2
 478 61 442 0 270 0 c 0
 107 0 72 61 72 153 c 2
 72 162 l 9
 153 172 l 17
 153 163 l 2
 153 112 168 80 270 80 c 0
 382 80 397 132 397 183 c 2
 397 215 l 2
 397 271 335 326 275 326 c 1
 123 326 82 411 82 503 c 2
 82 557 l 2
 82 648 112 729 275 729 c 4
 436 729 468 668 468 577 c 2
 468 560 l 9
 387 549 l 17
EndSplineSet
EndChar

StartChar: T
Encoding: 19 84 19
Width: 550
Flags: HW
LayerCount: 4
Fore
SplineSet
82 650 m 21
 235 650 l 5
 235 0 l 9
 315 0 l 17
 315 650 l 5
 468 650 l 5
 468 730 l 5
 82 730 l 13
 82 650 l 21
EndSplineSet
EndChar

StartChar: U
Encoding: 20 85 20
Width: 550
Flags: HW
HStem: 0 80<204.544 346.067>
VStem: 82 81<119.175 173> 387 81<119.175 173>
LayerCount: 4
Fore
SplineSet
82 730 m 17
 82 183 l 2
 82 91 172 0 275 0 c 4
 377 0 468 91 468 183 c 6
 468 730 l 9
 387 730 l 17
 387 183 l 6
 387 132 337 80 275 80 c 4
 213 80 163 132 163 183 c 2
 163 730 l 9
 82 730 l 17
EndSplineSet
EndChar

StartChar: V
Encoding: 21 86 21
Width: 550
Flags: HW
HStem: 0 21G<226.918 325.027> 710 20G<82 166.371 383.68 468>
LayerCount: 4
Fore
SplineSet
225 0 m 1025
327 0 m 1029
327 0 m 1029
379 733 m 1041
327 0 m 1053
82 723 m 1
 170 733 l 1
 276 190 l 1
 380 733 l 1
 468 723 l 1
 327 0 l 5
 225 0 l 1
 82 723 l 1
EndSplineSet
EndChar

StartChar: W
Encoding: 22 87 22
Width: 550
Flags: HW
VStem: 245 70<617.118 650>
LayerCount: 4
Fore
SplineSet
36 730 m 1025
108 -0 m 1041
245 650 m 1025
315 650 m 1025
315 650 m 1025
363 -0 m 1041
315 650 m 1049
116 730 m 1
 36 730 l 1
 109 0 l 1
 189 0 l 1
 276 396 l 5
 364 0 l 1
 444 0 l 1
 514 730 l 1
 434 730 l 1
 384 293 l 1
 315 650 l 1
 245 650 l 1
 169 293 l 1
 116 730 l 1
EndSplineSet
EndChar

StartChar: X
Encoding: 23 88 23
Width: 550
Flags: HW
HStem: 710 20G<82 181.469 368.531 468>
LayerCount: 4
Fore
SplineSet
346 366 m 5
 478 12 l 1
 382 2 l 1
 275 299 l 1
 168 2 l 1
 72 12 l 1
 203 366 l 1
 72 720 l 1
 169 730 l 1
 275 433 l 1
 382 730 l 1
 478 720 l 1
 346 366 l 5
EndSplineSet
EndChar

StartChar: Y
Encoding: 24 89 24
Width: 550
Flags: HW
HStem: 0 21G<226 323> 710 20G<82 181.469 368.531 468>
VStem: 226 97<0 297>
LayerCount: 4
Fore
SplineSet
226 297 m 1
 72 720 l 1
 165 730 l 1
 275 431 l 1
 385 730 l 5
 478 720 l 5
 323 297 l 1
 323 0 l 1
 226 0 l 1
 226 297 l 1
EndSplineSet
EndChar

StartChar: Z
Encoding: 25 90 25
Width: 550
Flags: HW
HStem: 0 80<185 468> 650 80<82 365>
LayerCount: 4
Fore
SplineSet
183 83 m 9
 468 83 l 1
 468 0 l 17
 82 0 l 25
 82 80 l 17
 367 647 l 9
 82 647 l 1
 82 730 l 17
 468 730 l 25
 468 650 l 17
 183 83 l 9
183 83 m 1041
183 83 m 1025
183 83 m 1025
82 80 m 1025
EndSplineSet
EndChar

StartChar: bracketleft
Encoding: 26 91 26
Width: 550
Flags: HW
HStem: -120 90<232 398> 640 90<232 398>
VStem: 142 256<-120 -30 640 730> 142 90<-30 640>
LayerCount: 4
Fore
SplineSet
237 -25 m 5xd0
 398 -25 l 1
 398 -120 l 1
 142 -120 l 1
 142 730 l 1
 398 730 l 1
 398 635 l 1xe0
 237 635 l 5
 237 -25 l 5xd0
EndSplineSet
EndChar

StartChar: backslash
Encoding: 27 92 27
Width: 550
Flags: HW
HStem: 0 21G<361.137 468> 710 20G<82 188.863>
LayerCount: 4
Fore
SplineSet
186 745 m 5
 468 -35 l 5
 364 -45 l 5
 82 735 l 5
 186 745 l 5
EndSplineSet
EndChar

StartChar: bracketright
Encoding: 28 93 28
Width: 550
Flags: HW
VStem: 147 256
LayerCount: 4
Fore
SplineSet
308 -25 m 1
 147 -25 l 1
 147 -120 l 1
 403 -120 l 1
 403 730 l 1
 147 730 l 1
 147 635 l 1
 308 635 l 1
 308 -25 l 1
EndSplineSet
EndChar

StartChar: asciicircum
Encoding: 29 94 29
Width: 550
Flags: HW
LayerCount: 4
Fore
SplineSet
275 596 m 25
 379 369 l 1
 468 369 l 1
 275 800 l 1
 82 369 l 9
 171 369 l 1
 275 596 l 25
EndSplineSet
EndChar

StartChar: underscore
Encoding: 30 95 30
Width: 550
Flags: HW
HStem: 0 100
LayerCount: 4
Fore
SplineSet
510 100 m 25
 40 100 l 25
 40 0 l 25
 510 0 l 25
 510 100 l 25
EndSplineSet
EndChar

StartChar: grave
Encoding: 31 96 31
Width: 550
Flags: HW
HStem: 526 274
VStem: 126 297
LayerCount: 4
Fore
SplineSet
116 800 m 17
 272 800 l 1
 423 526 l 1
 315 526 l 5
 116 800 l 17
EndSplineSet
EndChar

StartChar: a
Encoding: 32 97 32
Width: 550
Flags: HW
HStem: 0 78<203.695 360.705> 246 60<193.944 367.471> 451 75<194.818 352.58>
VStem: 82 81<115.376 218.433 370 422.073> 387 81<0 40 103.361 225.954 306 419.387>
LayerCount: 4
Fore
SplineSet
155 138 m 0
 155 81 178 80 271 80 c 0
 324 80 353 81 389 112 c 1
 388 194 l 5
 368 223 319 223 257 223 c 4
 199 223 155 202 155 138 c 0
387 363 m 2
 387 408 382 456 285 456 c 0
 176 456 172 414 172 365 c 1
 90 375 l 1
 90 436 99.232421875 461.416992188 132 492 c 0
 162 520 209 531 285 531 c 0
 360 531 394 520 433 483 c 0
 459 458 468 419 468 363 c 2
 468 0 l 1
 387 0 l 1
 387 20 l 1
 367 0 317 0 268 0 c 0
 101 0 76 32 76 151 c 0
 76 225 120 267 178 289 c 4
 208.998046875 300.80859375 240.404296875 303.80859375 269.606445312 303.80859375 c 4
 319.537109375 303.80859375 357 302 387 284 c 5
 387 363 l 2
EndSplineSet
EndChar

StartChar: b
Encoding: 33 98 33
Width: 550
Flags: HW
HStem: 0 21G<82.0209 163> 21 60<183.422 356.056> 450 78<191.031 347.306> 710 20G<82 163>
VStem: 82 81<0 21 102.045 423.429 488 730> 387 81<109.131 411.514>
LayerCount: 4
Fore
SplineSet
165 394 m 5x7c
 165 108 l 5
 184 85 232 81 293 81 c 0
 350 81 387 115 387 166 c 2
 387 341 l 2
 387 396 340 438 279 438 c 0
 226 438 202 428 165 394 c 5x7c
82 0 m 17xbc
 82 740 l 1
 165 740 l 5
 165 476 l 5
 186 499 233 516 282 516 c 0
 369 516 468 439 468 371 c 2
 468 148 l 2
 468 87 432.739422512 33.969562534 372 13 c 0
 342.65060241 2.86746987952 310.419921875 0 280 0 c 0
 223.35546875 0 175.409179688 11 165 11 c 5
 155 0 l 13
 82 0 l 17xbc
EndSplineSet
EndChar

StartChar: c
Encoding: 34 99 34
Width: 550
Flags: HW
HStem: 0 78<203.794 342.627> 451 78<212.438 342.627>
VStem: 82 81<115.378 170 347 403.746> 387 81<123.697 169 360 405.303>
LayerCount: 4
Fore
SplineSet
82 173 m 2
 82 84 166 0 280 0 c 4
 408 0 468 51 468 159 c 1
 387 159 l 1
 387 106 350 78 280 78 c 0
 213 78 163 120 163 171 c 2
 163 359 l 2
 163 414 218 466 280 466 c 0
 350 466 387 428 387 375 c 1
 468 375 l 1
 468 483 398 544 280 544 c 0
 166 544 82 460 82 371 c 2
 82 173 l 2
EndSplineSet
EndChar

StartChar: d
Encoding: 35 100 35
Width: 550
Flags: HW
HStem: 21 60<193.944 366.578> 450 78<202.694 359.861>
VStem: 82 81<109.131 166 353 411.514> 387 81<102.045 118 407 424.336>
LayerCount: 4
Fore
SplineSet
385 394 m 5x7c
 385 108 l 5
 366 85 318 81 257 81 c 0
 200 81 163 115 163 166 c 2
 163 341 l 2
 163 396 210 438 271 438 c 0
 324 438 348 428 385 394 c 5x7c
468 0 m 17xbc
 468 740 l 1
 385 740 l 5
 385 476 l 5
 364 499 317 516 268 516 c 0
 181 516 82 439 82 371 c 2
 82 148 l 2
 82 87 117.260742188 33.9697265625 178 13 c 0
 207.349609375 2.8671875 239.580078125 0 270 0 c 0
 326.64453125 0 374.590820312 11 385 11 c 5
 395 0 l 13
 468 0 l 17xbc
EndSplineSet
EndChar

StartChar: e
Encoding: 36 101 36
Width: 550
Flags: HW
HStem: 0 78<212.438 350.027> 451 78<212.438 342.627>
VStem: 82 81<125.254 182 347 403.746> 387 81<112.705 153 360 405.303>
LayerCount: 4
Fore
SplineSet
387 360 m 2
 387 306 l 1
 163 306 l 1
 163 347 l 2
 163 402 203 451 275 451 c 0
 335 451 387 403 387 360 c 2
468 360 m 2
 468 448 373 529 275 529 c 0
 171 529 82 448 82 359 c 10
 82 170 l 18
 82 81 171 0 275 0 c 0
 405 0 468 44 468 121 c 1
 387 131 l 1
 387 92 333 78 275 78 c 0
 213 78 163 127 163 182 c 2
 163 228 l 5
 468 228 l 5
 468 360 l 2
EndSplineSet
EndChar

StartChar: f
Encoding: 37 102 37
Width: 550
Flags: HW
HStem: 0 21G<235 315> 446 80<82 235 315 468>
VStem: 235 80<0 446>
LayerCount: 4
Fore
SplineSet
222 506 m 25
 222 599 l 18
 222 699 256 730 409 730 c 10
 468 730 l 25
 468 647 l 25
 418 647 l 18
 314 647 308 637 308 561 c 10
 308 504 l 25
 462 504 l 25
 462 424 l 25
 308 424 l 25
 308 0 l 25
 222 0 l 25
 222 424 l 25
 72 424 l 25
 72 506 l 25
 222 506 l 25
EndSplineSet
EndChar

StartChar: g
Encoding: 38 103 38
Width: 550
Flags: HW
HStem: -170 77<191.504 353.375> 72 60<193.944 367.471> 448 78<202.694 360.705>
VStem: 82 81<-65.1367 0 160.131 217 351 409.514> 387 81<-60.5301 0 152.046 169 404 422.639>
LayerCount: 4
Fore
SplineSet
389 402 m 1
 388 170 l 1
 369 147 319 133 257 133 c 0
 200 133 163 167 163 218 c 2
 163 350 l 2
 163 405 210 446 271 446 c 0
 324 446 353 435 389 402 c 1
82 -3 m 2
 82 -168 220 -170 275 -170 c 0
 349 -170 391 -156 430 -117 c 0
 458 -89 468 -58 468 0 c 2
 468 526 l 1
 387 526 l 1
 387 486 l 1
 366 509 317 526 268 526 c 0
 178 526 82 448 82 380 c 2
 82 199 l 2
 82 138 118 87 178 64 c 0
 262 32 371 72 387 72 c 1
 387 0 l 2
 387 -35 373 -93 275 -93 c 0
 198 -93 169 -70 162 0 c 1
 82 0 l 1
 82 -3 l 2
EndSplineSet
EndChar

StartChar: h
Encoding: 39 104 39
Width: 550
Flags: HW
VStem: 82 81<328 388.965 730 730> 387 81<306 398.959>
LayerCount: 4
Fore
SplineSet
387 285 m 6
 387 0 l 1
 468 0 l 1
 468 309 l 6
 468 427 406 509 316 509 c 4
 211 509 161 445 161 445 c 13
 163 730 l 1
 82 730 l 1
 82 0 l 1
 163 0 l 1
 163 305 l 6
 163 334 180.823242188 369.220703125 207 390 c 4
 238.46875 414.98046875 268.463867188 426.8046875 294.629882812 426.8046875 c 4
 359.118164062 426.8046875 387 375.528320312 387 285 c 6
EndSplineSet
EndChar

StartChar: i
Encoding: 40 105 40
Width: 550
Flags: HW
HStem: 0 82<327.293 450.369> 625 129<193.136 336.864>
VStem: 170 190<647.289 732.327> 235 80<93.3497 141>
LayerCount: 4
Fore
SplineSet
172 690 m 4xe0
 172 727 212 754 267 754 c 4
 322 754 362 727 362 690 c 4
 362 652 322 625 267 625 c 4
 212 625 172 652 172 690 c 4xe0
387 82 m 4
 364 82 327 82 327 141 c 6
 327 528 l 5
 64 528 l 5
 64 448 l 5
 247 448 l 5
 247 141 l 6xd0
 247 89 257 55 279 32 c 4
 297 13 330 0 360 0 c 4
 390 0 425 2 480 24 c 5
 457 98 l 5
 441 93 417 82 387 82 c 4
EndSplineSet
EndChar

StartChar: j
Encoding: 41 106 41
Width: 550
Flags: HW
HStem: -165 92<174.172 288.382> 448 80<86.5 305.5> 625 129<254.136 397.864>
VStem: 231 190<647.289 732.327> 305 80<-48.5196 448>
LayerCount: 4
Fore
SplineSet
272 690 m 4xf0
 272 727 312 754 367 754 c 4
 422 754 462 727 462 690 c 4
 462 652 422 625 367 625 c 4
 312 625 272 652 272 690 c 4xf0
388 -126 m 4
 363 -152 333 -165 300 -165 c 4
 268 -165 215 -165 118 -92 c 5
 164 -18 l 5
 182 -30 193 -37 208 -47 c 4
 232 -62 263 -73 283 -73 c 4
 303 -73 346 -56 346 -7 c 6
 346 448 l 5
 118 448 l 5
 118 528 l 5
 426 529 l 5
 426 -29 l 6xe8
 426 -73 417 -95 388 -126 c 4
EndSplineSet
EndChar

StartChar: k
Encoding: 42 107 42
Width: 550
Flags: HW
LayerCount: 4
Fore
SplineSet
173.061523438 139.067382812 m 1
 173.120117188 139.134765625 173 139 173 139 c 1
 173 0 l 1
 92 0 l 1
 92 730 l 1
 173 730 l 1
 173 288 l 1
 373 526 l 1
 478 512 l 5
 173.061523438 139.067382812 l 1
478 0 m 17
 379 0 l 1
 210 255 l 25
 280 298 l 1
 478 0 l 17
EndSplineSet
EndChar

StartChar: l
Encoding: 43 108 43
Width: 550
Flags: HW
HStem: 0 82<327.293 450.369>
VStem: 235 80<93.3497 141>
LayerCount: 4
Fore
SplineSet
375 82 m 0
 352 82 315 82 315 141 c 2
 315 730 l 1
 72 730 l 1
 72 650 l 1
 235 650 l 1
 235 141 l 2
 235 89 245 55 267 32 c 0
 285 13 318 0 348 0 c 0
 378 0 433 2 488 24 c 1
 465 98 l 1
 449 93 405 82 375 82 c 0
EndSplineSet
EndChar

StartChar: m
Encoding: 44 109 44
Width: 550
Flags: HW
HStem: 454 72<124.709 226.242 324.724 423.953>
VStem: 36 80<413 443.112> 235 80<412 441.719> 434 80<382.513 440.444>
CounterMasks: 1 70
LayerCount: 4
Fore
SplineSet
237 382 m 18
 237 432 205 443 176 443 c 0
 147 443 115 432 115 382 c 2
 115 -5 l 1
 36 -5 l 17
 36 378 l 2
 36 462 74 520 176 520 c 0
 213 520 252 508 275 489 c 1
 298 508 337 520 374 520 c 0
 476 520 514 462 514 378 c 2
 514 -5 l 9
 435 -5 l 1
 435 382 l 2
 435 432 403 443 374 443 c 0
 345 443 313 432 313 382 c 2
 313 -5 l 1
 237 -5 l 1
 237 382 l 18
EndSplineSet
EndChar

StartChar: n
Encoding: 45 110 45
Width: 550
Flags: HW
HStem: 446 80<204.318 343.63>
VStem: 82 80<342 404.65> 388 80<341.177 399.163>
LayerCount: 4
Fore
SplineSet
160 0 m 17
 160 339 l 2
 160 415 214 443 275 443 c 0
 335 443 390 415 390 339 c 6
 390 0 l 13
 471 0 l 21
 471 354 l 6
 471 445 416 526 275 526 c 0
 132 526 79 445 79 354 c 2
 79 0 l 9
 160 0 l 17
EndSplineSet
EndChar

StartChar: o
Encoding: 46 111 46
Width: 550
Flags: HW
HStem: 0 80<204.544 346.067> 449 80<208.479 341.942>
VStem: 82 81<119.175 173 345 403.325> 387 81<119.175 173 345 403.325>
LayerCount: 4
Fore
SplineSet
163 356 m 2
 163 184 l 2
 163 128 199 80 275 80 c 0
 350 80 387 128 387 184 c 2
 387 356 l 2
 387 407 337 449 275 449 c 0
 213 449 163 407 163 356 c 2
82 356 m 2
 82 448 172 529 275 529 c 0
 377 529 468 448 468 356 c 2
 468 172 l 2
 468 81 406 0 275 0 c 0
 142 0 82 81 82 172 c 2
 82 356 l 2
EndSplineSet
EndChar

StartChar: p
Encoding: 47 112 47
Width: 550
Flags: HW
HStem: -170 21G<82.0209 163> 72 60<182.529 356.056> 452 78<189.295 347.306>
VStem: 82 81<-170 72 152.046 426.639 490 530> 387 81<160.131 413.514>
LayerCount: 4
Fore
SplineSet
161 418 m 1
 162 169 l 1
 181 146 231 132 293 132 c 0
 350 132 387 166 387 217 c 2
 387 365 l 2
 387 420 340 462 279 462 c 0
 226 462 197 451 161 418 c 1
82 -170 m 17
 82 530 l 1
 153 530 l 5
 163 500 l 1
 184 523 233 540 282 540 c 0
 389 540 468 463 468 395 c 2
 468 199 l 2
 468 138 432 87 372 64 c 0
 288 32 179 72 163 72 c 1
 163 -170 l 9
 82 -170 l 17
EndSplineSet
EndChar

StartChar: q
Encoding: 48 113 48
Width: 550
Flags: HW
HStem: 72 60<193.944 367.471> 452 78<202.694 360.705>
VStem: 82 81<160.131 217 355 413.514> 387 81<152.046 169 408 426.639>
LayerCount: 4
Fore
SplineSet
389 418 m 1
 388 169 l 1
 369 146 319 132 257 132 c 0
 200 132 163 166 163 217 c 2
 163 365 l 2
 163 420 210 462 271 462 c 0
 324 462 353 451 389 418 c 1
468 -170 m 17
 468 530 l 1
 397 530 l 5
 387 500 l 1
 366 523 317 540 268 540 c 0
 161 540 82 463 82 395 c 2
 82 199 l 2
 82 138 118 87 178 64 c 0
 262 32 371 72 387 72 c 1
 387 -170 l 9
 468 -170 l 17
EndSplineSet
EndChar

StartChar: r
Encoding: 49 114 49
Width: 550
Flags: HW
HStem: 446 80<211.452 366.763>
VStem: 82 80<342 401.273>
LayerCount: 4
Fore
SplineSet
305 526 m 0
 456 526 468 493 468 382 c 2
 468 373 l 1
 388 364 l 1
 388 382 l 2
 388 422 381.66015625 454.647460938 278 440 c 4
 186 427 162 375 162 330 c 2
 162 1 l 1
 82 0 l 1
 82 513 l 1
 160 519 l 1
 160.251587673 492.519787345 l 1
 203.392399024 514.801159495 257.651160945 526 305 526 c 0
EndSplineSet
EndChar

StartChar: s
Encoding: 50 115 50
Width: 550
Flags: HW
HStem: 0 75<201.343 348.542> 220 80<189.85 355.648> 451 75<201.458 348.657>
VStem: 82 80<111.69 148 328.03 415.112> 388 80<110.888 191.531 378 414.31>
LayerCount: 4
Fore
SplineSet
275 228 m 0
 133 228 82 280 82 374 c 0
 82 463 135 530 275 530 c 0
 408 530 468 501 468 402 c 1
 384 392 l 1
 384 438 370 449 275 449 c 0
 197 449 165 416 165 374 c 0
 165 332 196 304 275 304 c 0
 408 304 468 237 468 152 c 0
 468 53 425 -4 275 -4 c 0
 132 -4 82 15 82 104 c 1
 163 114 l 1
 163 80 190 74 275 74 c 0
 363 74 385 110 385 152 c 0
 385 186 364 228 275 228 c 0
EndSplineSet
EndChar

StartChar: t
Encoding: 51 116 51
Width: 550
Flags: HW
HStem: 0 82<327.293 450.369>
VStem: 235 80<93.3497 141>
LayerCount: 4
Fore
SplineSet
257 32 m 0
 275 13 308 0 338 0 c 0
 368 0 403 2 458 24 c 1
 435 98 l 1
 419 93 395 82 365 82 c 0
 341 82 316 82 307 119 c 0
 305 127 306 135 305 141 c 1
 305 433 l 1
 483 433 l 1
 483 513 l 1
 305 513 l 1
 305 690 l 1
 225 690 l 1
 225 513 l 1
 67 513 l 1
 67 433 l 1
 225 433 l 1
 225 141 l 2
 225 89 235 55 257 32 c 0
EndSplineSet
EndChar

StartChar: u
Encoding: 52 117 52
Width: 550
Flags: HW
HStem: 0 80<204.544 346.296>
VStem: 82 81<119.175 173> 387 81<119.175 173>
LayerCount: 4
Fore
SplineSet
390 526 m 21
 390 187 l 6
 390 131 346 83 275 83 c 0
 205 83 160 131 160 187 c 2
 160 526 l 9
 79 526 l 17
 79 172 l 2
 79 81 144 0 275 0 c 0
 408 0 471 81 471 172 c 6
 471 526 l 13
 390 526 l 21
EndSplineSet
EndChar

StartChar: v
Encoding: 53 118 53
Width: 550
Flags: HW
LayerCount: 4
Fore
SplineSet
164 526 m 25
 82 516 l 17
 225 0 l 9
 325 0 l 1
 468 516 l 29
 386 526 l 25
 275 125 l 25
 164 526 l 25
164 526 m 1049
224 0 m 1041
164 526 m 1025
164 526 m 1025
82 516 m 1025
EndSplineSet
EndChar

StartChar: w
Encoding: 54 119 54
Width: 550
Flags: HWO
VStem: 235 90<490.682 526>
LayerCount: 4
Fore
SplineSet
235 209 m 2
 235 88 204 80 164 80 c 1
 136.349609375 80 113.99609375 83 113.99609375 207 c 1
 114 526 l 1
 36 516 l 1
 36 214 l 1
 36 2 60.5061293178 0 130 0 c 1
 179 0 l 1
 262 0 279 54 280 56 c 1
 281 54 298 0 381 0 c 1
 430 0 l 1
 499.494140625 0 524 2 524 214 c 1
 524 516 l 1
 446 526 l 1
 446.00390625 207 l 1
 446.00390625 83 423.650390625 80 396 80 c 1
 356 80 325.031213148 88.0000012501 325 209 c 2
 324.91796875 507 l 5
 235 507 l 5
 235 209 l 2
36 516 m 1025
129 0 m 1041
EndSplineSet
EndChar

StartChar: x
Encoding: 55 120 55
Width: 550
Flags: HW
LayerCount: 4
Fore
SplineSet
326 269 m 1
 468 519 l 25
 388 536 l 25
 275 341 l 25
 162 536 l 25
 82 519 l 17
 224 269 l 1
 82 9 l 9
 162 -8 l 25
 275 187 l 29
 388 -8 l 25
 468 9 l 25
 326 269 l 1
162 -8 m 1041
162 -8 m 1025
162 -8 m 1025
82 9 m 1025
EndSplineSet
EndChar

StartChar: y
Encoding: 56 121 56
Width: 551
Flags: HW
LayerCount: 2
Fore
SplineSet
384 527 m 21
 384 187 l 1
 324 187 l 1
 170 187 169 188 169 376 c 2
 169 522 l 5
 82 516 l 5
 82 385 l 0
 82 122 108.863077207 98 379 98 c 1
 379 -38 372 -48 236 -48 c 1
 88 -48 l 1
 90 -132 l 1
 267 -132 l 2
 446 -132 468 -94 468 113 c 0
 469 532 l 5
 384 527 l 21
267 -132 m 1048
EndSplineSet
EndChar

StartChar: z
Encoding: 57 122 57
Width: 550
Flags: HW
HStem: 0 80<185 468> 446 80<82 365>
LayerCount: 4
Fore
SplineSet
185 80 m 13
 468 80 l 5
 468 0 l 21
 82 0 l 29
 82 80 l 21
 365 446 l 13
 82 446 l 5
 82 526 l 21
 468 526 l 29
 468 446 l 21
 185 80 l 13
185 80 m 1045
185 80 m 1029
185 80 m 1029
82 80 m 1029
EndSplineSet
EndChar

StartChar: Delta
Encoding: 65 916 65
Width: 550
Flags: HW
LayerCount: 4
Fore
SplineSet
468 0 m 17
 82 0 l 1
 275 528 l 9
 468 0 l 17
371.5 72 m 9
 275 336 l 17
 178.5 72 l 1
 371.5 72 l 9
EndSplineSet
EndChar

StartChar: zero
Encoding: 86 48 86
Width: 550
Flags: HW
HStem: 2 78<226.613 323.64> 650 80<226.364 323.261>
VStem: 82 81<248.773 546.366> 388 80<183.951 482.008>
LayerCount: 4
Fore
SplineSet
388 547 m 25
 163 303 l 25
 163 557 l 18
 163 608 213 650 275 650 c 0
 337 650 388 608 388 557 c 10
 388 547 l 25
163 183 m 25
 388 427 l 25
 388 173 l 18
 388 122 337 80 275 80 c 0
 213 80 163 122 163 173 c 10
 163 183 l 25
468 557 m 18
 468 649 378 730 275 730 c 0
 173 730 82 649 82 557 c 10
 82 173 l 18
 82 82 172 0 275 0 c 0
 377 0 468 81 468 173 c 10
 468 557 l 18
EndSplineSet
EndChar

StartChar: one
Encoding: 87 49 87
Width: 550
Flags: HW
LayerCount: 4
Fore
SplineSet
315 80 m 1
 315 730 l 1
 235 730 l 1
 82 590 l 5
 82 470 l 5
 235 610 l 1
 235 80 l 1
 82 80 l 1
 82 0 l 1
 468 0 l 1
 468 80 l 1
 315 80 l 1
235 80 m 1025
315 80 m 1025
EndSplineSet
EndChar

StartChar: two
Encoding: 88 50 88
Width: 550
Flags: HW
HStem: 0 80<185.057 468> 650 80<207.51 343.297>
VStem: 82 90<494 607.737>
LayerCount: 4
Fore
SplineSet
377 546 m 16
 377 602 335 650 275 650 c 0
 214 650 173 602 172 546 c 10
 172 504 l 25
 82 504 l 25
 82 558 l 18
 82 650 172 730 275 730 c 0
 376 730 468 649 468 558 c 8
 468 525 462 505 444 477 c 26
 185 80 l 17
 468 80 l 1
 468 0 l 1
 82 0 l 1
 82 80 l 9
 354 487 l 18
 362 499 377 521 377 546 c 16
EndSplineSet
EndChar

StartChar: three
Encoding: 89 51 89
Width: 550
Flags: HW
HStem: 0 78<207.373 346.206> 327 80<179 284.69> 652 78<207.373 337.562>
VStem: 82 81<123.697 169 561 606.303> 387 81<115.516 238.592 488.611 605.385>
LayerCount: 4
Fore
SplineSet
275 405 m 22
 337 405 387 447 387 498 c 6
 387 545 l 6
 387 601 336 649 275 649 c 4
 215 649 163 601 163 545 c 6
 163 538 l 13
 82 538 l 21
 82 557 l 6
 82 648 173 729 274 729 c 4
 377 729 468 648 468 557 c 6
 468 498 l 6
 468 445.618164062 438.608398438 396.7890625 394.467773438 364.459960938 c 5
 438.374023438 332.221679688 468 283.733398438 468 232 c 6
 468 173 l 6
 468 81 377 0 274 0 c 4
 172 0 82 81 82 173 c 6
 82 178 l 13
 163 178 l 21
 163 173 l 6
 163 122 213 80 275 80 c 4
 337 80 387 122 387 173 c 6
 387 220 l 6
 387 276 336 324 275 324 c 14
 206 324 l 29
 206 405 l 29
 275 405 l 22
EndSplineSet
EndChar

StartChar: four
Encoding: 90 52 90
Width: 550
Flags: HW
LayerCount: 4
Fore
SplineSet
375 0 m 21
 375 730 l 5
 295 730 l 1
 82 270 l 1
 82 190 l 1
 468 190 l 1
 468 270 l 1
 166 270 l 1
 295 560 l 1
 295 0 l 9
 375 0 l 21
EndSplineSet
EndChar

StartChar: five
Encoding: 91 53 91
Width: 550
Flags: HW
LayerCount: 4
Fore
SplineSet
82 143 m 1025
83 369 m 17
 306 369 l 2
 360 369 388 337 388 275 c 2
 387 173 l 2
 387 122 337 80 275 80 c 0
 213 80 163 122 163 173 c 1
 82 173 l 1
 82 81 172 0 275 0 c 4
 377 0 468 81 468 173 c 2
 469 287 l 2
 469 382 402 449 307 449 c 2
 163 449 l 9
 162 650 l 25
 468 650 l 25
 468 730 l 25
 82 730 l 25
 83 369 l 17
EndSplineSet
EndChar

StartChar: six
Encoding: 92 54 92
Width: 550
Flags: HW
LayerCount: 4
Fore
SplineSet
82 173 m 2
 82 81 173 0 276 0 c 0
 378 0 468 81 468 173 c 2
 468 257 l 2
 468 348 377 429 276 429 c 0
 238 429 197 416 163 394 c 1
 163 545 l 2
 163 601 214 649 275 649 c 0
 335 649 387 601 387 545 c 2
 387 535 l 1
 468 535 l 1
 468 557 l 2
 468 648 377 729 276 729 c 0
 173 729 82 648 82 557 c 2
 82 173 l 2
163 173 m 2
 163 245 l 2
 163 301 214 349 275 349 c 0
 335 349 387 301 387 245 c 2
 387 173 l 2
 387 122 337 80 275 80 c 0
 213 80 163 122 163 173 c 2
EndSplineSet
EndChar

StartChar: seven
Encoding: 93 55 93
Width: 550
Flags: HW
HStem: 0 21G<222 331.836> 650 80<82 362>
LayerCount: 4
Fore
SplineSet
132 0 m 17
 352 650 l 1
 82 650 l 1
 82 730 l 1
 468 730 l 1
 228 0 l 9
 132 0 l 17
EndSplineSet
EndChar

StartChar: eight
Encoding: 94 56 94
Width: 550
Flags: HW
LayerCount: 4
Fore
SplineSet
163 518 m 6
 163 545 l 6
 163 601 214 649 275 649 c 4
 335 649 387 601 387 545 c 6
 387 518 l 6
 387 467 337 425 275 425 c 4
 213 425 163 467 163 518 c 6
82 518 m 6
 82 426 172 345 275 345 c 4
 377 345 468 427 468 518 c 6
 468 557 l 6
 468 648 377 729 276 729 c 4
 173 729 82 648 82 557 c 6
 82 518 l 6
163 173 m 6
 163 240 l 6
 163 296 214 344 275 344 c 4
 335 344 387 296 387 240 c 6
 387 173 l 6
 387 122 337 80 275 80 c 4
 213 80 163 122 163 173 c 6
82 173 m 6
 82 81 173 0 276 0 c 4
 378 0 468 81 468 173 c 6
 468 252 l 6
 468 343 377 424 275 424 c 4
 173 424 82 343 82 252 c 6
 82 173 l 6
EndSplineSet
EndChar

StartChar: nine
Encoding: 95 57 95
Width: 550
Flags: HW
LayerCount: 4
Fore
SplineSet
397 326 m 1
 223 0 l 1
 132 0 l 1
 284 301 l 1
 179 301 82 384 82 473 c 2
 82 557 l 2
 82 649 173 730 275 730 c 0
 378 730 468 649 468 557 c 2
 468 513 l 2
 468 458 457 429 397 326 c 1
387 557 m 2
 387 608 337 650 275 650 c 4
 213 650 163 608 163 557 c 2
 163 485 l 2
 163 429 215 381 275 381 c 0
 336 381 387 429 387 485 c 2
 387 557 l 2
EndSplineSet
EndChar

StartChar: onequarter
Encoding: 96 188 96
Width: 550
VWidth: 833
Flags: HW
LayerCount: 4
Fore
SplineSet
472.5 -9.5 m 1
 457.5 -9.5 l 1
 432.5 -9.5 l 1
 417.5 -9.5 l 1
 417.5 5.5 l 1
 417.5 86.5 l 1
 325.5 86.5 l 1
 310.5 86.5 l 1
 310.5 101.5 l 1
 310.5 141.5 l 1
 417.5 371.5 l 1
 432.5 371.5 l 1
 457.5 371.5 l 1
 472.5 371.5 l 1
 472.5 356.5 l 1
 472.5 141.5 l 1
 504.5 141.5 l 1
 519.5 141.5 l 1
 519.5 126.5 l 1
 519.5 101.5 l 1
 519.5 86.5 l 1
 504.5 86.5 l 1
 472.5 86.5 l 1
 472.5 5.5 l 1
 472.5 -9.5 l 1
128.5 757.5 m 1
 143.5 757.5 l 1
 143.5 742.5 l 1
 143.5 433.5 l 1
 193.5 433.5 l 1
 208.5 433.5 l 1
 208.5 418.5 l 1
 208.5 393.5 l 1
 208.5 378.5 l 1
 193.5 378.5 l 1
 38.5 378.5 l 1
 23.5 378.5 l 1
 23.5 393.5 l 1
 23.5 418.5 l 1
 23.5 433.5 l 1
 38.5 433.5 l 1
 88.5 433.5 l 1
 88.5 666.828358209 l 1
 36.5 612.5 l 1
 21.5 612.5 l 1
 21.5 627.5 l 1
 21.5 687.5 l 1
 88.5 757.5 l 1
 103.5 757.5 l 1
 128.5 757.5 l 1
374.270833333 141.5 m 1
 417.5 141.5 l 1
 417.5 237.269230769 l 1
 374.270833333 141.5 l 1
89.5 -7.5 m 1
 74.5 -7.5 l 1
 74.5 7.5 l 1
 410.5 737.5 l 1
 425.5 737.5 l 1
 464.5 737.5 l 1
 479.5 737.5 l 1
 479.5 722.5 l 1
 143.5 -7.5 l 1
 128.5 -7.5 l 1
 89.5 -7.5 l 1
EndSplineSet
EndChar

StartChar: onehalf
Encoding: 97 189 97
Width: 550
VWidth: 833
Flags: HW
LayerCount: 4
Fore
SplineSet
89.5 -7.5 m 1
 74.5 -7.5 l 1
 74.5 7.5 l 1
 410.5 737.5 l 1
 425.5 737.5 l 1
 464.5 737.5 l 1
 479.5 737.5 l 1
 479.5 722.5 l 1
 143.5 -7.5 l 1
 128.5 -7.5 l 1
 89.5 -7.5 l 1
128.5 757.5 m 1
 143.5 757.5 l 1
 143.5 742.5 l 1
 143.5 433.5 l 1
 193.5 433.5 l 1
 208.5 433.5 l 1
 208.5 418.5 l 1
 208.5 393.5 l 1
 208.5 378.5 l 1
 193.5 378.5 l 1
 38.5 378.5 l 1
 23.5 378.5 l 1
 23.5 393.5 l 1
 23.5 418.5 l 1
 23.5 433.5 l 1
 38.5 433.5 l 1
 88.5 433.5 l 1
 88.5 666.828358209 l 1
 36.5 612.5 l 1
 21.5 612.5 l 1
 21.5 627.5 l 1
 21.5 687.5 l 1
 88.5 757.5 l 1
 103.5 757.5 l 1
 128.5 757.5 l 1
325.5 -9.5 m 1
 310.5 -9.5 l 1
 310.5 5.5 l 1
 311.5 45.5 l 1
 446.5 249.5 l 2
 449.793597972 254.440396957 455.799142843 263.448714264 457.817587561 273.175428357 c 0
 454.351560371 294.97487089 437.959171938 312.777754761 415 315.984783816 c 1
 389.058058477 312.36110956 371.5 290.102750825 371.5 264.5 c 2
 371.5 257.5 l 1
 371.5 242.5 l 1
 356.5 242.5 l 1
 325.5 242.5 l 1
 310.5 242.5 l 1
 310.5 257.5 l 1
 310.5 285.5 l 2
 310.5 331.5 356.5 371.5 407.5 371.5 c 2
 422.5 371.5 l 2
 473.5 371.5 519.5 330.5 519.5 285.5 c 2
 519.5 270.5 l 2
 519.5 253.5 516.5 243.5 507.5 229.5 c 2
 387.298994975 45.5 l 1
 504.5 45.5 l 1
 519.5 45.5 l 1
 519.5 30.5 l 1
 519.5 5.5 l 1
 519.5 -9.5 l 1
 504.5 -9.5 l 1
 325.5 -9.5 l 1
EndSplineSet
EndChar

StartChar: threequarters
Encoding: 98 190 98
Width: 550
VWidth: 833
Flags: HW
LayerCount: 4
Fore
SplineSet
472.5 -9.5 m 1
 457.5 -9.5 l 1
 432.5 -9.5 l 1
 417.5 -9.5 l 1
 417.5 5.5 l 1
 417.5 86.5 l 1
 325.5 86.5 l 1
 310.5 86.5 l 1
 310.5 101.5 l 1
 310.5 141.5 l 1
 417.5 371.5 l 1
 432.5 371.5 l 1
 457.5 371.5 l 1
 472.5 371.5 l 1
 472.5 356.5 l 1
 472.5 141.5 l 1
 504.5 141.5 l 1
 519.5 141.5 l 1
 519.5 126.5 l 1
 519.5 101.5 l 1
 519.5 86.5 l 1
 504.5 86.5 l 1
 472.5 86.5 l 1
 472.5 5.5 l 1
 472.5 -9.5 l 1
81.5 559.5 m 1
 81.5 603.5 l 1
 152.690886 603.5 180.633624805 618.817052132 183.288314597 663.13504045 c 0
 181.520801799 693.159713302 168.438692442 704.94065278 134.854203756 706.353097248 c 0
 98.783010084 704.891951376 86.5000001736 692.34691411 86.5 660.5 c 1
 71.5 660.5 l 1
 45.5 660.5 l 1
 30.5 660.5 l 1
 30.5 675.5 l 2
 30.5 737.5 58.5 761.5 127.5 761.5 c 2
 142.5 761.5 l 2
 211.5 761.5 239.5 735.5 239.5 668.5 c 2
 239.5 653.5 l 2
 239.5 613.185442804 237.89480146 592.93586736 195.856683355 571.899349438 c 1
 235.536955438 551.176294166 239.5 528.453149588 239.5 487.5 c 2
 239.5 472.5 l 2
 239.5 410.5 206.5 379.5 142.5 379.5 c 2
 127.5 379.5 l 2
 64.5 379.5 30.5 408.5 30.5 465.5 c 2
 30.5 480.5 l 1
 45.5 480.5 l 1
 86.5 480.5 l 1
 86.5 451.735514341 102.858498512 436.746606375 134.776609802 434.734392874 c 0
 164.702900211 436.73063235 181.077502754 451.477664592 183.250834888 478.975492516 c 0
 180.332698023 526.607369465 151.492875386 544.499999757 81.5 544.5 c 1
 81.5 559.5 l 1
89.5 -7.5 m 1
 74.5 -7.5 l 1
 74.5 7.5 l 1
 410.5 737.5 l 1
 425.5 737.5 l 1
 464.5 737.5 l 1
 479.5 737.5 l 1
 479.5 722.5 l 1
 143.5 -7.5 l 1
 128.5 -7.5 l 1
 89.5 -7.5 l 1
374.270833333 141.5 m 1
 417.5 141.5 l 1
 417.5 237.269230769 l 1
 374.270833333 141.5 l 1
EndSplineSet
EndChar

StartChar: oneeighth
Encoding: 99 8539 99
Width: 550
VWidth: 833
Flags: HW
LayerCount: 4
Fore
SplineSet
310.5 92.5 m 1
 310.5 131.5 l 2
 310.5 153.897263685 321.405161316 174.872115024 338.482933517 190.5 c 1
 321.405161316 206.127884976 310.5 227.102736315 310.5 249.5 c 2
 310.5 264.5 l 1
 310.5 284.5 l 2
 310.5 329.5 357.5 370.5 408.5 370.5 c 2
 423.5 370.5 l 2
 474.5 370.5 519.5 329.5 519.5 284.5 c 2
 519.5 269.5 l 1
 519.5 249.5 l 2
 519.5 227.01109016 508.505411614 205.956257067 491.307117915 190.308428146 c 1
 508.505411614 174.543989827 519.5 153.500020495 519.5 131.5 c 2
 519.5 116.5 l 1
 519.5 77.5 l 2
 519.5 31.5 474.5 -9.5 423.5 -9.5 c 1
 408.5 -9.5 l 2
 357.5 -9.5 310.5 31.5 310.5 77.5 c 2
 310.5 92.5 l 1
89.5 -7.5 m 1
 74.5 -7.5 l 1
 74.5 7.5 l 1
 410.5 737.5 l 1
 425.5 737.5 l 1
 464.5 737.5 l 1
 479.5 737.5 l 1
 479.5 722.5 l 1
 143.5 -7.5 l 1
 128.5 -7.5 l 1
 89.5 -7.5 l 1
128.5 757.5 m 1
 143.5 757.5 l 1
 143.5 742.5 l 1
 143.5 433.5 l 1
 193.5 433.5 l 1
 208.5 433.5 l 1
 208.5 418.5 l 1
 208.5 393.5 l 1
 208.5 378.5 l 1
 193.5 378.5 l 1
 38.5 378.5 l 1
 23.5 378.5 l 1
 23.5 393.5 l 1
 23.5 418.5 l 1
 23.5 433.5 l 1
 38.5 433.5 l 1
 88.5 433.5 l 1
 88.5 666.828358209 l 1
 36.5 612.5 l 1
 21.5 612.5 l 1
 21.5 627.5 l 1
 21.5 687.5 l 1
 88.5 757.5 l 1
 103.5 757.5 l 1
 128.5 757.5 l 1
415 161.998779491 m 1
 388.294934507 158.418800762 366.5 136.135933805 366.5 110.5 c 2
 366.5 92.5 l 2
 366.5 68.6335971722 387.565280471 48.9802504386 415 45.9154052 c 1
 442.434719529 48.9802504386 463.5 68.6335971722 463.5 92.5 c 2
 463.5 110.5 l 2
 463.5 136.135933805 441.705065493 158.418800762 415 161.998779491 c 1
415 314.998779491 m 1
 388.473456988 311.442732802 366.791616263 289.433018456 366.502918189 264.013671981 c 0
 366.786874501 240.378430123 387.751883095 221.802966121 414.999974414 218.89630815 c 1
 442.248089693 221.802945581 463.213124365 240.378418058 463.497081812 264.013671982 c 0
 463.208382487 289.433018455 441.526541756 311.442732816 415 314.998779491 c 1
EndSplineSet
EndChar

StartChar: threeeighths
Encoding: 100 8540 100
Width: 550
VWidth: 833
Flags: HW
LayerCount: 4
Fore
SplineSet
81.5 559.5 m 1
 81.5 603.5 l 1
 152.690886 603.5 180.633624805 618.817052132 183.288314597 663.13504045 c 0
 181.520801799 693.159713302 168.438692442 704.94065278 134.854203756 706.353097248 c 0
 98.783010084 704.891951376 86.5000001736 692.34691411 86.5 660.5 c 1
 71.5 660.5 l 1
 45.5 660.5 l 1
 30.5 660.5 l 1
 30.5 675.5 l 2
 30.5 737.5 58.5 761.5 127.5 761.5 c 2
 142.5 761.5 l 2
 211.5 761.5 239.5 735.5 239.5 668.5 c 2
 239.5 653.5 l 2
 239.5 613.185442804 237.89480146 592.93586736 195.856683355 571.899349438 c 1
 235.536955438 551.176294166 239.5 528.453149588 239.5 487.5 c 2
 239.5 472.5 l 2
 239.5 410.5 206.5 379.5 142.5 379.5 c 2
 127.5 379.5 l 2
 64.5 379.5 30.5 408.5 30.5 465.5 c 2
 30.5 480.5 l 1
 45.5 480.5 l 1
 86.5 480.5 l 1
 86.5 451.735514341 102.858498512 436.746606375 134.776609802 434.734392874 c 0
 164.702900211 436.73063235 181.077502754 451.477664592 183.250834888 478.975492516 c 0
 180.332698023 526.607369465 151.492875386 544.499999757 81.5 544.5 c 1
 81.5 559.5 l 1
310.5 92.5 m 1
 310.5 131.5 l 2
 310.5 153.897263685 321.405161316 174.872115024 338.482933517 190.5 c 1
 321.405161316 206.127884976 310.5 227.102736315 310.5 249.5 c 2
 310.5 264.5 l 1
 310.5 284.5 l 2
 310.5 329.5 357.5 370.5 408.5 370.5 c 2
 423.5 370.5 l 2
 474.5 370.5 519.5 329.5 519.5 284.5 c 2
 519.5 269.5 l 1
 519.5 249.5 l 2
 519.5 227.01109016 508.505411614 205.956257067 491.307117915 190.308428146 c 1
 508.505411614 174.543989827 519.5 153.500020495 519.5 131.5 c 2
 519.5 116.5 l 1
 519.5 77.5 l 2
 519.5 31.5 474.5 -9.5 423.5 -9.5 c 1
 408.5 -9.5 l 2
 357.5 -9.5 310.5 31.5 310.5 77.5 c 2
 310.5 92.5 l 1
89.5 -7.5 m 1
 74.5 -7.5 l 1
 74.5 7.5 l 1
 410.5 737.5 l 1
 425.5 737.5 l 1
 464.5 737.5 l 1
 479.5 737.5 l 1
 479.5 722.5 l 1
 143.5 -7.5 l 1
 128.5 -7.5 l 1
 89.5 -7.5 l 1
415 161.998779491 m 5
 388.294934507 158.418800762 366.5 136.135933805 366.5 110.5 c 6
 366.5 92.5 l 6
 366.5 68.6335971722 387.565280471 48.9802504386 415 45.9154052 c 5
 442.434719529 48.9802504386 463.5 68.6335971722 463.5 92.5 c 6
 463.5 110.5 l 6
 463.5 136.135933805 441.705065493 158.418800762 415 161.998779491 c 5
415 314.998779491 m 1
 388.473456988 311.442732802 366.791616263 289.433018456 366.502918189 264.013671981 c 0
 366.786874501 240.378430123 387.751883095 221.802966121 414.999974414 218.89630815 c 1
 442.248089693 221.802945581 463.213124365 240.378418058 463.497081812 264.013671982 c 0
 463.208382487 289.433018455 441.526541756 311.442732816 415 314.998779491 c 1
EndSplineSet
EndChar

StartChar: fiveeighths
Encoding: 101 8541 101
Width: 550
VWidth: 833
Flags: HW
LayerCount: 4
Fore
SplineSet
310.5 92.5 m 1
 310.5 131.5 l 2
 310.5 153.897263685 321.405161316 174.872115024 338.482933517 190.5 c 1
 321.405161316 206.127884976 310.5 227.102736315 310.5 249.5 c 2
 310.5 264.5 l 1
 310.5 284.5 l 2
 310.5 329.5 357.5 370.5 408.5 370.5 c 2
 423.5 370.5 l 2
 474.5 370.5 519.5 329.5 519.5 284.5 c 2
 519.5 269.5 l 1
 519.5 249.5 l 2
 519.5 227.01109016 508.505411614 205.956257067 491.307117915 190.308428146 c 1
 508.505411614 174.543989827 519.5 153.500020495 519.5 131.5 c 2
 519.5 116.5 l 1
 519.5 77.5 l 2
 519.5 31.5 474.5 -9.5 423.5 -9.5 c 1
 408.5 -9.5 l 2
 357.5 -9.5 310.5 31.5 310.5 77.5 c 2
 310.5 92.5 l 1
415 161.998779491 m 1
 388.294934507 158.418800762 366.5 136.135933805 366.5 110.5 c 2
 366.5 92.5 l 2
 366.5 68.6335971722 387.565280471 48.9802504386 415 45.9154052 c 1
 442.434719529 48.9802504386 463.5 68.6335971722 463.5 92.5 c 2
 463.5 110.5 l 2
 463.5 136.135933805 441.705065493 158.418800762 415 161.998779491 c 1
415 314.998779491 m 1
 388.473456988 311.442732802 366.791616263 289.433018456 366.502918189 264.013671981 c 0
 366.786874501 240.378430123 387.751883095 221.802966121 414.999974414 218.89630815 c 1
 442.248089693 221.802945581 463.213124365 240.378418058 463.497081812 264.013671982 c 0
 463.208382487 289.433018455 441.526541756 311.442732816 415 314.998779491 c 1
89.5 -7.5 m 1
 74.5 -7.5 l 1
 74.5 7.5 l 1
 410.5 737.5 l 1
 425.5 737.5 l 1
 464.5 737.5 l 1
 479.5 737.5 l 1
 479.5 722.5 l 1
 143.5 -7.5 l 1
 128.5 -7.5 l 1
 89.5 -7.5 l 1
183.5 515.5 m 2
 183.5 546.5 169.5 562.5 142.5 562.5 c 2
 31.5 562.5 l 1
 30.5 742.5 l 1
 30.5 757.5 l 1
 45.5 757.5 l 1
 223.5 757.5 l 1
 238.5 757.5 l 1
 238.5 742.5 l 1
 238.5 717.5 l 1
 238.5 702.5 l 1
 223.5 702.5 l 1
 85.65 702.5 l 1
 86.5 617.5 l 1
 158.5 617.5 l 2
 206.5 617.5 239.5 584.5 239.5 536.5 c 2
 239.5 521.5 l 1
 238.5 464.5 l 2
 238.5 418.5 193.5 378.5 142.5 378.5 c 2
 127.5 378.5 l 2
 82.1418987379 378.5 40.7387327894 410.139482508 32.1333359343 449.5 c 1
 30.5 449.5 l 1
 30.5 464.5 l 1
 30.5 479.5 l 1
 45.5 479.5 l 1
 86.5 479.5 l 1
 86.5 455.633597172 107.565280471 436.822861657 135 433.896308181 c 1
 162.434719529 436.822861657 183.5 455.633597172 183.5 479.5 c 2
 183.5 515.5 l 2
EndSplineSet
EndChar

StartChar: seveneighths
Encoding: 102 8542 102
Width: 550
VWidth: 833
Flags: HW
LayerCount: 4
Fore
SplineSet
310.5 92.5 m 1
 310.5 131.5 l 2
 310.5 153.897263685 321.405161316 174.872115024 338.482933517 190.5 c 1
 321.405161316 206.127884976 310.5 227.102736315 310.5 249.5 c 2
 310.5 264.5 l 1
 310.5 284.5 l 2
 310.5 329.5 357.5 370.5 408.5 370.5 c 2
 423.5 370.5 l 2
 474.5 370.5 519.5 329.5 519.5 284.5 c 2
 519.5 269.5 l 1
 519.5 249.5 l 2
 519.5 227.01109016 508.505411614 205.956257067 491.307117915 190.308428146 c 1
 508.505411614 174.543989827 519.5 153.500020495 519.5 131.5 c 2
 519.5 116.5 l 1
 519.5 77.5 l 2
 519.5 31.5 474.5 -9.5 423.5 -9.5 c 1
 408.5 -9.5 l 2
 357.5 -9.5 310.5 31.5 310.5 77.5 c 2
 310.5 92.5 l 1
89.5 -7.5 m 1
 74.5 -7.5 l 1
 74.5 7.5 l 1
 410.5 737.5 l 1
 425.5 737.5 l 1
 464.5 737.5 l 1
 479.5 737.5 l 1
 479.5 722.5 l 1
 143.5 -7.5 l 1
 128.5 -7.5 l 1
 89.5 -7.5 l 1
415 161.998779491 m 1
 388.294934507 158.418800762 366.5 136.135933805 366.5 110.5 c 2
 366.5 92.5 l 2
 366.5 68.6335971722 387.565280471 48.9802504386 415 45.9154052 c 1
 442.434719529 48.9802504386 463.5 68.6335971722 463.5 92.5 c 2
 463.5 110.5 l 2
 463.5 136.135933805 441.705065493 158.418800762 415 161.998779491 c 1
415 314.998779491 m 1
 388.473456988 311.442732802 366.791616263 289.433018456 366.502918189 264.013671981 c 0
 366.786874501 240.378430123 387.751883095 221.802966121 414.999974414 218.89630815 c 1
 442.248089693 221.802945581 463.213124365 240.378418058 463.497081812 264.013671982 c 0
 463.208382487 289.433018455 441.526541756 311.442732816 415 314.998779491 c 1
71.5 378.5 m 1
 56.5 378.5 l 1
 56.5 393.5 l 1
 161.407407407 702.5 l 1
 45.5 702.5 l 1
 30.5 702.5 l 1
 30.5 717.5 l 1
 30.5 742.5 l 1
 30.5 757.5 l 1
 45.5 757.5 l 1
 224.5 757.5 l 1
 239.5 757.5 l 1
 239.5 742.5 l 1
 119.5 378.5 l 1
 104.5 378.5 l 1
 71.5 378.5 l 1
EndSplineSet
EndChar

StartChar: hyphen
Encoding: 103 8209 103
AltUni2: 002010.ffffffff.0 0000ad.ffffffff.0 00002d.ffffffff.0
Width: 550
Flags: HW
HStem: 240 80
LayerCount: 4
Fore
SplineSet
478 357 m 29
 72 357 l 29
 72 267 l 29
 478 267 l 29
 478 357 l 29
EndSplineSet
EndChar

StartChar: endash
Encoding: 104 8211 104
Width: 550
Flags: HW
HStem: 230 110
LayerCount: 4
Fore
SplineSet
508 340 m 25
 42 340 l 25
 42 230 l 25
 508 230 l 25
 508 340 l 25
EndSplineSet
EndChar

StartChar: emdash
Encoding: 105 8212 105
Width: 550
Flags: HW
HStem: 230 110
LayerCount: 4
Fore
SplineSet
528 340 m 29
 22 340 l 29
 22 230 l 29
 528 230 l 29
 528 340 l 29
EndSplineSet
EndChar

StartChar: horizontalbar
Encoding: 106 8213 106
Width: 550
Flags: HW
HStem: 230 110
LayerCount: 4
Fore
SplineSet
550 340 m 25
 0 340 l 25
 0 230 l 25
 550 230 l 25
 550 340 l 25
EndSplineSet
EndChar

StartChar: parenleft
Encoding: 107 40 107
Width: 550
Flags: HW
HStem: -120 90<321.717 420.5> 640 90<321.717 420.5>
VStem: 130 90<126.022 483.978>
LayerCount: 4
Fore
SplineSet
384 -20 m 6
 420 -20 l 5
 420 -120 l 5
 364 -120 l 6
 214 -120 120 44 120 305 c 4
 120 566 214 730 364 730 c 6
 420 730 l 5
 420 630 l 5
 384 630 l 6
 285 630 220 507 220 305 c 4
 220 103 285 -20 384 -20 c 6
EndSplineSet
EndChar

StartChar: parenright
Encoding: 108 41 108
Width: 550
Flags: HW
HStem: -120 90<165.5 228.283> 640 90<165.5 228.283>
VStem: 330 90<126.022 483.978>
LayerCount: 4
Fore
SplineSet
166 -20 m 6
 130 -20 l 5
 130 -120 l 5
 186 -120 l 6
 336 -120 430 44 430 305 c 4
 430 566 336 730 186 730 c 6
 130 730 l 5
 130 630 l 5
 166 630 l 6
 265 630 330 507 330 305 c 4
 330 103 265 -20 166 -20 c 6
EndSplineSet
EndChar

StartChar: braceleft
Encoding: 109 123 109
Width: 550
Flags: HW
HStem: -120 90<323.71 450.5> 640 90<323.71 450.5>
LayerCount: 4
Fore
SplineSet
424 -30 m 2
 450 -30 l 1
 450 -120 l 1
 404 -120 l 2
 1 -120 264 75 260 229 c 0
 260 239 100 294 100 305 c 0
 100 316 260 371 260 381 c 0
 264 535 1 730 404 730 c 2
 450 730 l 1
 450 640 l 1
 424 640 l 2
 271 640 278 676 376 374 c 0
 382 356 300 320 300 305 c 0
 300 290 382 254 376 236 c 0
 278 -66 271 -30 424 -30 c 2
EndSplineSet
EndChar

StartChar: braceright
Encoding: 110 125 110
Width: 550
Flags: HW
HStem: -120 90<573.5 674.29> 640 90<573.5 674.29>
LayerCount: 4
Fore
SplineSet
126 -30 m 2
 100 -30 l 1
 100 -120 l 1
 146 -120 l 2
 549 -120 286 75 290 229 c 0
 290 239 450 294 450 305 c 0
 450 316 290 371 290 381 c 0
 286 535 549 730 146 730 c 2
 100 730 l 1
 100 640 l 1
 126 640 l 2
 279 640 272 676 174 374 c 0
 168 356 250 320 250 305 c 0
 250 290 168 254 174 236 c 0
 272 -66 279 -30 126 -30 c 2
EndSplineSet
EndChar

StartChar: numbersign
Encoding: 111 35 111
Width: 550
Flags: HW
HStem: 196 75<58 464> 459 75<58 464>
LayerCount: 4
Fore
SplineSet
498 224 m 1
 498 141 l 1
 408 141 l 1
 408 -50 l 1
 336 -50 l 1
 336 141 l 1
 214 141 l 1
 214 -50 l 1
 142 -50 l 1
 142 141 l 1
 52 141 l 5
 52 224 l 5
 142 224 l 1
 142 486 l 1
 52 486 l 5
 52 569 l 5
 142 569 l 1
 142 740 l 1
 214 740 l 1
 214 569 l 1
 336 569 l 1
 336 740 l 1
 408 740 l 1
 408 569 l 1
 498 569 l 1
 498 486 l 1
 408 486 l 1
 408 224 l 1
 498 224 l 1
336 224 m 1
 336 486 l 1
 214 486 l 1
 214 224 l 1
 336 224 l 1
EndSplineSet
EndChar

StartChar: percent
Encoding: 112 37 112
Width: 550
Flags: HW
HStem: 55 74<370.153 451.723> 225 76<370.153 451.847> 429 75<98.1533 179.847> 600 75<98.1533 179.847>
VStem: 16 75<511.153 592.847> 187 75<511.153 592.847> 288 75<136.653 216.886> 459 75<136.653 216.886>
LayerCount: 4
Fore
SplineSet
343 167 m 4
 343 135 369 109 401 109 c 4
 433 109 459 135 459 167 c 4
 459 199 433 225 401 225 c 4
 369 225 343 199 343 167 c 4
91 562 m 4
 91 530 117 504 149 504 c 4
 181 504 207 530 207 562 c 4
 207 593 180 620 149 620 c 4
 118 620 91 593 91 562 c 4
272 168 m 4
 272 245 326 301 401 301 c 4
 477 301 534 244 534 168 c 4
 534 92 477 35 401 35 c 4
 326 35 272 91 272 168 c 4
16 562 m 4
 16 638 73 695 149 695 c 4
 225 695 282 638 282 562 c 4
 282 486 225 429 149 429 c 4
 73 429 16 486 16 562 c 4
504 540 m 5
 154 200 l 5
 46 200 l 5
 396 540 l 5
 504 540 l 5
504 540 m 5
 154 200 l 5
 46 200 l 5
 396 540 l 5
 504 540 l 5
EndSplineSet
EndChar

StartChar: perthousand
Encoding: 113 8240 113
Width: 550
Flags: HW
LayerCount: 4
Fore
SplineSet
399 226 m 4
 399 204 418 186 440 186 c 4
 462 186 480 204 480 226 c 4
 480 248 462 267 440 267 c 4
 418 267 399 248 399 226 c 4
349 227 m 4
 349 281 388 320 440 320 c 4
 493 320 533 280 533 227 c 4
 533 174 493 134 440 134 c 4
 388 134 349 173 349 227 c 4
196 226 m 4
 196 204 215 186 237 186 c 4
 259 186 277 204 277 226 c 4
 277 248 259 267 237 267 c 4
 215 267 196 248 196 226 c 4
90 523 m 4
 90 501 108 482 130 482 c 4
 152 482 171 501 171 523 c 4
 171 545 152 564 130 564 c 4
 108 564 90 545 90 523 c 4
146 227 m 4
 146 281 185 320 237 320 c 4
 290 320 330 280 330 227 c 4
 330 174 290 134 237 134 c 4
 185 134 146 173 146 227 c 4
37 523 m 4
 37 576 77 616 130 616 c 4
 183 616 223 576 223 523 c 4
 223 470 183 430 130 430 c 4
 77 430 37 470 37 523 c 4
380 442 m 5
 114 320 l 5
 8 320 l 5
 274 442 l 5
 380 442 l 5
EndSplineSet
EndChar

StartChar: quotesingle
Encoding: 114 39 114
Width: 550
Flags: HW
HStem: 447 284
LayerCount: 4
Fore
SplineSet
354 731 m 21
 182 731 l 5
 176 447 l 5
 312 447 l 5
 354 731 l 21
EndSplineSet
EndChar

StartChar: quotedbl
Encoding: 115 34 115
Width: 550
Flags: HW
HStem: 447 284
VStem: 96 101<447 495.488> 312 101<447 495.488>
LayerCount: 4
Fore
SplineSet
454 731 m 21
 318 731 l 5
 312 447 l 5
 413 447 l 5
 454 731 l 21
238 731 m 21
 102 731 l 5
 96 447 l 5
 197 447 l 5
 238 731 l 21
EndSplineSet
EndChar

StartChar: quoteleft
Encoding: 116 8216 116
AltUni2: 0002bb.ffffffff.0
Width: 550
Flags: HW
HStem: 496 304
LayerCount: 4
Fore
SplineSet
444 800 m 21
 222 800 l 5
 106 496 l 5
 222 496 l 5
 444 800 l 21
EndSplineSet
EndChar

StartChar: quoteright
Encoding: 117 8217 117
Width: 550
Flags: HW
HStem: 496 304
LayerCount: 4
Fore
SplineSet
106 496 m 21
 328 496 l 5
 444 800 l 5
 328 800 l 5
 106 496 l 21
EndSplineSet
EndChar

StartChar: quotedblleft
Encoding: 118 8220 118
Width: 550
Flags: HW
HStem: 496 304
LayerCount: 4
Fore
SplineSet
514 800 m 21
 322 800 l 5
 256 496 l 5
 332 496 l 5
 514 800 l 21
294 800 m 21
 102 800 l 5
 36 496 l 5
 112 496 l 5
 294 800 l 21
EndSplineSet
EndChar

StartChar: quotedblright
Encoding: 119 8221 119
Width: 550
Flags: HW
HStem: 496 304
LayerCount: 4
Fore
SplineSet
36 496 m 21
 228 496 l 5
 294 800 l 5
 218 800 l 5
 36 496 l 21
256 496 m 21
 448 496 l 5
 514 800 l 5
 438 800 l 5
 256 496 l 21
EndSplineSet
EndChar

StartChar: quotereversed
Encoding: 120 8219 120
Width: 550
Flags: HW
HStem: 447 284<233.5 363.5>
VStem: 192 177
LayerCount: 4
Fore
SplineSet
192 731 m 21
 364 731 l 5
 369 447 l 5
 234 447 l 5
 192 731 l 21
EndSplineSet
EndChar

StartChar: quotesinglbase
Encoding: 121 8218 121
Width: 550
Flags: HW
HStem: 1 284
LayerCount: 4
Fore
SplineSet
364 285 m 21
 192 285 l 5
 186 1 l 5
 322 1 l 5
 364 285 l 21
EndSplineSet
EndChar

StartChar: quotedblbase
Encoding: 122 8222 122
Width: 550
Flags: HW
HStem: 0 284
VStem: 96 101<0 48.4878> 312 101<0 48.4878>
LayerCount: 4
Fore
SplineSet
454 284 m 17
 318 284 l 1
 312 0 l 1
 413 0 l 1
 454 284 l 17
238 284 m 17
 102 284 l 1
 96 0 l 1
 197 0 l 1
 238 284 l 17
EndSplineSet
EndChar

StartChar: guilsinglleft
Encoding: 123 8249 123
Width: 550
Flags: HW
LayerCount: 4
Fore
SplineSet
438 130 m 5
 242 362 l 5
 438 598 l 5
 438 730 l 5
 112 362 l 29
 438 0 l 5
 438 130 l 5
EndSplineSet
EndChar

StartChar: guilsinglright
Encoding: 124 8250 124
Width: 550
Flags: HW
LayerCount: 4
Fore
SplineSet
112 130 m 1
 308 362 l 1
 112 598 l 1
 112 730 l 1
 438 362 l 25
 112 0 l 1
 112 130 l 1
EndSplineSet
EndChar

StartChar: guillemotleft
Encoding: 125 171 125
Width: 550
Flags: HW
LayerCount: 4
Fore
SplineSet
232 366 m 25
 428 730 l 1
 488 692 l 1
 310 366 l 1
 488 36 l 1
 428 -2 l 1
 232 366 l 25
62 366 m 29
 258 730 l 1
 318 692 l 1
 140 366 l 5
 318 36 l 1
 258 -2 l 1
 62 366 l 29
EndSplineSet
EndChar

StartChar: guillemotright
Encoding: 126 187 126
Width: 550
Flags: HW
LayerCount: 4
Fore
SplineSet
318 366 m 25
 122 730 l 1
 62 692 l 1
 240 366 l 1
 62 36 l 1
 122 -2 l 1
 318 366 l 25
488 366 m 29
 292 730 l 1
 232 692 l 1
 410 366 l 5
 232 36 l 1
 292 -2 l 1
 488 366 l 29
EndSplineSet
EndChar

StartChar: asterisk
Encoding: 127 42 127
Width: 550
Flags: HW
VStem: 235 80<264 394.149 549.364 680>
LayerCount: 4
Fore
SplineSet
235 424 m 1
 129 342 l 1
 83 399 l 1
 215 502 l 1
 83 605 l 1
 129 662 l 1
 235 579 l 1
 235 730 l 1
 315 730 l 1
 315 579 l 1
 421 662 l 1
 467 605 l 1
 335 502 l 1
 467 399 l 1
 421 342 l 1
 315 424 l 1
 315 274 l 1
 235 274 l 1
 235 424 l 1
EndSplineSet
EndChar

StartChar: period
Encoding: 130 46 130
Width: 550
Flags: HW
HStem: 0 218<212.858 337.142>
VStem: 166 218<46.8582 171.142>
LayerCount: 4
Fore
SplineSet
166 109 m 4
 166 167 217 218 275 218 c 4
 333 218 384 167 384 109 c 4
 384 51 333 0 275 0 c 4
 217 0 166 51 166 109 c 4
EndSplineSet
EndChar

StartChar: comma
Encoding: 131 44 131
Width: 550
Flags: HW
HStem: -31 304
LayerCount: 4
Fore
SplineSet
444 273 m 21
 222 273 l 5
 106 -31 l 5
 222 -31 l 5
 444 273 l 21
EndSplineSet
EndChar

StartChar: colon
Encoding: 132 58 132
Width: 550
Flags: HW
HStem: 40 198<214.588 335.412> 440 198<214.588 335.412>
VStem: 176 198<78.5877 199.412 478.588 599.412>
LayerCount: 4
Fore
SplineSet
176 139 m 4
 176 192 222 238 275 238 c 4
 328 238 374 192 374 139 c 4
 374 86 328 40 275 40 c 4
 222 40 176 86 176 139 c 4
176 519 m 4
 176 572 222 618 275 618 c 4
 328 618 374 572 374 519 c 4
 374 466 328 420 275 420 c 4
 222 420 176 466 176 519 c 4
EndSplineSet
EndChar

StartChar: semicolon
Encoding: 133 59 133
Width: 550
Flags: HW
HStem: 440 198<214.588 335.412>
VStem: 176 198<291.451 312 478.588 599.412>
LayerCount: 4
Fore
SplineSet
372 302 m 17
 180 302 l 1
 154 -30 l 1
 258 -30 l 1
 372 302 l 17
176 519 m 0
 176 572 222 618 275 618 c 0
 328 618 374 572 374 519 c 0
 374 466 328 420 275 420 c 0
 222 420 176 466 176 519 c 0
EndSplineSet
EndChar

StartChar: ellipsis
Encoding: 134 8230 134
Width: 550
Flags: HW
HStem: 10 178<62.2273 157.773 230.118 319.882 392.227 487.773>
VStem: 51 118<19.967 178.033> 218 114<20.9567 177.043> 381 118<19.967 178.033>
CounterMasks: 1 70
LayerCount: 4
Fore
SplineSet
381 99 m 0
 381 166 395 188 440 188 c 0
 485 188 499 166 499 99 c 0
 499 32 485 10 440 10 c 0
 395 10 381 32 381 99 c 0
218 99 m 0
 218 164 234 188 275 188 c 0
 316 188 332 164 332 99 c 0
 332 34 316 10 275 10 c 0
 234 10 218 34 218 99 c 0
51 99 m 0
 51 166 65 188 110 188 c 0
 155 188 169 166 169 99 c 0
 169 32 155 10 110 10 c 0
 65 10 51 32 51 99 c 0
EndSplineSet
EndChar

StartChar: exclam
Encoding: 135 33 135
Width: 550
Flags: HW
HStem: 0 125<211.712 338.288> 710 20G<194.919 355>
VStem: 190 170<21.7491 103.798> 235 80<189 283.675>
LayerCount: 4
Fore
SplineSet
190 63 m 4xe0
 190 97 229 125 275 125 c 4
 321 125 360 97 360 63 c 4
 360 29 321 0 275 0 c 4
 229 0 190 29 190 63 c 4xe0
235 189 m 21xd0
 195 730 l 13
 355 730 l 21
 315 189 l 13
 235 189 l 21xd0
EndSplineSet
EndChar

StartChar: exclamdown
Encoding: 136 161 136
Width: 550
Flags: HW
HStem: 605 125<211.712 338.288>
VStem: 190 170<626.202 708.251> 245 60<465.26 541>
LayerCount: 4
Fore
SplineSet
190 667 m 0xc0
 190 633 229 605 275 605 c 0
 321 605 360 633 360 667 c 0
 360 701 321 730 275 730 c 0
 229 730 190 701 190 667 c 0xc0
245 541 m 17xa0
 195 0 l 9
 355 0 l 17
 305 541 l 13
 245 541 l 17xa0
EndSplineSet
EndChar

StartChar: exclamdbl
Encoding: 137 8252 137
Width: 550
Flags: HW
HStem: 0 105<99.002 224.998 325.002 450.998> 710 20G<81.9189 242 307.919 468>
VStem: 87 150<12.8128 92.6404> 122 80<179 275.425> 313 150<12.8128 92.6404> 348 80<179 275.425>
LayerCount: 4
Fore
SplineSet
313 53 m 0xc8
 313 86 341 105 388 105 c 0
 435 105 463 86 463 53 c 0
 463 20 435 0 388 0 c 0
 341 0 313 20 313 53 c 0xc8
348 179 m 17xc4
 308 730 l 9
 468 730 l 17
 428 179 l 9
 348 179 l 17xc4
87 53 m 0xe0
 87 86 115 105 162 105 c 0
 209 105 237 86 237 53 c 0
 237 20 209 0 162 0 c 0
 115 0 87 20 87 53 c 0xe0
122 179 m 17xd0
 82 730 l 9
 242 730 l 17
 202 179 l 9
 122 179 l 17xd0
EndSplineSet
EndChar

StartChar: question
Encoding: 138 63 138
Width: 550
Flags: HW
LayerCount: 4
Fore
SplineSet
229 311 m 2xf6
 229 367 266 401 325 401 c 0
 362 401 377 404 377 463 c 2
 377 556 l 2
 377 612 366 640 275 640 c 0
 184 640 173 612 173 556 c 2
 173 491 l 9
 82 491 l 17
 82 558 l 2
 82 649 83 730 276 730 c 0
 467 730 468 649 468 558 c 2
 468 464 l 2
 468 321 410 311 320 311 c 1
 320 191 l 1
 229 191 l 1
 229 311 l 2xf6
190 63 m 0xfa
 190 97 229 125 275 125 c 0
 321 125 360 97 360 63 c 0
 360 29 321 0 275 0 c 0
 229 0 190 29 190 63 c 0xfa
EndSplineSet
EndChar

StartChar: questiondown
Encoding: 139 191 139
Width: 550
Flags: HW
LayerCount: 4
Fore
SplineSet
321 419 m 6xf6
 321 363 284 329 225 329 c 4
 188 329 173 306 173 247 c 6
 173 184 l 6
 173 128 214 90 275 90 c 4
 336 90 377 128 377 184 c 6
 377 239 l 13
 468 239 l 21
 468 172 l 6
 468 81 377 0 274 0 c 4
 173 0 82 81 82 172 c 6
 82 266 l 6
 82 359 140 419 230 419 c 5
 230 539 l 5
 321 539 l 5
 321 419 l 6xf6
360 667 m 4xfa
 360 633 321 605 275 605 c 4
 229 605 190 633 190 667 c 4
 190 701 229 730 275 730 c 4
 321 730 360 701 360 667 c 4xfa
EndSplineSet
EndChar

StartChar: slash
Encoding: 140 47 140
Width: 550
Flags: HW
LayerCount: 4
Fore
SplineSet
364 745 m 5
 82 -35 l 5
 186 -45 l 5
 468 735 l 5
 364 745 l 5
EndSplineSet
EndChar

StartChar: fraction
Encoding: 141 8725 141
AltUni2: 002044.ffffffff.0
Width: 550
Flags: HW
LayerCount: 4
Fore
SplineSet
389 730 m 1
 82 0 l 1
 161 0 l 1
 468 730 l 1
 389 730 l 1
EndSplineSet
EndChar

StartChar: bar
Encoding: 142 124 142
Width: 550
Flags: HW
HStem: 0 21G<221.919 328> 710 20G<221.919 328>
VStem: 222 106<0 304 427 730>
LayerCount: 4
Fore
SplineSet
328 304 m 17
 328 0 l 1
 222 0 l 1
 222 304 l 9
 328 304 l 17
222 427 m 21
 222 730 l 13
 328 730 l 21
 328 427 l 13
 222 427 l 21
EndSplineSet
EndChar

StartChar: brokenbar
Encoding: 143 166 143
Width: 550
Flags: HW
VStem: 225 100<40 232 499 690>
LayerCount: 4
Fore
SplineSet
325 342 m 17
 325 40 l 1
 225 40 l 1
 225 232 l 13
 325 342 l 17
225 389 m 17
 225 690 l 9
 325 690 l 17
 325 499 l 9
 225 389 l 17
EndSplineSet
EndChar

StartChar: at
Encoding: 144 64 144
Width: 550
Flags: HW
HStem: 0 90<192.643 368.714> 200 90<284.31 408.196> 419 90<290.444 400.567> 640 90<197.221 338.372>
VStem: 42 80<180.555 539.165> 192 81<305.401 343 355 400.377> 417 81<302.845 343 355 405.471>
LayerCount: 4
Fore
SplineSet
273 343 m 2
 273 355 l 2
 273 393 303 419 345 419 c 0
 394 419 417 398 417 355 c 2
 417 343 l 2
 417 304 398 290 345 290 c 0
 300 290 273 310 273 343 c 2
498 343 m 2
 498 367 l 1
 496 597 415 730 274 730 c 0
 122 730 42 602 42 358 c 0
 42 118 119 0 274 0 c 0
 369 0 436 35 475 106 c 1
 402 146 l 1
 364 99 343 90 274 90 c 0
 163 90 122 162 122 358 c 0
 122 559 166 640 274 640 c 0
 336 640 387 587 401 506 c 1
 384 508 365 509 356 509 c 0
 263 509 192 448 192 367 c 2
 192 343 l 2
 192 261 262 200 356 200 c 0
 452 200 498 246 498 343 c 2
EndSplineSet
EndChar

StartChar: ampersand
Encoding: 145 38 145
Width: 550
Flags: HW
HStem: 2 78<203.865 320.892> 652 78<216.439 321.561>
VStem: 82 81<123.227 257.175> 118 78<499.254 633.243> 342 78<498.949 632.198> 393 75<177.047 264>
LayerCount: 4
Fore
SplineSet
374 39 m 1
 392.090820312 20.0869140625 431 0 461 0 c 0
 469.486328125 0 478.373046875 0.16015625 488 0.8876953125 c 9
 488 82 l 1
 464 82 439 82 430 119 c 0
 428 127 428 135 428 141 c 1
 428 463 l 1
 347 463 l 1
 347 169 l 1
 347 126 320 78 270 78 c 0
 203 78 143 87 143 148 c 2
 143 196 l 2
 143 251 238 320 300 320 c 8
 488 320 l 1
 488 398 l 25
 300 398 l 18
 233 398 163 437 163 488 c 2
 163 547 l 6
 163 622 188 651 270 651 c 0
 340 651 347 623 347 560 c 1
 428 560 l 1
 428 648 418 729 270 729 c 0
 116 729 82 648 82 559 c 2
 82 490 l 2
 82 439.259765625 112.233398438 391.11328125 158.092773438 359.107421875 c 1
 112.376953125 327.095703125 62 258.858398438 62 208 c 2
 62 150 l 2
 62 21 136 0 270 0 c 0
 312.024414062 0 347.685546875 15.0458984375 374 39 c 1
EndSplineSet
EndChar

StartChar: section
Encoding: 146 167 146
Width: 550
Flags: HW
LayerCount: 4
Fore
SplineSet
413 271 m 6
 448 245 468 209 468 166 c 4
 468 67 425 0 275 0 c 4
 132 0 82 59 82 148 c 5
 163 148 l 5
 163 112 180 75 275 75 c 4
 373 75 388 124 388 166 c 4
 388 194 351 220 304 228 c 6
 295 229 l 5
 379 296 l 13
 413 271 l 6
161 364 m 0
 161 323 212 289 275 289 c 0
 338 289 390 323 390 364 c 0
 390 405 338 439 275 439 c 0
 212 439 161 405 161 364 c 0
82 364 m 0
 82 445 168 511 275 511 c 0
 382 511 468 445 468 364 c 0
 468 283 382 216 275 216 c 0
 168 216 82 283 82 364 c 0
138 459 m 2
 103 485 83 521 83 564 c 0
 83 663 126 730 276 730 c 0
 419 730 469 671 469 582 c 1
 388 582 l 1
 388 618 371 655 276 655 c 0
 178 655 163 606 163 564 c 0
 163 536 200 510 247 502 c 2
 256 501 l 1
 172 434 l 9
 138 459 l 2
EndSplineSet
EndChar

StartChar: paragraph
Encoding: 147 182 147
Width: 550
Flags: HW
LayerCount: 4
Fore
SplineSet
268 730 m 6
 320 730 l 5
 320 338 l 5
 268 338 l 6
 160 338 72 426 72 534 c 4
 72 642 160 730 268 730 c 6
478 730 m 1
 478 0 l 1
 428 0 l 1
 428 650 l 1
 348 650 l 5
 348 0 l 5
 298 0 l 5
 298 730 l 5
 478 730 l 1
EndSplineSet
EndChar

StartChar: periodcentered
Encoding: 150 8729 150
AltUni2: 0000b7.ffffffff.0
Width: 550
VWidth: 1080
Flags: HW
HStem: 230 218<212.858 337.142>
VStem: 166 218<276.858 401.142>
LayerCount: 4
Fore
SplineSet
166 339 m 4
 166 397 217 448 275 448 c 4
 333 448 384 397 384 339 c 4
 384 281 333 230 275 230 c 4
 217 230 166 281 166 339 c 4
EndSplineSet
EndChar

StartChar: bullet
Encoding: 151 8226 151
Width: 550
VWidth: 1080
Flags: HW
HStem: 240 198<198.273 351.727>
VStem: 166 218<272.861 405.139>
LayerCount: 4
Fore
SplineSet
166 339 m 0
 166 404 204 438 275 438 c 0
 346 438 384 404 384 339 c 0
 384 274 346 240 275 240 c 0
 204 240 166 274 166 339 c 0
EndSplineSet
EndChar

StartChar: anoteleia
Encoding: 152 903 152
Width: 550
VWidth: 1080
Flags: HW
HStem: 275 128<226.747 321.253>
VStem: 210 128<291.747 386.253>
LayerCount: 4
Fore
SplineSet
210 339 m 0
 210 374 239 403 274 403 c 0
 309 403 338 374 338 339 c 0
 338 304 309 275 274 275 c 0
 239 275 210 304 210 339 c 0
EndSplineSet
EndChar

StartChar: plus
Encoding: 157 43 157
Width: 550
VWidth: 970
Flags: HW
HStem: -30 21G<225 325> 200 100<72 225 325 478> 476 20G<225 325>
VStem: 225 100<-30 200 300 496>
LayerCount: 4
Fore
SplineSet
225 280 m 5
 72 280 l 5
 72 380 l 5
 225 380 l 5
 225 576 l 5
 325 576 l 5
 325 380 l 5
 478 380 l 5
 478 280 l 5
 325 280 l 5
 325 50 l 5
 225 50 l 5
 225 280 l 5
EndSplineSet
EndChar

StartChar: minus
Encoding: 158 8722 158
Width: 550
VWidth: 970
Flags: HW
HStem: 280 100
LayerCount: 4
Fore
SplineSet
478 380 m 29
 72 380 l 29
 72 280 l 29
 478 280 l 29
 478 380 l 29
EndSplineSet
EndChar

StartChar: plusminus
Encoding: 159 177 159
Width: 550
VWidth: 1050
Flags: HW
HStem: 290 100<72 225 325 478> 556 20G<225 325>
VStem: 225 100<190 290 390 576>
LayerCount: 4
Fore
SplineSet
478 140 m 29
 72 140 l 29
 72 50 l 29
 478 50 l 29
 478 140 l 29
225 290 m 1
 72 290 l 1
 72 390 l 1
 225 390 l 1
 225 576 l 1
 325 576 l 1
 325 390 l 1
 478 390 l 1
 478 290 l 1
 325 290 l 1
 325 190 l 1
 225 190 l 1
 225 290 l 1
EndSplineSet
EndChar

StartChar: divide
Encoding: 160 247 160
Width: 550
VWidth: 1050
Flags: HW
HStem: 113 105<212.002 337.998> 442 105<212.002 337.998>
VStem: 200 150<125.813 205.64 454.813 534.64>
LayerCount: 4
Fore
SplineSet
200 166 m 4
 200 199 228 218 275 218 c 4
 322 218 350 199 350 166 c 4
 350 133 322 113 275 113 c 4
 228 113 200 133 200 166 c 4
200 495 m 4
 200 528 228 547 275 547 c 4
 322 547 350 528 350 495 c 4
 350 462 322 442 275 442 c 4
 228 442 200 462 200 495 c 4
478 380 m 29
 72 380 l 29
 72 280 l 29
 478 280 l 29
 478 380 l 29
EndSplineSet
EndChar

StartChar: multiply
Encoding: 161 215 161
Width: 550
VWidth: 1050
Flags: HW
LayerCount: 4
Fore
SplineSet
275 261 m 1
 400 135 l 1
 471 206 l 1
 346 331 l 1
 469 455 l 1
 398 526 l 1
 275 403 l 1
 152 526 l 1
 81 455 l 1
 204 332 l 1
 79 206 l 1
 150 135 l 1
 275 261 l 1
EndSplineSet
EndChar

StartChar: equal
Encoding: 162 61 162
Width: 550
VWidth: 1050
Flags: HW
LayerCount: 4
Fore
SplineSet
478 270 m 29
 72 270 l 29
 72 170 l 29
 478 170 l 29
 478 270 l 29
478 490 m 29
 72 490 l 29
 72 390 l 29
 478 390 l 29
 478 490 l 29
EndSplineSet
EndChar

StartChar: less
Encoding: 163 60 163
Width: 550
VWidth: 1050
Flags: HW
LayerCount: 4
Fore
SplineSet
438 180 m 1
 262 320 l 1
 438 464 l 5
 438 586 l 5
 112 320 l 25
 438 60 l 1
 438 180 l 1
EndSplineSet
EndChar

StartChar: greater
Encoding: 164 62 164
Width: 550
VWidth: 1050
Flags: HW
LayerCount: 4
Fore
SplineSet
112 60 m 5
 438 320 l 5
 112 586 l 5
 112 464 l 5
 288 320 l 5
 112 180 l 5
 112 60 l 5
EndSplineSet
EndChar

StartChar: lessequal
Encoding: 165 8804 165
Width: 550
VWidth: 1050
Flags: HW
HStem: 556 20G<412.531 438>
LayerCount: 4
Fore
SplineSet
478 140 m 29
 72 140 l 29
 72 50 l 29
 478 50 l 29
 478 140 l 29
282 190 m 21
 112 320 l 13
 438 576 l 5
 438 454 l 5
 262 320 l 5
 438 190 l 13
 282 190 l 21
282 190 m 1029
EndSplineSet
LCarets2: 1 0
EndChar

StartChar: greaterequal
Encoding: 166 8805 166
Width: 550
VWidth: 1050
Flags: HW
HStem: 50 90<72 478>
LayerCount: 4
Fore
SplineSet
72 140 m 29
 478 140 l 29
 478 50 l 29
 72 50 l 29
 72 140 l 29
268 190 m 21
 438 320 l 13
 112 576 l 5
 112 454 l 5
 288 320 l 5
 112 190 l 13
 268 190 l 21
268 190 m 1029
EndSplineSet
LCarets2: 1 0
EndChar

StartChar: approxequal
Encoding: 167 8776 167
Width: 550
VWidth: 1050
Flags: HW
LayerCount: 4
Back
SplineSet
475 230 m 5
 322 230 l 5
 322 330 l 5
 475 330 l 5
 475 526 l 5
 575 526 l 5
 575 330 l 5
 728 330 l 5
 728 230 l 5
 575 230 l 5
 575 0 l 5
 475 0 l 5
 475 230 l 5
EndSplineSet
Fore
SplineSet
313 253 m 0
 313 286 267 304 185 304 c 0
 93 304 59 271 59 181 c 2
 59 150 l 1
 133 150 l 1
 134 172 l 2
 136 216 151 234 185 234 c 0
 214 234 237 216 237 194 c 0
 237 158 295 129 365 129 c 0
 457 129 491 162 491 252 c 2
 491 283 l 1
 417 283 l 1
 416 261 l 2
 414 226 398 209 365 209 c 0
 334 209 313 227 313 253 c 0
313 443 m 0
 313 478 259 504 185 504 c 0
 97 504 59 464 59 371 c 2
 59 340 l 1
 133 340 l 1
 134 362 l 2
 136 406 151 424 185 424 c 0
 214 424 237 406 237 384 c 0
 237 351 288 329 365 329 c 0
 462 329 491 355 491 442 c 2
 491 473 l 1
 417 473 l 1
 416 451 l 2
 414 416 398 399 365 399 c 0
 334 399 313 417 313 443 c 0
EndSplineSet
EndChar

StartChar: notequal
Encoding: 168 8800 168
Width: 550
VWidth: 1050
Flags: HW
LayerCount: 4
Fore
SplineSet
326 577 m 1
 126 87 l 5
 224 87 l 5
 424 577 l 1
 326 577 l 1
478 270 m 25
 72 270 l 25
 72 170 l 25
 478 170 l 25
 478 270 l 25
478 490 m 25
 72 490 l 25
 72 390 l 25
 478 390 l 25
 478 490 l 25
EndSplineSet
LCarets2: 1 0
EndChar

StartChar: arrowleft
Encoding: 171 8592 171
Width: 550
VWidth: 1080
Flags: HW
LayerCount: 4
Fore
SplineSet
262 270 m 5
 514 270 l 5
 514 414 l 5
 262 414 l 5
 262 576 l 5
 36 340 l 29
 262 110 l 5
 262 270 l 5
EndSplineSet
EndChar

StartChar: arrowup
Encoding: 172 8593 172
Width: 550
VWidth: 1080
Flags: HW
LayerCount: 4
Fore
SplineSet
202 332 m 5
 202 80 l 5
 346 80 l 5
 346 332 l 5
 508 332 l 5
 272 558 l 29
 42 332 l 5
 202 332 l 5
EndSplineSet
EndChar

StartChar: arrowright
Encoding: 173 8594 173
Width: 550
VWidth: 1080
Flags: HW
HStem: 270 144<-14 238>
LayerCount: 4
Fore
SplineSet
288 270 m 5
 36 270 l 5
 36 414 l 5
 288 414 l 5
 288 576 l 5
 514 340 l 29
 288 110 l 5
 288 270 l 5
EndSplineSet
EndChar

StartChar: arrowdown
Encoding: 174 8595 174
Width: 550
VWidth: 1080
Flags: HW
LayerCount: 4
Fore
SplineSet
348 306 m 5
 348 558 l 5
 204 558 l 5
 204 306 l 5
 42 306 l 5
 278 80 l 29
 508 306 l 5
 348 306 l 5
EndSplineSet
EndChar

StartChar: arrowboth
Encoding: 175 8596 175
Width: 550
VWidth: 1080
Flags: HW
HStem: 270 144<223 327>
LayerCount: 4
Fore
SplineSet
213 270 m 1
 213 108 l 1
 27 344 l 25
 213 574 l 1
 213 414 l 1
 337 414 l 1
 337 576 l 1
 523 340 l 25
 337 110 l 1
 337 270 l 1
 213 270 l 1
EndSplineSet
EndChar

StartChar: Delta#1
Encoding: 177 8710 177
Width: 550
Flags: HW
LayerCount: 4
Fore
SplineSet
468 0 m 17
 82 0 l 1
 275 528 l 9
 468 0 l 17
371.5 72 m 9
 275 336 l 17
 178.5 72 l 1
 371.5 72 l 9
EndSplineSet
EndChar

StartChar: product
Encoding: 178 8719 178
Width: 550
Flags: HW
LayerCount: 4
Fore
SplineSet
82.0009765625 730 m 17
 468 730 l 9
 468 0 l 1
 387 0 l 1
 387 650 l 17
 162.000976562 650 l 9
 162.000976562 0 l 1
 82.0009765625 0 l 1
 82.0009765625 730 l 17
EndSplineSet
EndChar

StartChar: summation
Encoding: 179 8721 179
Width: 550
Flags: HW
LayerCount: 4
Fore
SplineSet
243.5 367 m 1
 82 80 l 9
 82 0 l 25
 468 0 l 9
 468 90 l 1
 185 90 l 17
 356.5 367 l 5
 185 640 l 9
 468 640 l 1
 468 730 l 17
 82 730 l 25
 82 650 l 17
 243.5 367 l 1
EndSplineSet
EndChar

StartChar: mu1
Encoding: 180 181 180
Width: 550
Flags: HW
LayerCount: 4
Fore
SplineSet
418 141 m 21
 418 114.651364947 425.379279247 100.069688693 435.595404975 92 c 0
 445.153740164 84.4498981855 457.195367918 82.600200112 468 82.1470429165 c 1
 468 82 l 0
 468 81 l 0
 468 0.308600320245 l 1
 462.10647718 0.0664938376815 456.470121293 0 451 0 c 0
 421 0 388 13 370 32 c 0
 359.599574613 42.9782267973 351.764648438 56.3564453125 346.515625 73.001953125 c 1
 340.357421875 69.6669921875 333.894023123 66.6262945229 327 64 c 0
 243 32 179 72 163 72 c 1
 163 -170 l 9
 82 -170 l 17
 82 526 l 1
 163 526 l 1
 162 169 l 1
 181 146 201 132 263 132 c 0
 320 132 337 166 337 217 c 10
 337 526 l 17
 418 526 l 1
 418 141 l 21
EndSplineSet
EndChar

StartChar: radical
Encoding: 181 8730 181
Width: 550
Flags: HW
LayerCount: 4
Fore
SplineSet
21.5 380 m 25
 149.5 380 l 29
 254.5 80 l 25
 407.5 732 l 25
 528.5 732 l 25
 528.5 632 l 25
 468.5 632 l 25
 321.5 0 l 25
 200.5 0 l 1
 89.5 298 l 25
 21.5 298 l 25
 21.5 380 l 25
EndSplineSet
EndChar

StartChar: infinity
Encoding: 182 8734 182
Width: 550
Flags: HW
LayerCount: 4
Fore
SplineSet
23 364 m 0
 23 462.157188403 87.4543378143 523 167 523 c 0
 210.014842399 523 248.616714311 505.208484472 275 473.345929702 c 1
 301.383285689 505.208484472 339.985157601 523 383 523 c 0
 462.545662186 523 527 462.157188403 527 364 c 0
 527 265.842811597 462.545662186 205 383 205 c 0
 339.985157601 205 301.383285689 222.791515528 275 254.654070298 c 1
 248.616714311 222.791515528 210.014842399 205 167 205 c 0
 87.4543378143 205 23 265.842811597 23 364 c 0
166 443 m 0
 128.004955991 443 105 413.347305226 105 364 c 0
 105 338.385762198 111.155904068 319.942546873 120.035785216 307.640939869 c 0
 130.985470196 292.471961908 146.87393903 285 166 285 c 0
 203.995044009 285 227 314.652694774 227 364 c 0
 227 389.614237802 220.844095932 408.057453127 211.964214784 420.359060131 c 0
 201.014529804 435.528038092 185.12606097 443 166 443 c 0
382 443 m 0
 344.004955991 443 321 413.347305226 321 364 c 0
 321 338.385762198 327.155904068 319.942546873 336.035785216 307.640939869 c 0
 346.985470196 292.471961908 362.87393903 285 382 285 c 0
 419.995044009 285 443 314.652694774 443 364 c 0
 443 389.614237802 436.844095932 408.057453127 427.964214784 420.359060131 c 0
 417.014529804 435.528038092 401.12606097 443 382 443 c 0
EndSplineSet
EndChar

StartChar: intersection
Encoding: 184 8745 184
Width: 550
Flags: HW
LayerCount: 4
Fore
SplineSet
468 0 m 17
 468 547 l 2
 468 639 378 730 275 730 c 0
 173 730 82 639 82 547 c 2
 82 0 l 9
 168 0 l 17
 168 542 l 2
 168 593 213 645 275 645 c 0
 337 645 382 593 382 542 c 2
 382 0 l 13
 468 0 l 17
EndSplineSet
EndChar

StartChar: integral
Encoding: 185 8747 185
Width: 550
Flags: HW
LayerCount: 4
Fore
SplineSet
306 162 m 1
 306 610 l 1
 306 690 326.706054688 715 363 715 c 0
 387 715 401.734774253 709.346757931 409 693 c 0
 413 684 422 680 431 683 c 0
 440.904544412 686.301514804 444 693 444 700 c 0
 444 715 439.754881956 729.480957936 426 744 c 0
 408 763 387.85546875 772 361 772 c 0
 317 772 280.873381152 752.392420696 265 737 c 0
 228.225585938 701.33984375 226 660 226 610 c 1
 226 610 226 163 226 162 c 17
 226 82 205.293945312 57 169 57 c 0
 145 57 130.265625 62.6533203125 123 79 c 0
 119 88 110 92 101 89 c 0
 91.095703125 85.6982421875 88 79 88 72 c 0
 88 57 92.2451171875 42.5185546875 106 28 c 0
 124 9 144.14453125 0 171 0 c 0
 215 0 251.126953125 19.607421875 267 35 c 0
 303.774414062 70.66015625 306 112 306 162 c 1
EndSplineSet
EndChar

StartChar: integralbt
Encoding: 187 8993 187
Width: 550
Flags: HW
LayerCount: 4
Fore
SplineSet
226 730 m 17
 226 162 l 1
 226 82 205.293945312 57 169 57 c 0
 145 57 130.265625 62.6533203125 123 79 c 0
 119 88 110 92 101 89 c 0
 91.095703125 85.6982421875 88 79 88 72 c 0
 88 57 92.2451171875 42.5185546875 106 28 c 0
 124 9 144.14453125 0 171 0 c 0
 215 0 251.126953125 19.607421875 267 35 c 0
 303.774414062 70.66015625 306 112 306 162 c 1
 306 730 l 9
 226 730 l 17
EndSplineSet
EndChar

StartChar: dollar
Encoding: 188 36 188
Width: 550
Flags: HW
HStem: 0 21G<236 314> 47 75<204.587 354.561> 602 75<200.109 344.564> 710 20G<236 314>
VStem: 82 72<436.501 556.477> 82 64<181.394 243> 236 78<0 730> 396 72<163.238 284.091> 413 63<505.444 533.84>
LayerCount: 4
Fore
SplineSet
246 635 m 5
 304 635 l 1
 304 95 l 1
 246 95 l 5
 246 635 l 5
241 70 m 1
 309 70 l 1
 309 -50 l 1
 241 -50 l 1
 241 70 l 1
407 519 m 17
 407 525 l 2
 407 616 355 629 275 629 c 0
 194 629 143 586 143 515 c 2
 143 503 l 2
 143 436 214 422 275 409 c 1
 407 389 478 338 478 237 c 2
 478 213 l 2
 478 121 428 40 276 40 c 0
 123 40 72 91 72 183 c 2
 72 192 l 9
 143 212 l 17
 143 203 l 2
 143 117 193 110 275 110 c 0
 357 110 407 147 407 213 c 2
 407 225 l 2
 407 296 335 316 275 329 c 1
 143 349 72 401 72 503 c 2
 72 527 l 2
 72 618 123 699 276 699 c 0
 427 699 478 648 478 557 c 2
 478 540 l 9
 407 519 l 17
244 755 m 1
 306 755 l 1
 306 655 l 1
 244 655 l 1
 244 755 l 1
EndSplineSet
EndChar

StartChar: yen
Encoding: 192 165 192
Width: 550
Flags: HW
LayerCount: 4
Fore
SplineSet
448 229 m 29
 448 147 l 25
 102 147 l 25
 102 229 l 29
 448 229 l 29
448 407 m 25
 448 323 l 25
 102 323 l 25
 102 407 l 25
 448 407 l 25
226 317 m 1
 82 750 l 1
 175 750 l 1
 275 441 l 1
 375 750 l 1
 468 750 l 1
 323 317 l 1
 323 -20 l 1
 226 -20 l 1
 226 317 l 1
EndSplineSet
EndChar

StartChar: franc
Encoding: 193 8355 193
Width: 550
Flags: HW
LayerCount: 4
Fore
SplineSet
298.883789062 161 m 29
 298.883789062 81 l 29
 58.8837890625 81 l 29
 58.8837890625 161 l 29
 298.883789062 161 l 29
138.883789062 -70 m 17
 138.883789062 730 l 1
 484.883789062 730 l 1
 484.883789062 650 l 1
 218.883789062 650 l 1
 218.883789062 404 l 1
 484.883789062 404 l 1
 484.883789062 324 l 1
 218.883789062 324 l 1
 218.883789062 -70 l 9
 138.883789062 -70 l 17
EndSplineSet
EndChar

StartChar: asciitilde
Encoding: 198 126 198
Width: 550
VWidth: 1050
Flags: HW
HStem: 219 80<319.953 409.51> 364 80<140.727 230.335>
VStem: 59 74<291 356.494> 237 76<308.274 356.354> 416 75<302.743 372>
LayerCount: 4
Fore
SplineSet
313 343 m 0
 313 406 265 444 185 444 c 0
 94 444 59 401 59 291 c 2
 59 230 l 1
 133 230 l 1
 134 292 l 2
 135 354 142 364 185 364 c 0
 214 364 237 346 237 324 c 0
 237 259 286 219 365 219 c 0
 456 219 491 262 491 372 c 2
 491 433 l 1
 417 433 l 1
 416 371 l 2
 415 309 408 299 365 299 c 0
 334 299 313 317 313 343 c 0
EndSplineSet
EndChar

StartChar: logicalnotreversed
Encoding: 222 8976 222
Width: 550
Flags: HW
LayerCount: 4
Fore
SplineSet
162 446 m 5
 468 446 l 5
 468 526 l 5
 82 526 l 5
 82 186 l 5
 162 186 l 5
 162 446 l 5
EndSplineSet
EndChar

StartChar: lighthorzbxd
Encoding: 223 9472 223
Width: 550
Flags: HW
LayerCount: 4
Fore
SplineSet
550 340 m 25
 0 340 l 25
 0 260 l 25
 550 260 l 25
 550 340 l 25
EndSplineSet
EndChar

StartChar: heavyhorzbxd
Encoding: 224 9473 224
Width: 550
Flags: HW
LayerCount: 4
Fore
SplineSet
0 370 m 25
 0 230 l 25
 550 230 l 25
 550 370 l 25
 0 370 l 25
EndSplineSet
EndChar

StartChar: lightvertbxd
Encoding: 225 9474 225
Width: 550
Flags: HW
LayerCount: 4
Fore
SplineSet
235 -200 m 25
 235 800 l 25
 315 800 l 25
 315 -200 l 25
 235 -200 l 25
EndSplineSet
EndChar

StartChar: heavyvertbxd
Encoding: 226 9475 226
Width: 550
Flags: HW
LayerCount: 4
Fore
SplineSet
205 -200 m 29
 205 800 l 29
 345 800 l 29
 345 -200 l 29
 205 -200 l 29
EndSplineSet
EndChar

StartChar: lighttrpldashhorzbxd
Encoding: 227 9476 227
Width: 550
Flags: HW
LayerCount: 4
Fore
SplineSet
338 340 m 29
 212 340 l 29
 212 260 l 29
 338 260 l 29
 338 340 l 29
550 340 m 29
 418 340 l 29
 418 260 l 29
 550 260 l 29
 550 340 l 29
132 340 m 29
 0 340 l 29
 0 260 l 29
 132 260 l 29
 132 340 l 29
EndSplineSet
EndChar

StartChar: heavytrpldashhorzbxd
Encoding: 228 9477 228
Width: 550
Flags: HW
LayerCount: 4
Fore
SplineSet
212 370 m 29
 212 230 l 29
 338 230 l 25
 338 370 l 25
 212 370 l 29
418 370 m 25
 418 230 l 25
 550 230 l 25
 550 370 l 25
 418 370 l 25
0 370 m 25
 0 230 l 25
 132 230 l 25
 132 370 l 25
 0 370 l 25
EndSplineSet
EndChar

StartChar: lighttrpldashvertbxd
Encoding: 229 9478 229
Width: 550
Flags: HW
LayerCount: 4
Fore
SplineSet
235 170 m 29
 235 420 l 29
 315 420 l 29
 315 170 l 29
 235 170 l 29
235 550 m 29
 235 800 l 29
 315 800 l 29
 315 550 l 29
 235 550 l 29
235 -200 m 25
 235 50 l 25
 315 50 l 25
 315 -200 l 25
 235 -200 l 25
EndSplineSet
EndChar

StartChar: heavytrpldashvertbxd
Encoding: 230 9479 230
Width: 550
Flags: HW
LayerCount: 4
Fore
SplineSet
205 170 m 29
 205 420 l 29
 345 420 l 29
 345 170 l 29
 205 170 l 29
205 550 m 29
 205 800 l 29
 345 800 l 29
 345 550 l 29
 205 550 l 29
205 -200 m 29
 205 50 l 29
 345 50 l 29
 345 -200 l 29
 205 -200 l 29
EndSplineSet
EndChar

StartChar: lightquaddashhorzbxd
Encoding: 231 9480 231
Width: 550
Flags: HW
LayerCount: 4
Fore
SplineSet
251 340 m 25
 149 340 l 25
 149 260 l 25
 251 260 l 25
 251 340 l 25
401 340 m 25
 299 340 l 25
 299 260 l 25
 401 260 l 25
 401 340 l 25
550 340 m 25
 448 340 l 25
 448 260 l 25
 550 260 l 25
 550 340 l 25
102 340 m 25
 0 340 l 25
 0 260 l 25
 102 260 l 25
 102 340 l 25
EndSplineSet
EndChar

StartChar: heavyquaddashhorzbxd
Encoding: 232 9481 232
Width: 550
Flags: HW
LayerCount: 4
Fore
SplineSet
448 370 m 25
 448 230 l 25
 550 230 l 25
 550 370 l 25
 448 370 l 25
299 370 m 25
 299 230 l 25
 401 230 l 25
 401 370 l 25
 299 370 l 25
149 370 m 25
 149 230 l 25
 251 230 l 25
 251 370 l 25
 149 370 l 25
0 370 m 25
 0 230 l 25
 102 230 l 25
 102 370 l 25
 0 370 l 25
EndSplineSet
EndChar

StartChar: lightquaddashvertbxd
Encoding: 233 9482 233
Width: 550
Flags: HW
LayerCount: 4
Fore
SplineSet
235 -200 m 29
 235 -20 l 29
 315 -20 l 29
 315 -200 l 29
 235 -200 l 29
235 70 m 29
 235 250 l 29
 315 250 l 29
 315 70 l 29
 235 70 l 29
235 350 m 29
 235 530 l 29
 315 530 l 29
 315 350 l 29
 235 350 l 29
235 620 m 29
 235 800 l 29
 315 800 l 29
 315 620 l 29
 235 620 l 29
EndSplineSet
EndChar

StartChar: heavyquaddashvertbxd
Encoding: 234 9483 234
Width: 550
Flags: HW
LayerCount: 4
Fore
SplineSet
205 -200 m 25
 205 -20 l 25
 345 -20 l 25
 345 -200 l 25
 205 -200 l 25
205 70 m 25
 205 250 l 25
 345 250 l 25
 345 70 l 25
 205 70 l 25
205 350 m 25
 205 530 l 25
 345 530 l 25
 345 350 l 25
 205 350 l 25
205 620 m 25
 205 800 l 25
 345 800 l 25
 345 620 l 25
 205 620 l 25
EndSplineSet
EndChar

StartChar: lightdnrightbxd
Encoding: 235 9484 235
Width: 550
Flags: HW
LayerCount: 4
Fore
SplineSet
315 -200 m 1
 235 -200 l 1
 235 -200 235 260 235.000976562 260 c 1
 235.000976562 340 l 1
 550 340 l 1
 550 260 l 1
 315 260 l 1
 315 -200 l 1
EndSplineSet
EndChar

StartChar: dnlightrightheavybxd
Encoding: 236 9485 236
Width: 550
Flags: HW
LayerCount: 4
Fore
SplineSet
315 -200 m 1
 235 -200 l 1
 235 370 l 1
 550 370 l 1
 550 230 l 1
 315 230 l 1
 315 -200 l 1
EndSplineSet
EndChar

StartChar: dnheavyrightlightbxd
Encoding: 237 9486 237
Width: 550
Flags: HW
LayerCount: 4
Fore
SplineSet
345 260 m 1
 345 -200 l 1
 205 -200 l 1
 205 340 l 1
 550 340 l 1
 550 260 l 1
 345 260 l 1
EndSplineSet
EndChar

StartChar: heavydnrightbxd
Encoding: 238 9487 238
Width: 550
Flags: HW
LayerCount: 4
Fore
SplineSet
205 370 m 1
 550 370 l 1
 550 230 l 1
 345 230 l 1
 345 -200 l 1
 205 -200 l 1
 205 370 l 1
EndSplineSet
EndChar

StartChar: lightdnleftbxd
Encoding: 239 9488 239
Width: 550
Flags: HW
LayerCount: 4
Fore
SplineSet
0 340 m 1
 314.999023438 340 l 1
 314.999023438 340 314.999023438 260 315 260 c 1
 315 -200 l 1
 235 -200 l 1
 235 260 l 1
 0 260 l 1
 0 340 l 1
EndSplineSet
EndChar

StartChar: dnlightleftheavybxd
Encoding: 240 9489 240
Width: 550
Flags: HW
LayerCount: 4
Fore
SplineSet
235 230 m 1
 0 230 l 1
 0 370 l 1
 315 370 l 1
 315 -200 l 1
 235 -200 l 1
 235 230 l 1
EndSplineSet
EndChar

StartChar: dnheavyleftlightbxd
Encoding: 241 9490 241
Width: 550
Flags: HW
LayerCount: 4
Fore
SplineSet
345 340 m 1
 345 -200 l 1
 205 -200 l 1
 205 260 l 1
 0 260 l 1
 0 340 l 1
 345 340 l 1
EndSplineSet
EndChar

StartChar: heavydnleftbxd
Encoding: 242 9491 242
Width: 550
Flags: HW
LayerCount: 4
Fore
SplineSet
205 230 m 1
 0 230 l 1
 0 370 l 1
 345 370 l 1
 345 -200 l 1
 205 -200 l 1
 205 230 l 1
EndSplineSet
EndChar

StartChar: lightuprightbxd
Encoding: 243 9492 243
Width: 550
Flags: HW
LayerCount: 4
Fore
SplineSet
550 260 m 1
 235.000976562 260 l 1
 235.000976562 260 235.000976562 340 235 340 c 1
 235 800 l 1
 315 800 l 1
 315 340 l 1
 550 340 l 1
 550 260 l 1
EndSplineSet
EndChar

StartChar: uplightrightheavybxd
Encoding: 244 9493 244
Width: 550
Flags: HW
LayerCount: 4
Fore
SplineSet
315 370 m 1
 550 370 l 1
 550 230 l 1
 235 230 l 1
 235 800 l 1
 315 800 l 1
 315 370 l 1
EndSplineSet
EndChar

StartChar: upheavyrightlightbxd
Encoding: 245 9494 245
Width: 550
Flags: HW
LayerCount: 4
Fore
SplineSet
205 260 m 1
 205 800 l 1
 345 800 l 1
 345 340 l 1
 550 340 l 1
 550 260 l 1
 205 260 l 1
EndSplineSet
EndChar

StartChar: heavyuprightbxd
Encoding: 246 9495 246
Width: 550
Flags: HW
LayerCount: 4
Fore
SplineSet
345 370 m 1
 550 370 l 1
 550 230 l 1
 205 230 l 1
 205 800 l 1
 345 800 l 1
 345 370 l 1
EndSplineSet
EndChar

StartChar: lightupleftbxd
Encoding: 247 9496 247
Width: 550
Flags: HW
LayerCount: 4
Fore
SplineSet
235 340 m 5
 0 340 l 5
 0 260 l 5
 315 260 l 5
 315 800 l 5
 235 800 l 5
 235 340 l 5
EndSplineSet
EndChar

StartChar: uplightleftheavybxd
Encoding: 248 9497 248
Width: 550
Flags: HW
LayerCount: 4
Fore
SplineSet
0 230 m 5
 315 230 l 5
 315 800 l 5
 235 800 l 5
 235 370 l 5
 0 370 l 5
 0 230 l 5
EndSplineSet
EndChar

StartChar: upheavyleftlightbxd
Encoding: 249 9498 249
Width: 550
Flags: HW
LayerCount: 4
Fore
SplineSet
205 340 m 29
 0 340 l 29
 0 260 l 29
 205 260 l 29
 205 340 l 29
345 260 m 29
 345 800 l 29
 205 800 l 29
 205 260 l 29
 345 260 l 29
EndSplineSet
EndChar

StartChar: heavyupleftbxd
Encoding: 250 9499 250
Width: 550
Flags: HW
LayerCount: 4
Fore
SplineSet
205 370 m 5
 205 800 l 5
 345 800 l 5
 345 230 l 5
 0 230 l 5
 0 370 l 5
 205 370 l 5
EndSplineSet
EndChar

StartChar: lightvertrightbxd
Encoding: 251 9500 251
Width: 550
Flags: HW
LayerCount: 4
Fore
SplineSet
235 -200 m 1
 235 800 l 1
 315 800 l 1
 315 340 l 1
 550 340 l 1
 550 260 l 1
 315 260 l 1
 315 -200 l 1
 235 -200 l 1
EndSplineSet
EndChar

StartChar: vertlightrightheavybxd
Encoding: 252 9501 252
Width: 550
Flags: HW
LayerCount: 4
Fore
SplineSet
235 -200 m 1
 235 800 l 1
 315 800 l 1
 315 370 l 1
 550 370 l 1
 550 230 l 1
 315 230 l 1
 315 -200 l 1
 235 -200 l 1
EndSplineSet
EndChar

StartChar: upheavyrightdnlightbxd
Encoding: 253 9502 253
Width: 550
Flags: HW
LayerCount: 4
Fore
SplineSet
205 260 m 1
 205 800 l 1
 345 800 l 1
 345 340 l 1
 550 340 l 1
 550 260 l 1
 315 260 l 1
 315 -200 l 1
 235 -200 l 1
 235 260 l 1
 205 260 l 1
EndSplineSet
EndChar

StartChar: dnheavyrightuplightbxd
Encoding: 254 9503 254
Width: 550
Flags: HW
LayerCount: 4
Fore
SplineSet
205 340 m 1
 205 -200 l 1
 345 -200 l 1
 345 260 l 1
 550 260 l 1
 550 340 l 1
 315 340 l 1
 315 800 l 1
 235 800 l 1
 235 340 l 1
 205 340 l 1
EndSplineSet
EndChar

StartChar: vertheavyrightlightbxd
Encoding: 255 9504 255
Width: 550
Flags: HW
LayerCount: 4
Fore
SplineSet
205 -200 m 1
 205 800 l 1
 345 800 l 1
 345 340 l 1
 550 340 l 1
 550 260 l 1
 345 260 l 1
 345 -200 l 1
 205 -200 l 1
EndSplineSet
EndChar

StartChar: dnlightrightupheavybxd
Encoding: 256 9505 256
Width: 550
Flags: HW
LayerCount: 4
Fore
SplineSet
205 230 m 1
 205 800 l 1
 345 800 l 1
 345 370 l 1
 550 370 l 1
 550 230 l 1
 315 230 l 1
 315 -200 l 1
 235 -200 l 1
 235 230 l 1
 205 230 l 1
EndSplineSet
EndChar

StartChar: uplightrightdnheavybxd
Encoding: 257 9506 257
Width: 550
Flags: HW
LayerCount: 4
Fore
SplineSet
205 370 m 1
 205 -200 l 1
 345 -200 l 1
 345 230 l 1
 550 230 l 1
 550 370 l 1
 315 370 l 1
 315 800 l 1
 235 800 l 1
 235 370 l 1
 205 370 l 1
EndSplineSet
EndChar

StartChar: heavyvertrightbxd
Encoding: 258 9507 258
Width: 550
Flags: HW
LayerCount: 4
Fore
SplineSet
205 -200 m 1
 205 800 l 1
 345 800 l 1
 345 370 l 1
 550 370 l 1
 550 230 l 1
 345 230 l 1
 345 -200 l 1
 205 -200 l 1
EndSplineSet
EndChar

StartChar: lightvertleftbxd
Encoding: 259 9508 259
Width: 550
Flags: HW
LayerCount: 4
Fore
SplineSet
315 -200 m 1
 315 800 l 1
 235 800 l 1
 235 340 l 1
 0 340 l 1
 0 260 l 1
 235 260 l 1
 235 -200 l 1
 315 -200 l 1
EndSplineSet
EndChar

StartChar: vertlightleftheavybxd
Encoding: 260 9509 260
Width: 550
Flags: HW
LayerCount: 4
Fore
SplineSet
315 -200 m 1
 315 800 l 1
 235 800 l 1
 235 370.959183673 l 1
 0 370 l 1
 0 230 l 1
 235 230.959183673 l 1
 235 -200 l 1
 315 -200 l 1
EndSplineSet
EndChar

StartChar: upheavyleftdnlightbxd
Encoding: 261 9510 261
Width: 550
Flags: HW
LayerCount: 4
Fore
SplineSet
345 260 m 1
 345 800 l 1
 205 800 l 1
 205 340 l 1
 0 340 l 1
 0 260 l 1
 235 260 l 1
 235 -200 l 1
 315 -200 l 1
 315 260 l 1
 345 260 l 1
EndSplineSet
EndChar

StartChar: dnheavyleftuplightbxd
Encoding: 262 9511 262
Width: 550
Flags: HW
LayerCount: 4
Fore
SplineSet
345 340 m 1
 345 -200 l 1
 205 -200 l 1
 205 260 l 1
 0 260 l 1
 0 340 l 1
 235 340 l 1
 235 800 l 1
 315 800 l 1
 315 340 l 1
 345 340 l 1
EndSplineSet
EndChar

StartChar: vertheavyleftlightbxd
Encoding: 263 9512 263
Width: 550
Flags: HW
LayerCount: 4
Fore
SplineSet
345 -200 m 1
 205 -200 l 1
 205 260 l 1
 0 260 l 1
 0 340 l 1
 205 340 l 1
 205 800 l 1
 345 800 l 1
 345 -200 l 1
EndSplineSet
EndChar

StartChar: dnlightleftupheavybxd
Encoding: 264 9513 264
Width: 550
Flags: HW
LayerCount: 4
Fore
SplineSet
315 -200 m 1
 235 -200 l 1
 235 230 l 1
 0 230 l 1
 0 370 l 1
 205 370 l 1
 205 800 l 1
 345 800 l 1
 345 230 l 1
 315 230 l 1
 315 -200 l 1
EndSplineSet
EndChar

StartChar: uplightleftdnheavybxd
Encoding: 265 9514 265
Width: 550
Flags: HW
LayerCount: 4
Fore
SplineSet
345 370 m 1
 345 -200 l 1
 205 -200 l 1
 205 230 l 1
 0 230 l 1
 0 370 l 1
 235 370 l 1
 235 800 l 1
 315 800 l 1
 315 370 l 1
 345 370 l 1
EndSplineSet
EndChar

StartChar: heavyvertleftbxd
Encoding: 266 9515 266
Width: 550
Flags: HW
LayerCount: 4
Fore
SplineSet
345 -200 m 1
 205 -200 l 1
 205 231 l 1
 0 230 l 1
 0 370 l 1
 205 371 l 1
 205 800 l 1
 345 800 l 1
 345 -200 l 1
EndSplineSet
EndChar

StartChar: lightdnhorzbxd
Encoding: 267 9516 267
Width: 550
Flags: HW
LayerCount: 4
Fore
SplineSet
315 -200 m 1
 235 -200 l 1
 235 260 l 1
 0 260 l 1
 0 340 l 1
 550 340 l 1
 550 260 l 1
 315 260 l 1
 315 -200 l 1
EndSplineSet
EndChar

StartChar: leftheavyrightdnlightbxd
Encoding: 268 9517 268
Width: 550
Flags: HW
LayerCount: 4
Fore
SplineSet
235 230 m 1
 0 230 l 1
 0 370 l 1
 315 370 l 1
 315 340 l 1
 550 340 l 1
 550 260 l 1
 315 260 l 1
 315 -200 l 1
 235 -200 l 1
 235 230 l 1
EndSplineSet
EndChar

StartChar: rightheavyleftdnlightbxd
Encoding: 269 9518 269
Width: 550
Flags: HW
LayerCount: 4
Fore
SplineSet
315 -200 m 1
 235 -200 l 1
 235 260 l 1
 0 260 l 1
 0 340 l 1
 235 340 l 1
 235 370 l 1
 550 370 l 1
 550 230 l 1
 315 230 l 1
 315 -200 l 1
EndSplineSet
EndChar

StartChar: dnlighthorzheavybxd
Encoding: 270 9519 270
Width: 550
Flags: HW
LayerCount: 4
Fore
SplineSet
315 -200 m 1
 235 -200 l 1
 235 230 l 1
 0 230 l 1
 0 370 l 1
 550 370 l 1
 550 230 l 1
 315 230 l 1
 315 -200 l 1
EndSplineSet
EndChar

StartChar: dnheavyhorzlightbxd
Encoding: 271 9520 271
Width: 550
Flags: HW
LayerCount: 4
Fore
SplineSet
550 340 m 1
 550 260 l 1
 345 260 l 1
 345 -200 l 1
 205 -200 l 1
 205 260 l 1
 0 260 l 1
 0 340 l 1
 550 340 l 1
EndSplineSet
EndChar

StartChar: rightlightleftdnheavybxd
Encoding: 272 9521 272
Width: 550
Flags: HW
LayerCount: 4
Fore
SplineSet
205 230 m 1
 0 230 l 1
 0 370 l 1
 345 370 l 1
 345 340 l 1
 550 340 l 1
 550 260 l 1
 345 260 l 1
 345 -200 l 1
 205 -200 l 1
 205 230 l 1
EndSplineSet
EndChar

StartChar: leftlightrightdnheavybxd
Encoding: 273 9522 273
Width: 550
Flags: HW
LayerCount: 4
Fore
SplineSet
205 370 m 1
 550 370 l 1
 550 230 l 1
 345 230 l 1
 345 -200 l 1
 205 -200 l 1
 205 260 l 1
 0 260 l 1
 0 340 l 1
 205 340 l 1
 205 370 l 1
EndSplineSet
EndChar

StartChar: heavydnhorzbxd
Encoding: 274 9523 274
Width: 550
Flags: HW
LayerCount: 4
Fore
SplineSet
0 370 m 1
 550 370 l 1
 550 230 l 1
 345 230 l 1
 345 -200 l 1
 205 -200 l 1
 205 230 l 1
 0 230 l 1
 0 370 l 1
EndSplineSet
EndChar

StartChar: lightuphorzbxd
Encoding: 275 9524 275
Width: 550
Flags: HW
LayerCount: 4
Fore
SplineSet
550 260 m 1
 0 260 l 1
 0 340 l 1
 235 340 l 1
 235 800 l 1
 315 800 l 1
 315 340 l 1
 550 340 l 1
 550 260 l 1
EndSplineSet
EndChar

StartChar: leftheavyrightuplightbxd
Encoding: 276 9525 276
Width: 550
Flags: HW
LayerCount: 4
Fore
SplineSet
235 800 m 1
 315 800 l 1
 315 340 l 1
 550 340 l 1
 550 260 l 1
 315 260 l 1
 315 230 l 1
 0 230 l 1
 0 370 l 1
 235 370 l 1
 235 800 l 1
EndSplineSet
EndChar

StartChar: rightheavyleftuplightbxd
Encoding: 277 9526 277
Width: 550
Flags: HW
LayerCount: 4
Fore
SplineSet
315 370 m 1
 550 370 l 1
 550 230 l 1
 235 230 l 1
 235 260 l 1
 0 260 l 1
 0 340 l 1
 235 340 l 1
 235 800 l 1
 315 800 l 1
 315 370 l 1
EndSplineSet
EndChar

StartChar: uplighthorzheavybxd
Encoding: 278 9527 278
Width: 550
Flags: HW
LayerCount: 4
Fore
SplineSet
0 230 m 1
 0 370 l 1
 235 370 l 1
 235 800 l 1
 315 800 l 1
 315 370 l 1
 550 370 l 1
 550 230 l 1
 0 230 l 1
EndSplineSet
EndChar

StartChar: upheavyhorzlightbxd
Encoding: 279 9528 279
Width: 550
Flags: HW
LayerCount: 4
Fore
SplineSet
550 260 m 1
 0 260 l 1
 0 340 l 1
 205 340 l 1
 205 800 l 1
 345 800 l 1
 345 340 l 1
 550 340 l 1
 550 260 l 1
EndSplineSet
EndChar

StartChar: rightlightleftupheavybxd
Encoding: 280 9529 280
Width: 550
Flags: HW
LayerCount: 4
Fore
SplineSet
345 230 m 1
 0 230 l 1
 0 370 l 1
 205 370 l 1
 205 800 l 1
 345 800 l 1
 345 340 l 1
 550 340 l 1
 550 260 l 1
 345 260 l 1
 345 230 l 1
EndSplineSet
EndChar

StartChar: leftlightrightupheavybxd
Encoding: 281 9530 281
Width: 550
Flags: HW
LayerCount: 4
Fore
SplineSet
345 370 m 1
 550 370 l 1
 550 230 l 1
 205 230 l 1
 205 260 l 1
 0 260 l 1
 0 340 l 1
 205 340 l 1
 205 800 l 1
 345 800 l 1
 345 370 l 1
EndSplineSet
EndChar

StartChar: heavyuphorzbxd
Encoding: 282 9531 282
Width: 550
Flags: HW
LayerCount: 4
Fore
SplineSet
0 230 m 1
 0 370 l 1
 205 370 l 1
 205 800 l 1
 345 800 l 1
 345 370 l 1
 550 370 l 1
 550 230 l 1
 0 230 l 1
EndSplineSet
EndChar

StartChar: lightverthorzbxd
Encoding: 283 9532 283
Width: 550
Flags: HW
LayerCount: 4
Fore
SplineSet
550 340 m 1
 550 260 l 1
 315 260 l 1
 315 -200 l 1
 235 -200 l 1
 235 260 l 1
 0 260 l 1
 0 340 l 1
 235 340 l 1
 235 800 l 1
 315 800 l 1
 315 340 l 1
 550 340 l 1
EndSplineSet
EndChar

StartChar: leftheavyrightvertlightbxd
Encoding: 284 9533 284
Width: 550
Flags: HW
LayerCount: 4
Fore
SplineSet
550 340 m 1
 550 260 l 1
 315 260 l 1
 315 -200 l 1
 235 -200 l 1
 235 230 l 1
 0 230 l 1
 0 370 l 1
 235 370 l 1
 235 800 l 1
 315 800 l 1
 315 340 l 1
 550 340 l 1
EndSplineSet
EndChar

StartChar: rightheavyleftvertlightbxd
Encoding: 285 9534 285
Width: 550
Flags: HW
LayerCount: 4
Fore
SplineSet
315 -200 m 1
 235 -200 l 1
 235 260 l 1
 0 260 l 1
 0 340 l 1
 235 340 l 1
 235 800 l 1
 315 800 l 1
 315 370 l 1
 550 370 l 1
 550 230 l 1
 315 230 l 1
 315 -200 l 1
EndSplineSet
EndChar

StartChar: vertlighthorzheavybxd
Encoding: 286 9535 286
Width: 550
Flags: HW
LayerCount: 4
Fore
SplineSet
315 -200 m 1
 235 -200 l 1
 235 230 l 1
 0 230 l 1
 0 370 l 1
 235 370 l 1
 235 800 l 1
 315 800 l 1
 315 370 l 1
 550 370 l 1
 550 230 l 1
 315 230 l 1
 315 -200 l 1
EndSplineSet
EndChar

StartChar: upheavydnhorzlightbxd
Encoding: 287 9536 287
Width: 550
Flags: HW
LayerCount: 4
Fore
SplineSet
550 340 m 1
 550 260 l 1
 315 260 l 1
 315 -200 l 1
 235 -200 l 1
 235 260 l 1
 0 260 l 1
 0 340 l 1
 205 340 l 1
 205 800 l 1
 345 800 l 1
 345 340 l 1
 550 340 l 1
EndSplineSet
EndChar

StartChar: dnheavyuphorzlightbxd
Encoding: 288 9537 288
Width: 550
Flags: HW
LayerCount: 4
Fore
SplineSet
235 800 m 1
 315 800 l 1
 315 340 l 1
 550 340 l 1
 550 260 l 1
 345 260 l 1
 345 -200 l 1
 205 -200 l 1
 205 260 l 1
 0 260 l 1
 0 340 l 1
 235 340 l 1
 235 800 l 1
EndSplineSet
EndChar

StartChar: vertheavyhorzlightbxd
Encoding: 289 9538 289
Width: 550
Flags: HW
LayerCount: 4
Fore
SplineSet
550 340 m 1
 550 260 l 1
 345 260 l 1
 345 -200 l 1
 205 -200 l 1
 205 260 l 1
 0 260 l 1
 0 340 l 1
 205 340 l 1
 205 800 l 1
 345 800 l 1
 345 340 l 1
 550 340 l 1
EndSplineSet
EndChar

StartChar: leftupheavyrightdnlightbxd
Encoding: 290 9539 290
Width: 550
Flags: HW
LayerCount: 4
Fore
SplineSet
550 340 m 1
 550 260 l 1
 345 260 l 1
 315 230 l 1
 315 -200 l 1
 235 -200 l 1
 235 230 l 1
 0 230 l 1
 0 370 l 1
 205 370 l 1
 205 800 l 1
 345 800 l 1
 345 340 l 1
 550 340 l 1
EndSplineSet
EndChar

StartChar: rightupheavyleftdnlightbxd
Encoding: 291 9540 291
Width: 550
Flags: HW
LayerCount: 4
Fore
SplineSet
315 -200 m 1
 235 -200 l 1
 235 230 l 1
 205 260 l 1
 0 260 l 1
 0 340 l 1
 205 340 l 1
 205 800 l 1
 345 800 l 1
 345 370 l 1
 550 370 l 1
 550 230 l 1
 315 230 l 1
 315 -200 l 1
EndSplineSet
EndChar

StartChar: leftdnheavyrightuplightbxd
Encoding: 292 9541 292
Width: 550
Flags: HW
LayerCount: 4
Fore
SplineSet
235 800 m 1
 315 800 l 1
 315 370 l 1
 345 340 l 1
 550 340 l 1
 550 260 l 1
 345 260 l 1
 345 -200 l 1
 205 -200 l 1
 205 230 l 1
 0 230 l 1
 0 370 l 1
 235 370 l 1
 235 800 l 1
EndSplineSet
EndChar

StartChar: rightdnheavyleftuplightbxd
Encoding: 293 9542 293
Width: 550
Flags: HW
LayerCount: 4
Fore
SplineSet
0 260 m 1
 0 340 l 1
 205 340 l 1
 235 370 l 1
 235 800 l 1
 315 800 l 1
 315 370 l 1
 550 370 l 1
 550 230 l 1
 345 230 l 1
 345 -200 l 1
 205 -200 l 1
 205 260 l 1
 0 260 l 1
EndSplineSet
EndChar

StartChar: dnlightuphorzheavybxd
Encoding: 294 9543 294
Width: 550
Flags: HW
LayerCount: 4
Fore
SplineSet
0 230 m 1
 0 370 l 1
 205 370 l 1
 205 800 l 1
 345 800 l 1
 345 370 l 1
 550 370 l 1
 550 230 l 1
 315 230 l 1
 315 -200 l 1
 235 -200 l 1
 235 230 l 1
 0 230 l 1
EndSplineSet
EndChar

StartChar: uplightdnhorzheavybxd
Encoding: 295 9544 295
Width: 550
Flags: HW
LayerCount: 4
Fore
SplineSet
235 800 m 1
 315 800 l 1
 315 370 l 1
 550 370 l 1
 550 230 l 1
 345 230 l 1
 345 -200 l 1
 205 -200 l 1
 205 230 l 1
 0 230 l 1
 0 370 l 1
 235 370 l 1
 235 800 l 1
EndSplineSet
EndChar

StartChar: rightlightleftvertheavybxd
Encoding: 296 9545 296
Width: 550
Flags: HW
LayerCount: 4
Fore
SplineSet
549.852539062 340 m 1
 549.852539062 260 l 1
 344.852539062 260 l 1
 344.852539062 -200 l 1
 204.852539062 -200 l 1
 204.852539062 230 l 1
 -0.1474609375 230 l 1
 -0.1474609375 370 l 1
 204.852539062 370 l 1
 204.852539062 800 l 1
 344.852539062 800 l 1
 344.852539062 340 l 1
 549.852539062 340 l 1
EndSplineSet
EndChar

StartChar: leftlightrightvertheavybxd
Encoding: 297 9546 297
Width: 550
Flags: HW
LayerCount: 4
Fore
SplineSet
550 370 m 1
 550 230 l 1
 345 230 l 1
 345 -200 l 1
 205 -200 l 1
 205 260 l 1
 0 260 l 1
 0 340 l 1
 205 340 l 1
 205 800 l 1
 345 800 l 1
 345 370 l 1
 550 370 l 1
EndSplineSet
EndChar

StartChar: heavyverthorzbxd
Encoding: 298 9547 298
Width: 550
Flags: HW
LayerCount: 4
Fore
SplineSet
0 230 m 1
 0 370 l 1
 205 370 l 1
 205 800 l 1
 345 800 l 1
 345 370 l 1
 550 370 l 1
 550 230 l 1
 345 230 l 1
 345 -200 l 1
 205 -200 l 1
 205 230 l 1
 0 230 l 1
EndSplineSet
EndChar

StartChar: lightdbldashhorzbxd
Encoding: 299 9548 299
Width: 550
Flags: HW
LayerCount: 4
Fore
SplineSet
550 340 m 25
 345 340 l 25
 345 260 l 25
 550 260 l 25
 550 340 l 25
205 340 m 25
 0 340 l 25
 0 260 l 25
 205 260 l 25
 205 340 l 25
EndSplineSet
EndChar

StartChar: heavydbldashhorzbxd
Encoding: 300 9549 300
Width: 550
Flags: HW
LayerCount: 4
Fore
SplineSet
345 370 m 25
 345 230 l 25
 550 230 l 25
 550 370 l 25
 345 370 l 25
0 370 m 25
 0 230 l 25
 205 230 l 25
 205 370 l 25
 0 370 l 25
EndSplineSet
EndChar

StartChar: lightdbldashvertbxd
Encoding: 301 9550 301
Width: 550
Flags: HW
LayerCount: 4
Fore
SplineSet
235 370 m 17
 235 800 l 9
 315 800 l 17
 315 370 l 9
 235 370 l 17
315 230 m 17
 315 -200 l 9
 235 -200 l 17
 235 230 l 9
 315 230 l 17
EndSplineSet
EndChar

StartChar: heavydbldashvertbxd
Encoding: 302 9551 302
Width: 550
Flags: HW
LayerCount: 4
Fore
SplineSet
205 370 m 17
 205 800 l 9
 345 800 l 17
 345 370 l 9
 205 370 l 17
345 230 m 21
 345 -200 l 9
 205 -200 l 1
 205 230 l 9
 345 230 l 21
EndSplineSet
EndChar

StartChar: dblhorzbxd
Encoding: 303 9552 303
Width: 550
Flags: HW
LayerCount: 4
Fore
SplineSet
550 230 m 25
 0 230 l 25
 0 150 l 25
 550 150 l 25
 550 230 l 25
550 450 m 25
 0 450 l 25
 0 370 l 25
 550 370 l 25
 550 450 l 25
EndSplineSet
EndChar

StartChar: dblvertbxd
Encoding: 304 9553 304
Width: 550
Flags: HW
LayerCount: 4
Fore
SplineSet
345 -200 m 29
 345 800 l 29
 425 800 l 29
 425 -200 l 29
 345 -200 l 29
125 -200 m 25
 125 800 l 25
 205 800 l 25
 205 -200 l 25
 125 -200 l 25
EndSplineSet
EndChar

StartChar: dnsngrightdblbxd
Encoding: 305 9554 305
Width: 550
Flags: HW
LayerCount: 4
Fore
SplineSet
550 450 m 1
 550 370 l 1
 315 370 l 1
 315 230 l 1
 550 230 l 1
 550 150 l 1
 315 150 l 1
 315 -200 l 1
 235 -200 l 1
 235 450 l 1
 550 450 l 1
EndSplineSet
EndChar

StartChar: dndblrightsngbxd
Encoding: 306 9555 306
Width: 550
Flags: HW
LayerCount: 4
Fore
SplineSet
125 -200 m 1
 205 -200 l 1
 205 260 l 1
 345 260 l 1
 345 -200 l 1
 425 -200 l 1
 425 260 l 1
 550 260 l 1
 550 340 l 1
 125 340 l 1
 125 -200 l 1
EndSplineSet
EndChar

StartChar: dbldnrightbxd
Encoding: 307 9556 307
Width: 550
Flags: HW
LayerCount: 4
Fore
SplineSet
125 -200 m 1
 125 450 l 1
 550 450 l 1
 550 370 l 1
 205 370 l 1
 205 -200 l 1
 125 -200 l 1
345 -200 m 1
 345 230 l 1
 550 230 l 1
 550 150 l 1
 425 150 l 1
 425 -200 l 1
 345 -200 l 1
EndSplineSet
EndChar

StartChar: dnsngleftdblbxd
Encoding: 308 9557 308
Width: 550
Flags: HW
LayerCount: 4
Fore
SplineSet
235 230 m 1
 235 370 l 1
 0 370 l 1
 0 450 l 1
 315 450 l 1
 315 -200 l 1
 235 -200 l 1
 235 150 l 1
 0 150 l 1
 0 230 l 1
 235 230 l 1
EndSplineSet
EndChar

StartChar: dndblleftsngbxd
Encoding: 309 9558 309
Width: 550
Flags: HW
LayerCount: 4
Fore
SplineSet
425 -200 m 1
 345 -200 l 1
 345 260 l 1
 205 260 l 1
 205 -200 l 1
 125 -200 l 1
 125 260 l 1
 0 260 l 1
 0 340 l 1
 425 340 l 1
 425 -200 l 1
EndSplineSet
EndChar

StartChar: dbldnleftbxd
Encoding: 310 9559 310
Width: 550
Flags: HW
LayerCount: 4
Fore
SplineSet
425 -200 m 1
 345 -200 l 1
 345 370 l 1
 0 370 l 1
 0 450 l 1
 425 450 l 1
 425 -200 l 1
205 -200 m 1
 125 -200 l 1
 125 150 l 1
 0 150 l 1
 0 230 l 1
 205 230 l 1
 205 -200 l 1
EndSplineSet
EndChar

StartChar: upsngrightdblbxd
Encoding: 311 9560 311
Width: 550
Flags: HW
LayerCount: 4
Fore
SplineSet
315 370 m 1
 315 230 l 1
 550 230 l 1
 550 150 l 1
 235 150 l 1
 235 800 l 1
 315 800 l 1
 315 450 l 1
 550 450 l 1
 550 370 l 1
 315 370 l 1
EndSplineSet
EndChar

StartChar: updblrightsngbxd
Encoding: 312 9561 312
Width: 550
Flags: HW
LayerCount: 4
Fore
SplineSet
125 800 m 1
 205 800 l 1
 205 340 l 1
 345 340 l 1
 345 800 l 1
 425 800 l 1
 425 340 l 1
 550 340 l 1
 550 260 l 1
 125 260 l 1
 125 800 l 1
EndSplineSet
EndChar

StartChar: dbluprightbxd
Encoding: 313 9562 313
Width: 550
Flags: HW
LayerCount: 4
Fore
SplineSet
125 800 m 1
 205 800 l 1
 205 230 l 1
 550 230 l 1
 550 150 l 1
 125 150 l 1
 125 800 l 1
345 800 m 1
 425 800 l 1
 425 450 l 1
 550 450 l 1
 550 370 l 1
 345 370 l 1
 345 800 l 1
EndSplineSet
EndChar

StartChar: upsngleftdblbxd
Encoding: 314 9563 314
Width: 550
Flags: HW
LayerCount: 4
Fore
SplineSet
0 370 m 1
 0 450 l 1
 235 450 l 1
 235 800 l 1
 315 800 l 1
 315 150 l 1
 0 150 l 1
 0 230 l 1
 235 230 l 1
 235 370 l 1
 0 370 l 1
EndSplineSet
EndChar

StartChar: updblleftsngbxd
Encoding: 315 9564 315
Width: 550
Flags: HW
LayerCount: 4
Fore
SplineSet
0 260 m 1
 0 340 l 1
 125 340 l 1
 125 800 l 1
 205 800 l 1
 205 340 l 1
 345 340 l 1
 345 800 l 1
 425 800 l 1
 425 260 l 1
 0 260 l 1
EndSplineSet
EndChar

StartChar: dblupleftbxd
Encoding: 316 9565 316
Width: 550
Flags: HW
LayerCount: 4
Fore
SplineSet
425 800 m 1
 425 150 l 1
 0 150 l 1
 0 230 l 1
 345 230 l 1
 345 800 l 1
 425 800 l 1
205 800 m 1
 205 370 l 1
 0 370 l 1
 0 450 l 1
 125 450 l 1
 125 800 l 1
 205 800 l 1
EndSplineSet
EndChar

StartChar: vertsngrightdblbxd
Encoding: 317 9566 317
Width: 550
Flags: HW
LayerCount: 4
Fore
SplineSet
550 230 m 1
 550 150 l 1
 315 150 l 1
 315 -200 l 1
 235 -200 l 1
 235 800 l 1
 315 800 l 1
 315 450 l 1
 550 450 l 1
 550 370 l 1
 315 370 l 1
 315 230 l 1
 550 230 l 1
EndSplineSet
EndChar

StartChar: vertdblrightsngbxd
Encoding: 318 9567 318
Width: 550
Flags: HW
LayerCount: 4
Fore
SplineSet
550 340 m 1
 550 260 l 1
 425 260 l 1
 425 -200 l 1
 345 -200 l 1
 345 800 l 1
 425 800 l 1
 425 340 l 1
 550 340 l 1
125 -200 m 1
 125 800 l 1
 205 800 l 1
 205 -200 l 1
 125 -200 l 1
EndSplineSet
EndChar

StartChar: dblvertrightbxd
Encoding: 319 9568 319
Width: 550
Flags: HW
LayerCount: 4
Fore
SplineSet
125 -200 m 1
 125 800 l 1
 205 800 l 1
 205 -200 l 1
 125 -200 l 1
345 -200 m 1
 345 230 l 1
 550 230 l 1
 550 150 l 1
 425 150 l 1
 425 -200 l 1
 345 -200 l 1
345 800 m 1
 425 800 l 1
 425 450 l 1
 550 450 l 1
 550 370 l 1
 345 370 l 1
 345 800 l 1
EndSplineSet
EndChar

StartChar: vertsngleftdblbxd
Encoding: 320 9569 320
Width: 550
Flags: HW
LayerCount: 4
Fore
SplineSet
315 -200 m 1
 235 -200 l 1
 235 150 l 1
 0 150 l 1
 0 230 l 1
 235 230 l 1
 235 370 l 1
 0 370 l 1
 0 450 l 1
 235 450 l 1
 235 800 l 1
 315 800 l 1
 315 -200 l 1
EndSplineSet
EndChar

StartChar: vertdblleftsngbxd
Encoding: 321 9570 321
Width: 550
Flags: HW
LayerCount: 4
Fore
SplineSet
425 -200 m 1
 425 800 l 1
 345 800 l 1
 345 -200 l 1
 425 -200 l 1
205 -200 m 1
 205 800 l 1
 125 800 l 1
 125 340 l 1
 0 340 l 1
 0 260 l 1
 125 260 l 1
 125 -200 l 1
 205 -200 l 1
EndSplineSet
EndChar

StartChar: dblvertleftbxd
Encoding: 322 9571 322
Width: 550
Flags: HW
LayerCount: 4
Fore
SplineSet
425 -200 m 1
 425 800 l 1
 345 800 l 1
 345 -200 l 1
 425 -200 l 1
205 -200 m 1
 205 230 l 1
 0 230 l 1
 0 150 l 1
 125 150 l 1
 125 -200 l 1
 205 -200 l 1
205 800 m 1
 205 370 l 1
 0 370 l 1
 0 450 l 1
 125 450 l 1
 125 800 l 1
 205 800 l 1
EndSplineSet
EndChar

StartChar: dnsnghorzdblbxd
Encoding: 323 9572 323
Width: 550
Flags: HW
LayerCount: 4
Fore
SplineSet
550 450 m 1
 550 370 l 1
 0 370 l 1
 0 450 l 1
 550 450 l 1
550 230 m 1
 550 150 l 1
 315 150 l 1
 315 -200 l 1
 235 -200 l 1
 235 150 l 1
 0 150 l 1
 0 230 l 1
 550 230 l 1
EndSplineSet
EndChar

StartChar: dndblhorzsngbxd
Encoding: 324 9573 324
Width: 550
Flags: HW
LayerCount: 4
Fore
SplineSet
550 340 m 1
 550 260 l 1
 425 260 l 1
 425 -200 l 1
 345 -200 l 1
 345 260 l 1
 205 260 l 1
 205 -200 l 1
 125 -200 l 1
 125 260 l 1
 0 260 l 1
 0 340 l 1
 550 340 l 1
EndSplineSet
EndChar

StartChar: dbldnhorzbxd
Encoding: 325 9574 325
Width: 550
Flags: HW
LayerCount: 4
Fore
SplineSet
345 -200 m 1
 345 230 l 1
 550 230 l 1
 550 150 l 1
 425 150 l 1
 425 -200 l 1
 345 -200 l 1
550 450 m 1
 550 370 l 1
 0 370 l 1
 0 450 l 1
 550 450 l 1
205 -200 m 1
 125 -200 l 1
 125 150 l 1
 0 150 l 1
 0 230 l 1
 205 230 l 1
 205 -200 l 1
EndSplineSet
EndChar

StartChar: upsnghorzdblbxd
Encoding: 326 9575 326
Width: 550
Flags: HW
LayerCount: 4
Fore
SplineSet
550 450 m 1
 550 370 l 1
 0 370 l 1
 0 450 l 1
 235 450 l 1
 235 800 l 1
 315 800 l 1
 315 450 l 1
 550 450 l 1
550 230 m 1
 550 150 l 1
 0 150 l 1
 0 230 l 1
 550 230 l 1
EndSplineSet
EndChar

StartChar: updblhorzsngbxd
Encoding: 327 9576 327
Width: 550
Flags: HW
LayerCount: 4
Fore
SplineSet
125 800 m 1
 205 800 l 1
 205 340 l 1
 345 340 l 1
 345 800 l 1
 425 800 l 1
 425 340 l 1
 550 340 l 1
 550 260 l 1
 0 260 l 1
 0 340 l 1
 125 340 l 1
 125 800 l 1
EndSplineSet
EndChar

StartChar: dbluphorzbxd
Encoding: 328 9577 328
Width: 550
Flags: HW
LayerCount: 4
Fore
SplineSet
345 800 m 1
 425 800 l 1
 425 450 l 1
 550 450 l 1
 550 370 l 1
 345 370 l 1
 345 800 l 1
550 150 m 1
 0 150 l 1
 0 230 l 1
 550 230 l 1
 550 150 l 1
205 800 m 1
 205 370 l 1
 0 370 l 1
 0 450 l 1
 125 450 l 1
 125 800 l 1
 205 800 l 1
EndSplineSet
EndChar

StartChar: vertsnghorzdblbxd
Encoding: 329 9578 329
Width: 550
Flags: HW
LayerCount: 4
Fore
SplineSet
550 450 m 1
 550 370 l 1
 315 370 l 1
 315 230 l 1
 550 230 l 1
 550 150 l 1
 315 150 l 1
 315 -200 l 1
 235 -200 l 1
 235 150 l 1
 0 150 l 1
 0 230 l 1
 235 230 l 1
 235 370 l 1
 0 370 l 1
 0 450 l 1
 235 450 l 1
 235 800 l 1
 315 800 l 1
 315 450 l 1
 550 450 l 1
EndSplineSet
EndChar

StartChar: vertdblhorzsngbxd
Encoding: 330 9579 330
Width: 550
Flags: HW
LayerCount: 4
Fore
SplineSet
550 340 m 1
 550 260 l 1
 425 260 l 1
 425 -200 l 1
 345 -200 l 1
 345 260 l 1
 205 260 l 1
 205 -200 l 1
 125 -200 l 1
 125 260 l 1
 0 260 l 1
 0 340 l 1
 125 340 l 1
 125 800 l 1
 205 800 l 1
 205 340 l 1
 345 340 l 1
 345 800 l 1
 425 800 l 1
 425 340 l 1
 550 340 l 1
EndSplineSet
EndChar

StartChar: dblverthorzbxd
Encoding: 331 9580 331
Width: 550
Flags: HW
LayerCount: 4
Fore
SplineSet
205 800 m 1
 205 370 l 1
 0 370 l 1
 0 450 l 1
 125 450 l 1
 125 800 l 1
 205 800 l 1
345 800 m 1
 425 800 l 1
 425 450 l 1
 550 450 l 1
 550 370 l 1
 345 370 l 1
 345 800 l 1
205 -200 m 1
 125 -200 l 1
 125 150 l 1
 0 150 l 1
 0 230 l 1
 205 230 l 1
 205 -200 l 1
345 -200 m 1
 345 230 l 1
 550 230 l 1
 550 150 l 1
 425 150 l 1
 425 -200 l 1
 345 -200 l 1
EndSplineSet
EndChar

StartChar: lightarcdnrightbxd
Encoding: 332 9581 332
Width: 550
Flags: HW
LayerCount: 4
Fore
SplineSet
392 340 m 5
 305 340 235 269 235 182 c 5
 235 -200 l 5
 315 -200 l 5
 315 182 l 5
 315 224 350 260 392 260 c 5
 550 260 l 13
 550 340 l 5
 392 340 l 5
EndSplineSet
EndChar

StartChar: lightarcdnleftbxd
Encoding: 333 9582 333
Width: 550
Flags: HW
LayerCount: 4
Fore
SplineSet
148 340 m 5
 235 340 305 269 305 182 c 5
 305 -200 l 5
 225 -200 l 5
 225 182 l 5
 225 224 190 260 148 260 c 5
 -10 260 l 13
 -10 340 l 5
 148 340 l 5
EndSplineSet
EndChar

StartChar: lightarcupleftbxd
Encoding: 334 9583 334
Width: 550
Flags: HW
LayerCount: 4
Fore
SplineSet
158 260 m 5
 245 260 315 331 315 418 c 5
 315 800 l 5
 235 800 l 5
 235 418 l 5
 235 376 200 340 158 340 c 5
 0 340 l 13
 0 260 l 5
 158 260 l 5
EndSplineSet
EndChar

StartChar: lightarcuprightbxd
Encoding: 335 9584 335
Width: 550
Flags: HW
LayerCount: 4
Fore
SplineSet
392 260 m 1
 305 260 235 331 235 418 c 1
 235 800 l 1
 315 800 l 1
 315 418 l 1
 315 376 350 340 392 340 c 1
 550 340 l 9
 550 260 l 1
 392 260 l 1
EndSplineSet
EndChar

StartChar: lightdiaguprightdnleftbxd
Encoding: 336 9585 336
Width: 550
Flags: HW
LayerCount: 4
Fore
SplineSet
-50 -200 m 29
 505 800 l 29
 600 800 l 29
 45 -200 l 29
 -50 -200 l 29
EndSplineSet
EndChar

StartChar: lightdiagupleftdnrightbxd
Encoding: 337 9586 337
Width: 550
Flags: HW
LayerCount: 4
Fore
SplineSet
600 -200 m 29
 45 800 l 29
 -50 800 l 29
 505 -200 l 29
 600 -200 l 29
EndSplineSet
EndChar

StartChar: lightdiagcrossbxd
Encoding: 338 9587 338
Width: 550
Flags: HW
LayerCount: 4
Fore
SplineSet
600 -200 m 1
 505 -200 l 1
 275 214.414414414 l 1
 45 -200 l 1
 -50 -200 l 1
 227.5 300 l 1
 -50 800 l 1
 45 800 l 1
 275 385.585585586 l 1
 505 800 l 1
 600 800 l 1
 322.5 300 l 1
 600 -200 l 1
EndSplineSet
EndChar

StartChar: lightleftbxd
Encoding: 339 9588 339
Width: 550
Flags: HW
LayerCount: 4
Fore
SplineSet
205 340 m 25
 0 340 l 25
 0 260 l 25
 205 260 l 25
 205 340 l 25
EndSplineSet
EndChar

StartChar: lightupbxd
Encoding: 340 9589 340
Width: 550
Flags: HW
LayerCount: 4
Fore
SplineSet
315 800 m 25
 315 340 l 25
 235 340 l 25
 235 800 l 25
 315 800 l 25
EndSplineSet
EndChar

StartChar: lightrightbxd
Encoding: 341 9590 341
Width: 550
Flags: HW
LayerCount: 4
Fore
SplineSet
345 340 m 25
 550 340 l 25
 550 260 l 25
 345 260 l 25
 345 340 l 25
EndSplineSet
EndChar

StartChar: lightdnbxd
Encoding: 342 9591 342
Width: 550
Flags: HW
LayerCount: 4
Fore
SplineSet
315 -200 m 25
 315 260 l 25
 235 260 l 25
 235 -200 l 25
 315 -200 l 25
EndSplineSet
EndChar

StartChar: heavyleftbxd
Encoding: 343 9592 343
Width: 550
Flags: HW
LayerCount: 4
Fore
SplineSet
345 370 m 25
 345 230 l 25
 0 230 l 25
 0 370 l 25
 345 370 l 25
EndSplineSet
EndChar

StartChar: heavyupbxd
Encoding: 344 9593 344
Width: 550
Flags: HW
LayerCount: 4
Fore
SplineSet
345 260 m 25
 345 800 l 25
 205 800 l 25
 205 260 l 25
 345 260 l 25
EndSplineSet
EndChar

StartChar: heavyrightbxd
Encoding: 345 9594 345
Width: 550
Flags: HW
LayerCount: 4
Fore
SplineSet
205 370 m 25
 205 230 l 25
 550 230 l 25
 550 370 l 25
 205 370 l 25
EndSplineSet
EndChar

StartChar: heavydnbxd
Encoding: 346 9595 346
Width: 550
Flags: HW
LayerCount: 4
Fore
SplineSet
345 340 m 25
 345 -200 l 25
 205 -200 l 25
 205 340 l 25
 345 340 l 25
EndSplineSet
EndChar

StartChar: lightleftheavyrightbxd
Encoding: 347 9596 347
Width: 550
Flags: HW
LayerCount: 4
Fore
SplineSet
205 370 m 1
 550 370 l 1
 550 230 l 1
 205 230 l 1
 205 260 l 1
 0 260 l 1
 0 340 l 1
 205 340 l 1
 205 370 l 1
EndSplineSet
EndChar

StartChar: lightupheavydnbxd
Encoding: 348 9597 348
Width: 550
Flags: HW
LayerCount: 4
Fore
SplineSet
345 340 m 1
 345 -200 l 1
 205 -200 l 1
 205 340 l 1
 235 340 l 1
 235 800 l 1
 315 800 l 1
 315 340 l 1
 345 340 l 1
EndSplineSet
EndChar

StartChar: heavyleftlightrightbxd
Encoding: 349 9598 349
Width: 550
Flags: HW
LayerCount: 4
Fore
SplineSet
345 260 m 1
 345 230 l 1
 0 230 l 1
 0 370 l 1
 345 370 l 1
 345 340 l 1
 550 340 l 1
 550 260 l 1
 345 260 l 1
EndSplineSet
EndChar

StartChar: heavyuplightdnbxd
Encoding: 350 9599 350
Width: 550
Flags: HW
LayerCount: 4
Fore
SplineSet
315 -200 m 1
 235 -200 l 1
 235 260 l 1
 205 260 l 1
 205 800 l 1
 345 800 l 1
 345 260 l 1
 315 260 l 1
 315 -200 l 1
EndSplineSet
EndChar

StartChar: uphalfblock
Encoding: 351 9600 351
Width: 550
VWidth: 650
Flags: HW
LayerCount: 4
Fore
SplineSet
550 300 m 5
 0 300 l 5
 0 800 l 5
 550 800 l 5
 550 300 l 5
EndSplineSet
EndChar

StartChar: dneighthblock
Encoding: 352 9601 352
Width: 550
VWidth: 387
Flags: HW
LayerCount: 4
Fore
SplineSet
550 -200 m 5
 0 -200 l 5
 0 -76 l 5
 550 -76 l 5
 550 -200 l 5
EndSplineSet
EndChar

StartChar: dnquarterblock
Encoding: 353 9602 353
Width: 550
VWidth: 475
Flags: HW
LayerCount: 4
Fore
SplineSet
550 -200 m 5
 0 -200 l 5
 0 50 l 5
 550 50 l 5
 550 -200 l 5
EndSplineSet
EndChar

StartChar: dnthreeeighthsblock
Encoding: 354 9603 354
Width: 550
VWidth: 562
Flags: HW
LayerCount: 4
Fore
SplineSet
550 -200 m 5
 0 -200 l 5
 0 176 l 5
 550 176 l 5
 550 -200 l 5
EndSplineSet
EndChar

StartChar: dnhalfblock
Encoding: 355 9604 355
Width: 550
VWidth: 650
Flags: HW
LayerCount: 4
Fore
SplineSet
550 -200 m 1
 0 -200 l 1
 0 300 l 1
 550 300 l 1
 550 -200 l 1
EndSplineSet
EndChar

StartChar: dnfiveeighthsblock
Encoding: 356 9605 356
Width: 550
VWidth: 737
Flags: HW
LayerCount: 4
Fore
SplineSet
550 -200 m 5
 0 -200 l 5
 0 424 l 5
 550 424 l 5
 550 -200 l 5
EndSplineSet
EndChar

StartChar: dnthreequartersblock
Encoding: 357 9606 357
Width: 550
VWidth: 825
Flags: HW
LayerCount: 4
Fore
SplineSet
550 -200 m 1
 0 -200 l 1
 0 550 l 1
 550 550 l 1
 550 -200 l 1
EndSplineSet
EndChar

StartChar: dnseveneighthsblock
Encoding: 358 9607 358
Width: 550
VWidth: 912
Flags: HW
LayerCount: 4
Fore
SplineSet
550 -200 m 5
 0 -200 l 5
 0 676 l 5
 550 676 l 5
 550 -200 l 5
EndSplineSet
EndChar

StartChar: fullblock
Encoding: 359 9608 359
Width: 550
Flags: HW
LayerCount: 4
Fore
SplineSet
550 -200 m 5
 0 -200 l 5
 0 800 l 5
 550 800 l 5
 550 -200 l 5
EndSplineSet
EndChar

StartChar: leftseveneighthsblock
Encoding: 360 9609 360
Width: 546
Flags: HW
LayerCount: 4
Fore
SplineSet
481 -200 m 1
 0 -200 l 1
 0 800 l 1
 481 800 l 1
 481 -200 l 1
EndSplineSet
EndChar

StartChar: leftthreequartersblock
Encoding: 361 9610 361
Width: 550
Flags: HW
LayerCount: 4
Fore
SplineSet
412 -200 m 1
 0 -200 l 1
 0 800 l 1
 412 800 l 1
 412 -200 l 1
EndSplineSet
EndChar

StartChar: leftfiveeighthsblock
Encoding: 362 9611 362
Width: 550
Flags: HW
LayerCount: 4
Fore
SplineSet
344 -200 m 1
 0 -200 l 1
 0 800 l 1
 344 800 l 1
 344 -200 l 1
EndSplineSet
EndChar

StartChar: lefthalfblock
Encoding: 363 9612 363
Width: 550
Flags: HW
LayerCount: 4
Fore
SplineSet
275 -200 m 5
 0 -200 l 5
 0 800 l 5
 275 800 l 5
 275 -200 l 5
EndSplineSet
EndChar

StartChar: leftthreeeighthsblock
Encoding: 364 9613 364
Width: 550
Flags: HW
LayerCount: 4
Fore
SplineSet
206 -200 m 5
 0 -200 l 5
 0 800 l 5
 206 800 l 5
 206 -200 l 5
EndSplineSet
EndChar

StartChar: leftquarterblock
Encoding: 365 9614 365
Width: 550
Flags: HW
LayerCount: 4
Fore
SplineSet
138 -200 m 5
 0 -200 l 5
 0 800 l 5
 138 800 l 5
 138 -200 l 5
EndSplineSet
EndChar

StartChar: lefteighthblock
Encoding: 366 9615 366
Width: 550
Flags: HW
LayerCount: 4
Fore
SplineSet
68 -200 m 5
 0 -200 l 5
 0 800 l 5
 68 800 l 5
 68 -200 l 5
EndSplineSet
EndChar

StartChar: righthalfblock
Encoding: 367 9616 367
Width: 550
Flags: HW
LayerCount: 4
Fore
SplineSet
550 -200 m 5
 276 -200 l 5
 276 800 l 5
 550 800 l 5
 550 -200 l 5
EndSplineSet
EndChar

StartChar: lightshade
Encoding: 368 9617 368
Width: 550
Flags: HW
LayerCount: 4
Back
SplineSet
110 650 m 5
 55 650 l 5
 55 800 l 5
 110 800 l 5
 110 650 l 5
EndSplineSet
Fore
SplineSet
495 -100 m 1
 440 -100 l 1
 440 0 l 1
 495 0 l 1
 495 -100 l 1
385 -100 m 1
 330 -100 l 1
 330 0 l 1
 385 0 l 1
 385 -100 l 1
275 -100 m 1
 220 -100 l 1
 220 0 l 1
 275 0 l 1
 275 -100 l 1
165 -100 m 1
 110 -100 l 1
 110 0 l 1
 165 0 l 1
 165 -100 l 1
55 -100 m 1
 0 -100 l 1
 0 0 l 1
 55 0 l 1
 55 -100 l 1
495 100 m 1
 440 100 l 1
 440 200 l 1
 495 200 l 1
 495 100 l 1
385 100 m 1
 330 100 l 1
 330 200 l 1
 385 200 l 1
 385 100 l 1
275 100 m 1
 220 100 l 1
 220 200 l 1
 275 200 l 1
 275 100 l 1
165 100 m 1
 110 100 l 1
 110 200 l 1
 165 200 l 1
 165 100 l 1
55 100 m 1
 0 100 l 1
 0 200 l 1
 55 200 l 1
 55 100 l 1
495 300 m 1
 440 300 l 1
 440 400 l 1
 495 400 l 1
 495 300 l 1
385 300 m 1
 330 300 l 1
 330 400 l 1
 385 400 l 1
 385 300 l 1
275 300 m 1
 220 300 l 1
 220 400 l 1
 275 400 l 1
 275 300 l 1
165 300 m 1
 110 300 l 1
 110 400 l 1
 165 400 l 1
 165 300 l 1
55 300 m 1
 0 300 l 1
 0 400 l 1
 55 400 l 1
 55 300 l 1
495 500 m 1
 440 500 l 1
 440 600 l 1
 495 600 l 1
 495 500 l 1
385 500 m 1
 330 500 l 1
 330 600 l 1
 385 600 l 1
 385 500 l 1
275 500 m 1
 220 500 l 1
 220 600 l 1
 275 600 l 1
 275 500 l 1
165 500 m 1
 110 500 l 1
 110 600 l 1
 165 600 l 1
 165 500 l 1
55 500 m 1
 0 500 l 1
 0 600 l 1
 55 600 l 1
 55 500 l 1
495 700 m 1
 440 700 l 1
 440 800 l 1
 495 800 l 1
 495 700 l 1
385 700 m 1
 330 700 l 1
 330 800 l 1
 385 800 l 1
 385 700 l 1
275 700 m 1
 220 700 l 1
 220 800 l 1
 275 800 l 1
 275 700 l 1
165 700 m 1
 110 700 l 1
 110 800 l 1
 165 800 l 1
 165 700 l 1
55 700 m 1
 0 700 l 1
 0 800 l 1
 55 800 l 1
 55 700 l 1
EndSplineSet
EndChar

StartChar: mediumshade
Encoding: 369 9618 369
Width: 550
Flags: HW
LayerCount: 4
Fore
SplineSet
550 -200 m 5
 495 -200 l 5
 495 -100 l 5
 550 -100 l 5
 550 -200 l 5
440 -200 m 5
 385 -200 l 5
 385 -100 l 5
 440 -100 l 5
 440 -200 l 5
330 -200 m 5
 275 -200 l 5
 275 -100 l 5
 330 -100 l 5
 330 -200 l 5
220 -200 m 5
 165 -200 l 5
 165 -100 l 5
 220 -100 l 5
 220 -200 l 5
110 -200 m 5
 55 -200 l 5
 55 -100 l 5
 110 -100 l 5
 110 -200 l 5
550 0 m 5
 495 0 l 5
 495 100 l 5
 550 100 l 5
 550 0 l 5
440 0 m 5
 385 0 l 5
 385 100 l 5
 440 100 l 5
 440 0 l 5
330 0 m 5
 275 0 l 5
 275 100 l 5
 330 100 l 5
 330 0 l 5
220 0 m 5
 165 0 l 5
 165 100 l 5
 220 100 l 5
 220 0 l 5
110 0 m 5
 55 0 l 5
 55 100 l 5
 110 100 l 5
 110 0 l 5
550 200 m 5
 495 200 l 5
 495 300 l 5
 550 300 l 5
 550 200 l 5
440 200 m 5
 385 200 l 5
 385 300 l 5
 440 300 l 5
 440 200 l 5
330 200 m 5
 275 200 l 5
 275 300 l 5
 330 300 l 5
 330 200 l 5
220 200 m 5
 165 200 l 5
 165 300 l 5
 220 300 l 5
 220 200 l 5
110 200 m 5
 55 200 l 5
 55 300 l 5
 110 300 l 5
 110 200 l 5
550 400 m 5
 495 400 l 5
 495 500 l 5
 550 500 l 5
 550 400 l 5
440 400 m 5
 385 400 l 5
 385 500 l 5
 440 500 l 5
 440 400 l 5
330 400 m 5
 275 400 l 5
 275 500 l 5
 330 500 l 5
 330 400 l 5
220 400 m 5
 165 400 l 5
 165 500 l 5
 220 500 l 5
 220 400 l 5
110 400 m 5
 55 400 l 5
 55 500 l 5
 110 500 l 5
 110 400 l 5
550 600 m 5
 495 600 l 5
 495 700 l 5
 550 700 l 5
 550 600 l 5
440 600 m 5
 385 600 l 5
 385 700 l 5
 440 700 l 5
 440 600 l 5
330 600 m 5
 275 600 l 5
 275 700 l 5
 330 700 l 5
 330 600 l 5
220 600 m 5
 165 600 l 5
 165 700 l 5
 220 700 l 5
 220 600 l 5
110 600 m 5
 55 600 l 5
 55 700 l 5
 110 700 l 5
 110 600 l 5
495 -100 m 5
 440 -100 l 5
 440 0 l 5
 495 0 l 5
 495 -100 l 5
385 -100 m 5
 330 -100 l 5
 330 0 l 5
 385 0 l 5
 385 -100 l 5
275 -100 m 5
 220 -100 l 5
 220 0 l 5
 275 0 l 5
 275 -100 l 5
165 -100 m 5
 110 -100 l 5
 110 0 l 5
 165 0 l 5
 165 -100 l 5
55 -100 m 5
 0 -100 l 5
 0 0 l 5
 55 0 l 5
 55 -100 l 5
495 100 m 5
 440 100 l 5
 440 200 l 5
 495 200 l 5
 495 100 l 5
385 100 m 5
 330 100 l 5
 330 200 l 5
 385 200 l 5
 385 100 l 5
275 100 m 5
 220 100 l 5
 220 200 l 5
 275 200 l 5
 275 100 l 5
165 100 m 5
 110 100 l 5
 110 200 l 5
 165 200 l 5
 165 100 l 5
55 100 m 5
 0 100 l 5
 0 200 l 5
 55 200 l 5
 55 100 l 5
495 300 m 5
 440 300 l 5
 440 400 l 5
 495 400 l 5
 495 300 l 5
385 300 m 5
 330 300 l 5
 330 400 l 5
 385 400 l 5
 385 300 l 5
275 300 m 5
 220 300 l 5
 220 400 l 5
 275 400 l 5
 275 300 l 5
165 300 m 5
 110 300 l 5
 110 400 l 5
 165 400 l 5
 165 300 l 5
55 300 m 5
 0 300 l 5
 0 400 l 5
 55 400 l 5
 55 300 l 5
495 500 m 5
 440 500 l 5
 440 600 l 5
 495 600 l 5
 495 500 l 5
385 500 m 5
 330 500 l 5
 330 600 l 5
 385 600 l 5
 385 500 l 5
275 500 m 5
 220 500 l 5
 220 600 l 5
 275 600 l 5
 275 500 l 5
165 500 m 5
 110 500 l 5
 110 600 l 5
 165 600 l 5
 165 500 l 5
55 500 m 5
 0 500 l 5
 0 600 l 5
 55 600 l 5
 55 500 l 5
495 700 m 5
 440 700 l 5
 440 800 l 5
 495 800 l 5
 495 700 l 5
385 700 m 5
 330 700 l 5
 330 800 l 5
 385 800 l 5
 385 700 l 5
275 700 m 5
 220 700 l 5
 220 800 l 5
 275 800 l 5
 275 700 l 5
165 700 m 5
 110 700 l 5
 110 800 l 5
 165 800 l 5
 165 700 l 5
55 700 m 5
 0 700 l 5
 0 800 l 5
 55 800 l 5
 55 700 l 5
EndSplineSet
EndChar

StartChar: darkshade
Encoding: 370 9619 370
Width: 550
Flags: HW
LayerCount: 4
Fore
SplineSet
440 800 m 1
 495 800 l 1
 495 700 l 5
 550 700 l 5
 550 600 l 1
 495 600 l 1
 495 500 l 1
 550 500 l 1
 550 400 l 1
 495 400 l 1
 495 300 l 1
 550 300 l 1
 550 200 l 1
 495 200 l 1
 495 100 l 1
 550 100 l 1
 550 0 l 1
 495 0 l 1
 495 -100 l 1
 550 -100 l 1
 550 -200 l 1
 0 -200 l 1
 0 800 l 1
 55 800 l 1
 55 700 l 5
 110 700 l 5
 110 800 l 1
 165 800 l 1
 165 700 l 5
 220 700 l 5
 220 800 l 1
 275 800 l 1
 275 700 l 5
 330 700 l 5
 330 800 l 1
 385 800 l 1
 385 700 l 5
 440 700 l 5
 440 800 l 1
55 -100 m 1
 110 -100 l 1
 110 0 l 1
 55 0 l 1
 55 -100 l 1
55 100 m 1
 110 100 l 1
 110 200 l 1
 55 200 l 1
 55 100 l 1
55 300 m 1
 110 300 l 1
 110 400 l 1
 55 400 l 1
 55 300 l 1
55 500 m 1
 110 500 l 1
 110 600 l 1
 55 600 l 1
 55 500 l 1
440 500 m 1
 440 600 l 1
 385 600 l 1
 385 500 l 1
 440 500 l 1
330 500 m 1
 330 600 l 1
 275 600 l 1
 275 500 l 1
 330 500 l 1
220 500 m 1
 220 600 l 1
 165 600 l 1
 165 500 l 1
 220 500 l 1
440 300 m 1
 440 400 l 1
 385 400 l 1
 385 300 l 1
 440 300 l 1
330 300 m 1
 330 400 l 1
 275 400 l 1
 275 300 l 1
 330 300 l 1
220 300 m 1
 220 400 l 1
 165 400 l 1
 165 300 l 1
 220 300 l 1
440 100 m 1
 440 200 l 1
 385 200 l 1
 385 100 l 1
 440 100 l 1
330 100 m 1
 330 200 l 1
 275 200 l 1
 275 100 l 1
 330 100 l 1
220 100 m 1
 220 200 l 1
 165 200 l 1
 165 100 l 1
 220 100 l 1
440 -100 m 1
 440 0 l 1
 385 0 l 1
 385 -100 l 1
 440 -100 l 1
330 -100 m 1
 330 0 l 1
 275 0 l 1
 275 -100 l 1
 330 -100 l 1
220 -100 m 1
 220 0 l 1
 165 0 l 1
 165 -100 l 1
 220 -100 l 1
EndSplineSet
EndChar

StartChar: upeighthblock
Encoding: 371 9620 371
Width: 550
VWidth: 387
Flags: HW
LayerCount: 4
Fore
SplineSet
550 676 m 5
 0 676 l 5
 0 800 l 5
 550 800 l 5
 550 676 l 5
EndSplineSet
EndChar

StartChar: righteighthblock
Encoding: 372 9621 372
Width: 550
Flags: HW
LayerCount: 4
Fore
SplineSet
550 -200 m 1
 482 -200 l 1
 482 800 l 1
 550 800 l 1
 550 -200 l 1
EndSplineSet
EndChar

StartChar: dnleftquadrant
Encoding: 373 9622 373
Width: 550
Flags: HW
LayerCount: 4
Fore
SplineSet
550 300 m 1
 275 300 l 1
 275 -200 l 1
 550 -200 l 1
 550 300 l 1
EndSplineSet
EndChar

StartChar: dnrightquadrant
Encoding: 374 9623 374
Width: 550
Flags: HW
LayerCount: 4
Fore
SplineSet
275 300 m 1
 0 300 l 1
 0 -200 l 1
 275 -200 l 1
 275 300 l 1
EndSplineSet
EndChar

StartChar: upleftquadrant
Encoding: 375 9624 375
Width: 550
Flags: HW
LayerCount: 4
Fore
SplineSet
0 300 m 1
 275 300 l 1
 275 801 l 1
 0 800 l 1
 0 300 l 1
EndSplineSet
EndChar

StartChar: upleftdnleftdnrightquadrant
Encoding: 376 9625 376
Width: 550
Flags: HW
LayerCount: 4
Fore
SplineSet
275 800 m 5
 0 800 l 5
 0 -200 l 5
 550 -201 l 5
 550 300 l 5
 275 300 l 5
 275 800 l 5
EndSplineSet
EndChar

StartChar: upleftdnrightquadrant
Encoding: 377 9626 377
Width: 550
Flags: HW
LayerCount: 4
Fore
SplineSet
275 300 m 5
 550 300 l 5
 550 -201 l 5
 275 -200 l 5
 275 300 l 5
275 300 m 5
 0 300 l 5
 0 800 l 5
 275 800 l 5
 275 300 l 5
EndSplineSet
EndChar

StartChar: upleftuprightdnleftquadrant
Encoding: 378 9627 378
Width: 550
Flags: HW
LayerCount: 4
Fore
SplineSet
275 -200 m 5
 0 -200 l 5
 0 800 l 5
 550 801 l 5
 550 300 l 5
 275 300 l 5
 275 -200 l 5
EndSplineSet
EndChar

StartChar: upleftuprightdnrightquadrant
Encoding: 379 9628 379
Width: 550
Flags: HW
LayerCount: 4
Fore
SplineSet
275 -200 m 5
 550 -200 l 5
 550 800 l 5
 0 801 l 5
 0 300 l 5
 275 300 l 5
 275 -200 l 5
EndSplineSet
EndChar

StartChar: uprightquadrant
Encoding: 380 9629 380
Width: 550
Flags: HW
LayerCount: 4
Fore
SplineSet
275 300 m 1
 550 300 l 1
 550 801 l 1
 275 800 l 1
 275 300 l 1
EndSplineSet
EndChar

StartChar: uprightdnleftquadrant
Encoding: 381 9630 381
Width: 550
Flags: HW
LayerCount: 4
Fore
SplineSet
275 300 m 5
 550 300 l 5
 550 801 l 5
 275 800 l 5
 275 300 l 5
275 300 m 5
 0 300 l 5
 0 -200 l 5
 275 -200 l 5
 275 300 l 5
EndSplineSet
EndChar

StartChar: uprightdnleftdnrightquadrant
Encoding: 382 9631 382
Width: 550
Flags: HW
LayerCount: 4
Fore
SplineSet
275 800 m 5
 550 800 l 5
 550 -200 l 5
 0 -201 l 5
 0 300 l 5
 275 300 l 5
 275 800 l 5
EndSplineSet
EndChar

StartChar: blacksquare
Encoding: 383 9632 383
Width: 550
VWidth: 650
Flags: HW
LayerCount: 4
Fore
SplineSet
468 110 m 5
 82 110 l 5
 82 496 l 5
 468 496 l 5
 468 110 l 5
EndSplineSet
EndChar

StartChar: H22073
Encoding: 384 9633 384
Width: 550
VWidth: 650
Flags: HW
LayerCount: 4
Fore
SplineSet
468 110 m 5
 82 110 l 5
 82 496 l 5
 468 496 l 5
 468 110 l 5
400 178 m 5
 400 428 l 5
 150 428 l 5
 150 178 l 5
 400 178 l 5
EndSplineSet
EndChar

StartChar: blacksmallsquare
Encoding: 385 9642 385
Width: 550
VWidth: 650
Flags: HW
LayerCount: 4
Fore
SplineSet
410 168 m 1
 140 168 l 1
 140 438 l 1
 410 438 l 1
 410 168 l 1
EndSplineSet
EndChar

StartChar: whitesmallsquare
Encoding: 386 9643 386
Width: 550
VWidth: 650
Flags: HW
LayerCount: 4
Fore
SplineSet
410 168 m 1
 140 168 l 1
 140 438 l 1
 410 438 l 1
 410 168 l 1
363 215 m 5
 363 391 l 5
 187 391 l 5
 187 215 l 5
 363 215 l 5
EndSplineSet
EndChar

StartChar: triagup
Encoding: 387 9650 387
Width: 550
Flags: HW
LayerCount: 4
Fore
SplineSet
550 -200 m 21
 0 -200 l 5
 275 800 l 13
 550 -200 l 21
EndSplineSet
EndChar

StartChar: blackrightpointingpointer
Encoding: 388 9658 388
Width: 550
Flags: HW
LayerCount: 4
Fore
SplineSet
0 -200 m 21
 0 800 l 5
 550 300 l 13
 0 -200 l 21
EndSplineSet
EndChar

StartChar: blackdownpointingtriangle
Encoding: 389 9660 389
Width: 550
Flags: HW
LayerCount: 4
Fore
SplineSet
550 800 m 21
 0 800 l 5
 275 -200 l 13
 550 800 l 21
EndSplineSet
EndChar

StartChar: triaglf
Encoding: 390 9668 390
Width: 550
Flags: HW
LayerCount: 4
Fore
SplineSet
550 -200 m 17
 550 800 l 1
 0 300 l 9
 550 -200 l 17
EndSplineSet
EndChar

StartChar: lozenge
Encoding: 391 9674 391
Width: 550
Flags: HW
LayerCount: 4
Fore
SplineSet
82 300 m 5
 275 -50 l 5
 468 300 l 5
 275 650 l 5
 82 300 l 5
0 300 m 1
 275 800 l 1
 550 300 l 1
 275 -200 l 1
 0 300 l 1
EndSplineSet
EndChar

StartChar: circle
Encoding: 392 9675 392
Width: 550
VWidth: 650
Flags: HW
LayerCount: 4
Fore
SplineSet
140 303 m 4
 140 228 200 168 275 168 c 4
 350 168 410 228 410 303 c 4
 410 378 350 438 275 438 c 4
 200 438 140 378 140 303 c 4
82 303 m 0
 82 410 168 496 275 496 c 0
 382 496 468 410 468 303 c 0
 468 196 382 110 275 110 c 0
 168 110 82 196 82 303 c 0
EndSplineSet
EndChar

StartChar: H18533
Encoding: 393 9679 393
Width: 550
VWidth: 650
Flags: HW
LayerCount: 4
Fore
SplineSet
82 303 m 0
 82 410 168 496 275 496 c 0
 382 496 468 410 468 303 c 0
 468 196 382 110 275 110 c 0
 168 110 82 196 82 303 c 0
EndSplineSet
EndChar

StartChar: whitebullet
Encoding: 394 9702 394
Width: 550
VWidth: 1080
Flags: HW
HStem: 240 198<198.273 351.727>
VStem: 166 218<272.861 405.139>
LayerCount: 4
Fore
SplineSet
199.200195312 339.299804688 m 4
 199.200195312 293.799804688 225.799804688 270 275.5 270 c 4
 325.200195312 270 352 293 352 339 c 4
 352 385 325 409 275 409 c 4
 225 409 199.200195312 384.799804688 199.200195312 339.299804688 c 4
166 339 m 0
 166 404 204 438 275 438 c 0
 346 438 384 404 384 339 c 0
 384 274 346 240 275 240 c 0
 204 240 166 274 166 339 c 0
EndSplineSet
EndChar

StartChar: uniE0B0
Encoding: 417 57520 417
Width: 550
Flags: HW
LayerCount: 4
Fore
SplineSet
82 -200 m 1
 0 -200 l 1
 0 800 l 5
 82 800 l 1
 468 300 l 1
 82 -200 l 1
EndSplineSet
EndChar

StartChar: uniE0B1
Encoding: 418 57521 418
Width: 550
Flags: HW
LayerCount: 4
Fore
SplineSet
-50 800 m 5
 82 800 l 5
 468 300 l 5
 82 -200 l 5
 -50 -200 l 5
 336 300 l 5
 -50 800 l 5
EndSplineSet
EndChar

StartChar: uniE0B2
Encoding: 419 57522 419
Width: 550
Flags: HW
LayerCount: 4
Fore
SplineSet
550 800 m 1
 550 -200 l 1
 468 -200 l 1
 82 300 l 1
 468 800 l 1
 550 800 l 1
EndSplineSet
EndChar

StartChar: uniE0B3
Encoding: 420 57523 420
Width: 550
Flags: HW
LayerCount: 4
Fore
SplineSet
600 800 m 5
 468 800 l 5
 82 300 l 5
 468 -200 l 5
 600 -200 l 5
 214 300 l 5
 600 800 l 5
EndSplineSet
EndChar

StartChar: zero.sinf
Encoding: 433 8320 433
Width: 550
VWidth: 683
Flags: HW
LayerCount: 4
Fore
SplineSet
316 365 m 5
 305 383 291 391 275 391 c 4
 232 391 208 327 208 207 c 4
 208 185 208 166 209 150 c 5
 316 365 l 5
341 292 m 5
 234 77 l 5
 245 59 258 49 275 49 c 4
 318 49 343 114 343 234 c 4
 343 259 342 278 341 292 c 5
275 439 m 4
 354 439 391 374 391 234 c 4
 391 82 352 3 275 3 c 4
 196 3 159 67 159 207 c 4
 159 359 199 439 275 439 c 4
EndSplineSet
EndChar

StartChar: one.sinf
Encoding: 434 8321 434
Width: 550
VWidth: 498
Flags: HW
LayerCount: 4
Fore
SplineSet
300 48 m 1
 300 440 l 1
 252 440 l 1
 172 356 l 1
 172 284 l 1
 252 368 l 1
 252 48 l 1
 174 48 l 1
 174 0 l 1
 378 0 l 1
 378 48 l 1
 300 48 l 1
252 48 m 1025
300 48 m 1025
EndSplineSet
EndChar

StartChar: two.sinf
Encoding: 435 8322 435
Width: 550
VWidth: 498
Flags: HW
LayerCount: 4
Fore
SplineSet
336 329 m 20
 336 363 311 392 275 392 c 4
 239 392 214 363 214 329 c 14
 214 303 l 29
 159 303 l 29
 159 336 l 22
 159 391 214 440 275 440 c 4
 336 440 391 390 391 336 c 12
 391 316 388 304 377 287 c 30
 221 48 l 21
 391 48 l 5
 391 0 l 5
 159 0 l 5
 160 48 l 13
 322 293 l 22
 327 300 336 315 336 329 c 20
EndSplineSet
EndChar

StartChar: three.sinf
Encoding: 436 8323 436
Width: 550
VWidth: 499
Flags: HW
LayerCount: 4
Fore
SplineSet
276 245 m 22
 313 245 343 270 343 301 c 6
 343 329 l 6
 343 363 312 391 276 391 c 4
 240 391 209 363 209 329 c 6
 209 325 l 13
 160 325 l 21
 160 336 l 6
 160 391 215 439 275 439 c 4
 337 439 391 391 391 336 c 6
 391 301 l 6
 391 270 373 240 347 221 c 5
 373 202 391 173 391 142 c 6
 391 106 l 6
 391 51 337 3 275 3 c 4
 214 3 160 51 160 106 c 6
 160 109 l 13
 209 109 l 21
 209 106 l 6
 209 75 239 51 276 51 c 4
 313 51 343 75 343 106 c 6
 343 135 l 6
 343 169 312 197 276 197 c 14
 234 197 l 29
 234 245 l 29
 276 245 l 22
EndSplineSet
EndChar

StartChar: four.sinf
Encoding: 437 8324 437
Width: 550
VWidth: 498
Flags: HW
LayerCount: 4
Fore
SplineSet
335 0 m 17
 335 440 l 1
 287 440 l 1
 159 164 l 1
 159 116 l 1
 391 116 l 1
 391 164 l 1
 209 164 l 1
 287 336 l 1
 287 0 l 9
 335 0 l 17
EndSplineSet
EndChar

StartChar: five.sinf
Encoding: 438 8325 438
Width: 550
VWidth: 498
Flags: HW
LayerCount: 4
Fore
SplineSet
159 87 m 1025
160 222 m 17
 293 222 l 2
 325 222 342 203 342 166 c 2
 342 105 l 2
 342 74 312 48 275 48 c 0
 238 48 208 74 208 105 c 1
 159 105 l 1
 159 50 214 0 275 0 c 4
 336 0 390 50 390 105 c 2
 391 173 l 2
 391 231 352 270 294 270 c 2
 208 270 l 9
 207 392 l 25
 390 392 l 25
 390 440 l 25
 159 440 l 25
 160 222 l 17
EndSplineSet
EndChar

StartChar: six.sinf
Encoding: 439 8326 439
Width: 550
VWidth: 498
Flags: HW
LayerCount: 4
Fore
SplineSet
159 105 m 2
 159 50 215 1 276 1 c 0
 337 1 391 50 391 105 c 2
 391 155 l 2
 391 209 337 259 276 259 c 0
 253 259 228 250 208 237 c 1
 208 328 l 2
 208 362 239 391 275 391 c 0
 311 391 342 362 342 328 c 2
 342 322 l 1
 391 322 l 1
 391 335 l 2
 391 389 337 439 276 439 c 0
 215 439 159 389 159 335 c 2
 159 105 l 2
208 105 m 2
 208 148 l 2
 208 182 239 211 275 211 c 0
 311 211 342 182 342 148 c 2
 342 105 l 2
 342 74 312 49 275 49 c 0
 238 49 208 74 208 105 c 2
EndSplineSet
EndChar

StartChar: seven.sinf
Encoding: 440 8327 440
Width: 550
VWidth: 498
Flags: HW
LayerCount: 4
Fore
SplineSet
190 0 m 17
 322 392 l 1
 159 392 l 1
 159 440 l 1
 391 440 l 1
 247 0 l 9
 190 0 l 17
EndSplineSet
EndChar

StartChar: eight.sinf
Encoding: 441 8328 441
Width: 550
VWidth: 498
Flags: HW
LayerCount: 4
Fore
SplineSet
208 311 m 6
 208 328 l 6
 208 362 239 391 275 391 c 4
 311 391 342 362 342 328 c 6
 342 311 l 6
 342 280 312 256 275 256 c 4
 238 256 208 280 208 311 c 6
159 311 m 6
 159 256 214 208 275 208 c 4
 336 208 391 256 391 311 c 6
 391 335 l 6
 391 389 337 439 276 439 c 4
 215 439 159 389 159 335 c 6
 159 311 l 6
208 105 m 6
 208 145 l 6
 208 179 239 207 275 207 c 4
 311 207 342 179 342 145 c 6
 342 105 l 6
 342 74 312 49 275 49 c 4
 238 49 208 74 208 105 c 6
159 105 m 6
 159 50 215 1 276 1 c 4
 337 1 391 50 391 105 c 6
 391 152 l 6
 391 206 336 255 275 255 c 4
 214 255 159 207 159 152 c 6
 159 105 l 6
EndSplineSet
EndChar

StartChar: nine.sinf
Encoding: 442 8329 442
Width: 550
VWidth: 498
Flags: HW
LayerCount: 4
Fore
SplineSet
348 197 m 1
 244 0 l 1
 190 0 l 1
 281 182 l 1
 219 182 159 231 159 285 c 2
 159 335 l 2
 159 390 214 440 275 440 c 0
 336 440 391 390 391 335 c 2
 391 309 l 2
 391 277 384 259 348 197 c 1
342 335 m 2
 342 366 312 392 275 392 c 0
 238 392 208 366 208 335 c 2
 208 292 l 2
 208 258 239 230 275 230 c 0
 311 230 342 258 342 292 c 2
 342 335 l 2
EndSplineSet
EndChar

StartChar: one.sups
Encoding: 443 185 443
Width: 550
VWidth: 583
Flags: HW
LayerCount: 4
Fore
SplineSet
315.799804688 662 m 1
 305 680 290.599609375 688.400390625 275 688.400390625 c 0
 231.799804688 688.400390625 207.799804688 623.599609375 207.799804688 503.599609375 c 0
 207.799804688 482 207.799804688 462.799804688 209 447.200195312 c 1
 315.799804688 662 l 1
341 588.799804688 m 1
 234.200195312 374 l 1
 245 356 258.200195312 346.400390625 275 346.400390625 c 0
 318.200195312 346.400390625 343.400390625 411.200195312 343.400390625 531.200195312 c 0
 343.400390625 556.400390625 342.200195312 574.400390625 341 588.799804688 c 1
275 736.400390625 m 0
 354.200195312 736.400390625 391.400390625 671.599609375 391.400390625 531.200195312 c 0
 391.400390625 378.799804688 351.799804688 299.599609375 275 299.599609375 c 0
 195.799804688 299.599609375 158.599609375 363.200195312 158.599609375 503.599609375 c 0
 158.599609375 656 199.400390625 736.400390625 275 736.400390625 c 0
EndSplineSet
EndChar

StartChar: two.sups
Encoding: 444 178 444
Width: 550
VWidth: 833
Flags: HW
LayerCount: 4
Fore
SplineSet
300.200195312 347.599609375 m 5
 300.200195312 736.400390625 l 5
 252.200195312 736.400390625 l 5
 171.799804688 652.400390625 l 5
 171.799804688 580.400390625 l 5
 252.200195312 664.400390625 l 5
 252.200195312 347.599609375 l 5
 174.200195312 347.599609375 l 5
 174.200195312 299.599609375 l 5
 378.200195312 299.599609375 l 5
 378.200195312 347.599609375 l 5
 300.200195312 347.599609375 l 5
252.200195312 347.599609375 m 1029
300.200195312 347.599609375 m 1029
EndSplineSet
EndChar

StartChar: three.sups
Encoding: 445 179 445
Width: 550
VWidth: 835
Flags: HW
LayerCount: 4
Fore
SplineSet
336.200195312 626 m 16
 336.200195312 659.599609375 311 688.400390625 275 688.400390625 c 0
 239 688.400390625 213.799804688 659.599609375 213.799804688 626 c 10
 213.799804688 602 l 25
 158.599609375 602 l 25
 158.599609375 633.200195312 l 18
 158.599609375 688.400390625 213.799804688 736.400390625 275 736.400390625 c 0
 336.200195312 736.400390625 391.400390625 687.200195312 391.400390625 633.200195312 c 8
 391.400390625 612.799804688 387.799804688 602 377 585.200195312 c 26
 221 347.599609375 l 17
 391.400390625 347.599609375 l 1
 391.400390625 299.599609375 l 1
 158.599609375 299.599609375 l 1
 159.799804688 347.599609375 l 9
 321.799804688 591.200195312 l 18
 326.599609375 598.400390625 336.200195312 611.599609375 336.200195312 626 c 16
EndSplineSet
EndChar

StartChar: zero.sups
Encoding: 446 8304 446
Width: 550
VWidth: 836
Flags: HW
LayerCount: 4
Fore
SplineSet
275 546.099609375 m 22
 312.200195312 546.099609375 342.200195312 570.099609375 342.200195312 601.299804688 c 6
 342.200195312 630.099609375 l 6
 342.200195312 663.700195312 311 692.5 275 692.5 c 4
 239 692.5 207.799804688 663.700195312 207.799804688 630.099609375 c 6
 207.799804688 625.299804688 l 13
 158.599609375 625.299804688 l 21
 158.599609375 637.299804688 l 6
 158.599609375 692.5 213.799804688 740.5 273.799804688 740.5 c 4
 336.200195312 740.5 391.400390625 692.5 391.400390625 637.299804688 c 6
 391.400390625 601.299804688 l 6
 391.400390625 570.099609375 373.400390625 540.099609375 347 520.900390625 c 5
 373.400390625 501.700195312 391.400390625 472.900390625 391.400390625 441.700195312 c 6
 391.400390625 406.900390625 l 6
 391.400390625 351.700195312 336.200195312 302.5 273.799804688 302.5 c 4
 212.599609375 302.5 158.599609375 351.700195312 158.599609375 406.900390625 c 6
 158.599609375 409.299804688 l 13
 207.799804688 409.299804688 l 21
 207.799804688 406.900390625 l 6
 207.799804688 375.700195312 237.799804688 350.5 275 350.5 c 4
 312.200195312 350.5 342.200195312 375.700195312 342.200195312 406.900390625 c 6
 342.200195312 434.5 l 6
 342.200195312 468.099609375 311 496.900390625 275 496.900390625 c 14
 233 496.900390625 l 29
 233 546.099609375 l 29
 275 546.099609375 l 22
EndSplineSet
EndChar

StartChar: four.sups
Encoding: 447 8308 447
Width: 550
VWidth: 835
Flags: HW
LayerCount: 4
Fore
SplineSet
335 299.599609375 m 21
 335 736.400390625 l 5
 287 736.400390625 l 1
 158.599609375 460.400390625 l 1
 158.599609375 412.400390625 l 1
 391.400390625 412.400390625 l 1
 391.400390625 460.400390625 l 1
 209 460.400390625 l 1
 287 635.599609375 l 1
 287 299.599609375 l 9
 335 299.599609375 l 21
EndSplineSet
EndChar

StartChar: five.sups
Encoding: 448 8309 448
Width: 550
VWidth: 835
Flags: HW
LayerCount: 4
Fore
SplineSet
158.599609375 384.799804688 m 1029
159.799804688 520.400390625 m 21
 293 520.400390625 l 6
 325.400390625 520.400390625 342.200195312 501.200195312 342.200195312 464 c 6
 342.200195312 402.799804688 l 6
 342.200195312 371.599609375 312.200195312 347.599609375 275 347.599609375 c 4
 237.799804688 347.599609375 207.799804688 371.599609375 207.799804688 402.799804688 c 5
 158.599609375 402.799804688 l 5
 158.599609375 347.599609375 213.799804688 299.599609375 275 299.599609375 c 4
 336.200195312 299.599609375 390.200195312 347.599609375 390.200195312 402.799804688 c 6
 391.400390625 471.200195312 l 6
 391.400390625 528.799804688 351.799804688 568.400390625 294.200195312 568.400390625 c 6
 207.799804688 568.400390625 l 13
 206.599609375 688.400390625 l 29
 390.200195312 688.400390625 l 29
 390.200195312 736.400390625 l 29
 158.599609375 736.400390625 l 29
 159.799804688 520.400390625 l 21
EndSplineSet
EndChar

StartChar: six.sups
Encoding: 449 8310 449
Width: 550
VWidth: 835
Flags: HW
LayerCount: 4
Fore
SplineSet
158.599609375 402.900390625 m 2
 158.599609375 347.700195312 215 298.5 276.200195312 298.5 c 0
 337.400390625 298.5 391.400390625 347.700195312 391.400390625 402.900390625 c 2
 391.400390625 453.299804688 l 2
 391.400390625 507.299804688 337.400390625 556.5 276.200195312 556.5 c 0
 253.400390625 556.5 228.200195312 548.099609375 207.799804688 534.900390625 c 1
 207.799804688 626.099609375 l 2
 207.799804688 659.700195312 239 688.5 275 688.5 c 0
 311 688.5 342.200195312 659.700195312 342.200195312 626.099609375 c 2
 342.200195312 620.099609375 l 1
 391.400390625 620.099609375 l 1
 391.400390625 633.299804688 l 2
 391.400390625 687.299804688 337.400390625 736.5 276.200195312 736.5 c 0
 215 736.5 158.599609375 687.299804688 158.599609375 633.299804688 c 2
 158.599609375 402.900390625 l 2
207.799804688 402.900390625 m 2
 207.799804688 446.099609375 l 2
 207.799804688 479.700195312 239 508.5 275 508.5 c 0
 311 508.5 342.200195312 479.700195312 342.200195312 446.099609375 c 2
 342.200195312 402.900390625 l 2
 342.200195312 371.700195312 312.200195312 346.5 275 346.5 c 0
 237.799804688 346.5 207.799804688 371.700195312 207.799804688 402.900390625 c 2
EndSplineSet
EndChar

StartChar: seven.sups
Encoding: 450 8311 450
Width: 550
VWidth: 835
Flags: HW
LayerCount: 4
Fore
SplineSet
189.799804688 299.599609375 m 21
 321.799804688 688.400390625 l 5
 158.599609375 688.400390625 l 5
 158.599609375 736.400390625 l 5
 391.400390625 736.400390625 l 5
 247.400390625 299.599609375 l 13
 189.799804688 299.599609375 l 21
EndSplineSet
EndChar

StartChar: eight.sups
Encoding: 451 8312 451
Width: 550
VWidth: 835
Flags: HW
LayerCount: 4
Fore
SplineSet
207.799804688 609.299804688 m 2
 207.799804688 626.099609375 l 2
 207.799804688 659.700195312 239 688.5 275 688.5 c 0
 311 688.5 342.200195312 659.700195312 342.200195312 626.099609375 c 2
 342.200195312 609.299804688 l 2
 342.200195312 578.099609375 312.200195312 554.099609375 275 554.099609375 c 0
 237.799804688 554.099609375 207.799804688 578.099609375 207.799804688 609.299804688 c 2
158.599609375 609.299804688 m 2
 158.599609375 554.099609375 213.799804688 506.099609375 275 506.099609375 c 0
 336.200195312 506.099609375 391.400390625 554.099609375 391.400390625 609.299804688 c 2
 391.400390625 633.299804688 l 2
 391.400390625 687.299804688 337.400390625 736.5 276.200195312 736.5 c 0
 215 736.5 158.599609375 687.299804688 158.599609375 633.299804688 c 2
 158.599609375 609.299804688 l 2
207.799804688 402.900390625 m 2
 207.799804688 442.5 l 2
 207.799804688 476.099609375 239 504.900390625 275 504.900390625 c 0
 311 504.900390625 342.200195312 476.099609375 342.200195312 442.5 c 2
 342.200195312 402.900390625 l 2
 342.200195312 371.700195312 312.200195312 346.5 275 346.5 c 0
 237.799804688 346.5 207.799804688 371.700195312 207.799804688 402.900390625 c 2
158.599609375 402.900390625 m 2
 158.599609375 347.700195312 215 298.5 276.200195312 298.5 c 0
 337.400390625 298.5 391.400390625 347.700195312 391.400390625 402.900390625 c 2
 391.400390625 449.700195312 l 2
 391.400390625 503.700195312 336.200195312 552.900390625 275 552.900390625 c 0
 213.799804688 552.900390625 158.599609375 504.900390625 158.599609375 449.700195312 c 2
 158.599609375 402.900390625 l 2
EndSplineSet
EndChar

StartChar: nine.sups
Encoding: 452 8313 452
Width: 550
VWidth: 835
Flags: HW
LayerCount: 4
Fore
SplineSet
348.200195312 494 m 1
 243.799804688 299.599609375 l 1
 189.799804688 299.599609375 l 1
 281 479.599609375 l 1
 218.599609375 479.599609375 158.599609375 528.799804688 158.599609375 582.799804688 c 2
 158.599609375 633.200195312 l 2
 158.599609375 688.400390625 213.799804688 736.400390625 275 736.400390625 c 0
 336.200195312 736.400390625 391.400390625 688.400390625 391.400390625 633.200195312 c 2
 391.400390625 606.799804688 l 2
 391.400390625 574.400390625 384.200195312 556.400390625 348.200195312 494 c 1
342.200195312 633.200195312 m 2
 342.200195312 664.400390625 312.200195312 688.400390625 275 688.400390625 c 4
 237.799804688 688.400390625 207.799804688 664.400390625 207.799804688 633.200195312 c 2
 207.799804688 590 l 2
 207.799804688 556.400390625 239 527.599609375 275 527.599609375 c 0
 311 527.599609375 342.200195312 556.400390625 342.200195312 590 c 2
 342.200195312 633.200195312 l 2
EndSplineSet
EndChar

StartChar: ibreve.salt_serifs
Encoding: 495 57387 495
Width: 550
VWidth: 1080
Flags: HW
HStem: 280 124<-44 298>
LayerCount: 4
Fore
SplineSet
323 280 m 1
 31 280 l 5
 31 404 l 5
 323 404 l 1
 323 566 l 1
 519 340 l 25
 323 120 l 1
 323 280 l 1
EndSplineSet
EndChar

StartChar: iogonek.salt_serifs
Encoding: 496 57388 496
Width: 550
VWidth: 1080
Flags: HW
HStem: 80 21G<249.551 295.061>
VStem: 212 124<276 618>
LayerCount: 4
Fore
SplineSet
212 276 m 1
 212 568 l 5
 336 568 l 5
 336 276 l 1
 498 276 l 1
 272 80 l 25
 52 276 l 1
 212 276 l 1
EndSplineSet
EndChar

StartChar: ij.salt_serifs
Encoding: 498 57389 498
Width: 550
VWidth: 1080
Flags: HW
LayerCount: 4
Fore
SplineSet
227 280 m 1
 519 280 l 5
 519 404 l 5
 227 404 l 1
 227 566 l 1
 31 340 l 25
 227 120 l 1
 227 280 l 1
EndSplineSet
EndChar

StartChar: icyrillic.salt_serifs
Encoding: 499 57390 499
Width: 550
VWidth: 1080
Flags: HW
HStem: 80 21G<214 338>
VStem: 214 124<80 422>
LayerCount: 4
Fore
SplineSet
338 372 m 1
 338 80 l 1
 214 80 l 1
 214 372 l 1
 52 372 l 1
 278 568 l 25
 498 372 l 1
 338 372 l 1
EndSplineSet
EndChar

StartChar: NameMe.1178
Encoding: 551 -1 551
Width: 550
Flags: HW
LayerCount: 4
Back
SplineSet
160 650 m 1
 302 650 l 2
 356.484375 650 390 610.6640625 390 520 c 0
 390 429.89453125 368.2890625 393 252 393 c 2
 160 393 l 1
 160 650 l 1
234.458984375 317.938476562 m 17
 442.895507812 320.766601562 468 386.390625 468 522 c 0
 468 671.37109375 413.65234375 730 296 730 c 2
 82 730 l 1
 82 0 l 1
 160 0 l 1
 160 275 l 1
 362 0 l 9
 468 0 l 25
 234.458984375 317.938476562 l 17
EndSplineSet
Fore
SplineSet
160 650 m 1
 212 650 l 2
 346.484701747 650 390 620.663843875 390 530 c 0
 390 439.894982679 338.288921914 403 212 403 c 2
 160 403 l 1
 160 650 l 1
234.458984375 327.938476562 m 17
 392.895288756 330.766117855 468 396.390486889 468 532 c 0
 468 681.370615224 403.652026205 730 206 730 c 2
 82 730 l 1
 82 0 l 1
 160 0 l 1
 160 285 l 1
 362 0 l 9
 468 0 l 25
 234.458984375 327.938476562 l 17
EndSplineSet
EndChar

StartChar: NameMe.1179
Encoding: 552 -1 552
Width: 550
Flags: HW
LayerCount: 4
Back
SplineSet
235 526 m 25
 235 559 l 18
 235 649 326 730 429 730 c 10
 468 730 l 25
 468 645 l 25
 428 645 l 18
 367 645 315 595 315 541 c 10
 315 526 l 25
 468 526 l 25
 468 446 l 25
 315 446 l 25
 315 0 l 25
 235 0 l 25
 235 446 l 25
 82 446 l 25
 82 526 l 25
 235 526 l 25
EndSplineSet
Fore
SplineSet
229 105 m 1
 182 -18 l 2
 165.772460938 -59.6826171875 153 -76 91 -83 c 5
 99 -152 l 1
 176 -152 227.515625 -131.565429688 246 -82 c 2
 468 516 l 1
 388 526 l 1
 273 222 l 1
 168 535 l 1
 82 515 l 1
 229 105 l 1
99 -152 m 1048
EndSplineSet
EndChar

StartChar: NameMe.1180
Encoding: 553 -1 553
Width: 550
Flags: HW
LayerCount: 4
Back
SplineSet
183 331 m 1
 183 418 l 1
 334 418 387 453 387 553 c 0
 387 629 359 655 275 655 c 0
 192 655 163 631 163 562 c 1
 82 562 l 1
 82 685 138 735 275 735 c 0
 414 735 468 683 468 549 c 0
 468 458 465 419 349 371 c 1
 460 325 468 278 468 186 c 0
 468 63 403 0 275 0 c 0
 149 0 82 60 82 173 c 1
 163 173 l 1
 163 111 200 80 275 80 c 0
 349 80 387 115 387 182 c 0
 387 289 330 331 183 331 c 1
EndSplineSet
Fore
SplineSet
893 605 m 1
 875 635 852 650 825 650 c 0
 752 650 713 541 713 342 c 0
 713 305 714 274 716 247 c 1
 893 605 l 1
935 484 m 1
 758 125 l 1
 776 95 798 80 825 80 c 0
 898 80 938 189 938 388 c 0
 938 430 937 460 935 484 c 1
825 730 m 0
 958 730 1018 623 1018 388 c 0
 1018 134 952 2 825 2 c 0
 692 2 632 108 632 342 c 0
 632 597 698 730 825 730 c 0
208.415039062 389 m 25
 208.415039062 471 l 17
 357 650 l 1
 82 650 l 1
 82 730 l 1
 468 730 l 1
 468 652 l 1
 307.370117188 471 l 1
 406 469 468 388 468 297 c 2
 468 173 l 2
 468 81 378 0 276 0 c 0
 173 0 82 81 82 173 c 2
 82 187 l 9
 163 187 l 17
 163 173 l 2
 163 122 213 80 275 80 c 0
 337 80 387 122 387 173 c 2
 387 285 l 2
 387 341 365 389 305 389 c 1
 208.415039062 389 l 25
82 187 m 1025
EndSplineSet
EndChar

StartChar: NameMe.1181
Encoding: 554 -1 554
Width: 550
Flags: HW
LayerCount: 4
Back
SplineSet
160 650 m 1
 160 390 l 1
 202 390 l 2
 322.099748738 390 390 440.202845348 390 529 c 0
 390 611.383665444 330.00106697 650 202 650 c 2
 160 650 l 1
160 310 m 1
 160 0 l 1
 82 0 l 1
 82 730 l 1
 180 730 l 2
 390.260675164 730 468 675.744429542 468 529 c 0
 468 369.199165969 387.613705327 312.041378523 160 310 c 1
EndSplineSet
Fore
SplineSet
160 326 m 1xe8
 202 326 l 2
 338.248756938 326 390 296.545835066 390 219 c 0
 390 105.493158726 355.520044313 80 202 80 c 2
 160 80 l 1
 160 326 l 1xe8
394.235351562 374.795898438 m 1
 427.624600501 416.531093343 440 458.230034039 440 529 c 0xf0
 440 676.507040045 377.724613784 730 206 730 c 2
 82 730 l 1
 82 0 l 1
 240 0 l 1
 415.277928772 2.08664200919 468 52.727578847 468 219 c 0
 468 280.87450015 446.454797986 326.379415795 394.235351562 374.795898438 c 1
160 650 m 1
 202 650 l 2
 325.503365157 650 359 624.184122191 359 529 c 0
 359 440.456240409 313.210962047 404 202 404 c 2
 160 404 l 1
 160 650 l 1
EndSplineSet
EndChar

StartChar: liga_exclam_equal
Encoding: 555 -1 555
Width: 1100
VWidth: 1050
Flags: HW
LayerCount: 4
Fore
SplineSet
694 680 m 5
 302 -20 l 5
 406 -20 l 5
 798 680 l 5
 694 680 l 5
1028 270 m 25
 72 270 l 25
 72 170 l 25
 1028 170 l 25
 1028 270 l 25
1028 490 m 25
 72 490 l 25
 72 390 l 25
 1028 390 l 25
 1028 490 l 25
EndSplineSet
Ligature2: "liga standard lookup-1" exclam equal
LCarets2: 1 0
EndChar

StartChar: liga_asciitilde_equal
Encoding: 556 -1 556
Width: 1100
VWidth: 1050
Flags: HW
LayerCount: 4
Fore
SplineSet
1028 270 m 25
 72 270 l 25
 72 170 l 25
 1028 170 l 25
 1028 270 l 25
601 493 m 0
 601 568 521 604 355 604 c 0
 166 604 93 558 93 441 c 2
 93 370 l 1
 201 370 l 1
 202 442 l 1
 204 498 238 514 355 514 c 0
 430 514 489 496 489 474 c 0
 489 398 572 359 735 359 c 0
 924 359 997 405 997 522 c 2
 997 593 l 1
 889 593 l 1
 888 521 l 1
 886 464 853 449 735 449 c 0
 656 449 601 467 601 493 c 0
EndSplineSet
LCarets2: 1 0
Ligature2: "liga standard lookup-1" asciitilde equal
EndChar

StartChar: liga_hyphen_greater
Encoding: 557 -1 557
Width: 1100
VWidth: 1020
Flags: HW
LayerCount: 4
Fore
SplineSet
702 52 m 1
 1028 312 l 1
 702 578 l 1
 702 456 l 1
 878 312 l 1
 702 172 l 1
 702 52 l 1
888 357 m 25
 72 357 l 25
 72 267 l 25
 888 267 l 25
 888 357 l 25
EndSplineSet
Ligature2: "liga standard lookup-1" hyphen greater
LCarets2: 1 0
EndChar

StartChar: liga_less_hyphen_greater
Encoding: 558 -1 558
Width: 1650
VWidth: 1020
Flags: HW
LayerCount: 4
Fore
SplineSet
395 52 m 1
 69 312 l 1
 395 578 l 1
 395 456 l 1
 219 312 l 1
 395 172 l 1
 395 52 l 1
1443 267 m 17
 209 267 l 9
 209 357 l 17
 1443 357 l 9
 1443 267 l 17
1257 52 m 1
 1257 172 l 1
 1433 312 l 1
 1257 456 l 1
 1257 578 l 1
 1583 312 l 1
 1257 52 l 1
EndSplineSet
Ligature2: "liga standard lookup-1" less hyphen greater
LCarets2: 2 0 0
EndChar

StartChar: liga_less_hyphen
Encoding: 559 -1 559
Width: 1100
VWidth: 1020
Flags: HW
LayerCount: 4
Fore
SplineSet
398 52 m 5
 72 312 l 5
 398 578 l 5
 398 456 l 5
 222 312 l 5
 398 172 l 5
 398 52 l 5
212 357 m 29
 1028 357 l 29
 1028 267 l 29
 212 267 l 29
 212 357 l 29
EndSplineSet
Ligature2: "liga standard lookup-1" less hyphen
LCarets2: 1 0
EndChar

StartChar: liga_less_exclam_hyphen
Encoding: 560 -1 560
Width: 1650
VWidth: 1020
Flags: HW
HStem: 275 90<63 711 803 1439>
LayerCount: 4
Fore
SplineSet
560 75 m 0xe0
 560 109 599 137 645 137 c 0
 691 137 730 109 730 75 c 0
 730 41 691 12 645 12 c 0
 599 12 560 41 560 75 c 0xe0
605 201 m 17xd0
 565 682 l 9
 725 682 l 17
 685 201 l 9
 605 201 l 17xd0
393 52 m 1
 67 312 l 1
 393 578 l 1
 393 456 l 1
 217 312 l 1
 393 172 l 1
 393 52 l 1
1157 357 m 17
 1583 357 l 9
 1583 267 l 17
 1157 267 l 9
 1157 357 l 17
507 267 m 1
 207 267 l 1
 207 357 l 1
 507 357 l 1
 507 267 l 1
783 357 m 17
 1025 357 l 9
 1025 267 l 1
 783 267 l 9
 783 357 l 17
EndSplineSet
Ligature2: "liga standard lookup-1" less exclam hyphen
LCarets2: 2 0 0
EndChar

StartChar: liga_slash_slash
Encoding: 561 -1 561
Width: 1100
Flags: HW
LayerCount: 4
Fore
SplineSet
824 750 m 5
 512 -20 l 5
 626 -20 l 5
 938 750 l 5
 824 750 l 5
464 750 m 5
 162 -20 l 5
 276 -20 l 5
 578 750 l 5
 464 750 l 5
EndSplineSet
LCarets2: 1 0
Ligature2: "liga standard lookup-1" slash slash
EndChar

StartChar: liga_equal_equal
Encoding: 562 -1 562
Width: 1100
VWidth: 1050
Flags: HW
LayerCount: 4
Fore
SplineSet
1028 270 m 29
 72 270 l 29
 72 170 l 29
 1028 170 l 29
 1028 270 l 29
1028 490 m 29
 72 490 l 29
 72 390 l 29
 1028 390 l 29
 1028 490 l 29
EndSplineSet
LCarets2: 1 0
Ligature2: "liga standard lookup-1" equal equal
EndChar

StartChar: liga_equal_equal_equal
Encoding: 563 -1 563
Width: 1650
VWidth: 1050
Flags: HW
LayerCount: 4
Fore
SplineSet
1578 390 m 25
 72 390 l 25
 72 300 l 25
 1578 300 l 25
 1578 390 l 25
1578 195 m 25
 72 195 l 25
 72 105 l 25
 1578 105 l 25
 1578 195 l 25
1578 585 m 25
 72 585 l 25
 72 495 l 25
 1578 495 l 25
 1578 585 l 25
EndSplineSet
LCarets2: 2 0 0
Ligature2: "liga standard lookup-1" equal equal equal
EndChar

StartChar: liga_exclam_equal_equal
Encoding: 564 -1 564
Width: 1650
VWidth: 1050
Flags: HW
LayerCount: 4
Fore
SplineSet
1578 390 m 25
 72 390 l 25
 72 300 l 25
 1578 300 l 25
 1578 390 l 25
1578 205 m 25
 72 205 l 25
 72 115 l 25
 1578 115 l 25
 1578 205 l 25
1578 575 m 25
 72 575 l 25
 72 485 l 25
 1578 485 l 25
 1578 575 l 25
969 700 m 1
 577 -40 l 1
 681 -40 l 1
 1073 700 l 1
 969 700 l 1
EndSplineSet
LCarets2: 2 0 0
Ligature2: "liga standard lookup-1" exclam equal equal
EndChar

StartChar: liga_less_equal
Encoding: 565 -1 565
Width: 1100
VWidth: 1050
Flags: HW
LayerCount: 4
Fore
SplineSet
836 117 m 25
 264 117 l 25
 264 18 l 25
 836 18 l 25
 836 117 l 25
558 218 m 21
 353 375 l 13
 747 685 l 5
 747 547 l 5
 524 375 l 5
 737 218 l 13
 558 218 l 21
558 218 m 1029
EndSplineSet
LCarets2: 1 0
Ligature2: "liga standard lookup-1" less equal
EndChar

StartChar: liga_greater_equal
Encoding: 566 -1 566
Width: 1100
VWidth: 1050
Flags: HW
LayerCount: 4
Fore
SplineSet
264 117 m 25
 836 117 l 25
 836 18 l 25
 264 18 l 25
 264 117 l 25
542 218 m 17
 747 375 l 9
 353 685 l 1
 353 547 l 1
 576 375 l 1
 363 218 l 9
 542 218 l 17
542 218 m 1025
EndSplineSet
LCarets2: 1 0
Ligature2: "liga standard lookup-1" greater equal
EndChar

StartChar: liga_colon_slash_slash
Encoding: 567 -1 567
Width: 1650
Flags: HW
LayerCount: 4
Fore
SplineSet
152 189 m 0
 152 242 197 288 250 288 c 0
 303 288 350 242 350 189 c 0
 350 136 303 90 250 90 c 0
 197 90 152 136 152 189 c 0
302 569 m 0
 302 622 347 668 400 668 c 0
 453 668 500 622 500 569 c 0
 500 516 453 470 400 470 c 0
 347 470 302 516 302 569 c 0
1384 750 m 1
 1072 -20 l 1
 1186 -20 l 1
 1498 750 l 1
 1384 750 l 1
894 750 m 1
 592 -20 l 1
 706 -20 l 1
 1008 750 l 1
 894 750 l 1
EndSplineSet
LCarets2: 2 0 0
Ligature2: "liga standard lookup-1" colon slash slash
EndChar

StartChar: liga_equal_question
Encoding: 568 -1 568
Width: 1100
Flags: HW
LayerCount: 4
Fore
SplineSet
1028 270 m 25
 512 270 l 25
 432 170 l 25
 1028 170 l 25
 1028 270 l 25
1028 490 m 25
 562 490 l 25
 562 390 l 25
 1028 390 l 25
 1028 490 l 25
229 311 m 2xf6
 229 367 266 401 325 401 c 0
 362 401 377 424 377 483 c 2
 377 546 l 2
 377 602 336 640 275 640 c 0
 214 640 173 602 173 546 c 2
 173 491 l 9
 82 491 l 17
 82 558 l 2
 82 649 173 730 276 730 c 0
 377 730 468 649 468 558 c 2
 468 464 l 2
 468 371 410 311 320 311 c 1
 320 191 l 1
 229 191 l 1
 229 311 l 2xf6
190 63 m 0xfa
 190 97 229 125 275 125 c 0
 321 125 360 97 360 63 c 0
 360 29 321 0 275 0 c 0
 229 0 190 29 190 63 c 0xfa
EndSplineSet
LCarets2: 1 0
Ligature2: "liga standard lookup-1" equal question
EndChar

StartChar: liga_asciitilde_asciitilde
Encoding: 569 -1 569
Width: 1100
VWidth: 1050
Flags: HW
LayerCount: 4
Fore
SplineSet
590 319 m 4
 572 247 515 219 440 219 c 4
 361 219 292 259 292 324 c 4
 292 346 259 364 230 364 c 4
 187 364 150 354 149 292 c 6
 148 230 l 5
 64 230 l 5
 64 291 l 6
 64 401 139 444 230 444 c 4
 310 444 368 406 368 343 c 4
 368 317 409 299 440 299 c 4
 475 299 500 306 509 342 c 4
 529 416 594 444 670 444 c 4
 750 444 808 406 808 343 c 4
 808 317 849 299 880 299 c 4
 923 299 950 309 951 371 c 6
 952 433 l 5
 1036 433 l 5
 1036 372 l 6
 1036 262 971 219 880 219 c 4
 801 219 732 259 732 324 c 4
 732 346 699 364 670 364 c 4
 635 364 600 357 590 319 c 4
EndSplineSet
LCarets2: 1 0
Ligature2: "liga standard lookup-1" asciitilde asciitilde
EndChar

StartChar: liga_asciit_asciit_asciit
Encoding: -1 -1 570
Width: 1650
VWidth: 1050
Flags: HW
LayerCount: 4
Fore
SplineSet
1010 343 m 0
 1000 306 974 299 939 299 c 0
 908 299 862 317 862 343 c 0
 862 406 788 444 708 444 c 0
 632 444 562 416 542 342 c 0
 533 306 509 299 474 299 c 0
 443 299 397 317 397 343 c 0
 397 406 323 444 243 444 c 0
 152 444 66 401 66 291 c 2
 66 230 l 1
 150 230 l 1
 151 292 l 2
 152 354 200 364 243 364 c 0
 272 364 321 346 321 324 c 0
 321 259 395 219 474 219 c 0
 549 219 605 247 623 319 c 0
 633 357 673 364 708 364 c 0
 737 364 786 346 786 324 c 0
 786 259 860 219 939 219 c 0
 1013 219 1071 247 1092 318 c 0
 1102 356 1151 364 1186 364 c 0
 1215 364 1264 346 1264 324 c 0
 1264 259 1338 219 1417 219 c 0
 1508 219 1584 262 1584 372 c 2
 1584 433 l 1
 1500 433 l 1
 1499 371 l 2
 1498 309 1460 299 1417 299 c 0
 1386 299 1340 317 1340 343 c 0
 1340 406 1266 444 1186 444 c 0
 1110 444 1030 417 1010 343 c 0
EndSplineSet
LCarets2: 2 0 0
Ligature2: "liga standard lookup-1" asciitilde asciitilde asciitilde
EndChar

StartChar: NameMe.1197.1
Encoding: 570 -1 572
Width: 550
InSpiro: 1
Flags: HW
LayerCount: 4
Fore
SplineSet
82 0 m 25
 163 0 l 17
 163 440 l 9
 225 440 l 18
 385 440 387 388 387 292 c 2
 387 0 l 9
 468 0 l 17
 468 304 l 2
 468 435 436 526 215 526 c 10
 82 526 l 25
 82 0 l 25
  Spiro
    82 0 v
    163 0 v
    163 440 v
    225 440 ]
    338.039 422.997 o
    380.574 372.971 o
    387 292 [
    387 0 v
    468 0 v
    468 304 ]
    451.557 419.679 o
    378.702 497.611 o
    215 526 [
    82 526 v
    0 0 z
  EndSpiro
EndSplineSet
Layer: 2
SplineSet
162 490 m 1
 162 506 l 1
 82 506 l 17
 82 -0 l 1
 162 0 l 1
 162 342 l 2
 162 401 211 446 275 446 c 0
 338 446 388 400 388 341 c 2
 388 -0 l 1
 468 0 l 17
 468 343 l 2
 468 447 384 526 275 526 c 0
 229 526 182 511 162 490 c 1
  Spiro
    162 490 v
    162 506 v
    82 506 v
    82 -0 v
    162 0 v
    162 342 ]
    177.045 395.139 o
    217.309 432.175 o
    275 446 o
    332.246 431.916 o
    372.733 394.398 o
    388 341 [
    388 -0 v
    468 0 v
    468 343 ]
    442.235 436.585 o
    373.396 501.713 o
    275 526 o
    229.747 521.342 o
    189.928 508.651 o
    0 0 z
  EndSpiro
468 343 m 1025
  Spiro
    468 343 {
    0 0 z
  EndSpiro
388 341 m 1025
  Spiro
    388 341 {
    0 0 z
  EndSpiro
388 -0 m 1025
  Spiro
    388 -0 {
    0 0 z
  EndSpiro
82 -0 m 1025
  Spiro
    82 -0 {
    0 0 z
  EndSpiro
EndSplineSet
Layer: 3
SplineSet
162 491 m 5
 162 527 l 5
 82 527 l 21
 82 1 l 5
 162 1 l 5
 162 343 l 6
 162 402 211 447 275 447 c 4
 338 447 388 401 388 342 c 6
 388 1 l 5
 468 1 l 21
 468 344 l 6
 468 448 384 527 275 527 c 4
 229 527 182 512 162 491 c 5
468 344 m 1029
388 342 m 1029
388 1 m 1029
82 1 m 1029
EndSplineSet
EndChar

StartChar: NameMe.1198
Encoding: 571 -1 573
Width: 550
Flags: HW
LayerCount: 4
Fore
SplineSet
2658 449 m 21
 2620.50976562 494.10546875 2550.09375 526 2488 526 c 4
 2437.62207031 526 2381.2890625 511.087890625 2352 490 c 5
 2352 526 l 5
 2272 526 l 21
 2272 -0.212890625 l 5
 2352 0 l 5
 2352 342 l 6
 2351.84667969 401.7109375 2407.63378906 446 2483 446 c 4
 2522.83300781 446 2572.953125 422.389648438 2604 389 c 13
 2658 449 l 21
2272 -0.212890625 m 1029
1772 529 m 1
 1849 529 l 1
 1850 384 l 1
 1772 294 l 1
 1772 529 l 1
1995 526 m 3
 2146 526 2158 495 2158 384 c 2
 2158 370 l 9
 2077 360 l 17
 2077 382 l 2
 2077 418 2067 435 1968 435 c 0
 1876 435 1852 375 1852 330 c 2
 1852 1 l 1
 1772 0 l 25
 1772 386 l 18
 1772 479 1898 526 1995 526 c 3
1489 370 m 1
 1489 409 1438 446 1383 446 c 0
 1311 446 1262 403 1262 340 c 2
 1262 0 l 1
 1182 0 l 1
 1182 454 l 0
 1182 526 l 9
 1262 526 l 1
 1262 490 l 1
 1281 511 1331 526 1381 526 c 0
 1490 526 1568 461 1568 370 c 1
 1489 370 l 1
632 529 m 1
 704 529 l 1
 714 384 l 1
 632 384 l 1
 632 529 l 1
855 526 m 3
 1006 526 1018 505 1018 394 c 2
 1018 360 l 9
 927 360 l 17
 927 392 l 2
 927 428 903.079101562 440 805 440 c 0
 733 440 713 385 713 340 c 2
 713 1 l 1
 632 0 l 25
 632 386 l 18
 632 479 758 526 855 526 c 3
82 0 m 25
 163 0 l 17
 163 440 l 9
 225 440 l 18
 385 440 387 388 387 292 c 2
 387 260 l 9
 468 260 l 17
 468 304 l 2
 468 435 436 526 215 526 c 10
 82 526 l 25
 82 0 l 25
EndSplineSet
EndChar

StartChar: NameMe.1199
Encoding: 572 -1 574
Width: 550
Flags: W
HStem: 0 75<201.343 348.542> 220 80<189.85 355.648> 451 75<201.458 348.657>
VStem: 82 80<111.69 148 328.03 415.112> 388 80<110.888 191.531 378 414.31>
LayerCount: 4
Fore
SplineSet
275 228 m 0
 133 228 82 280 82 374 c 0
 82 463 135 530 275 530 c 0
 408 530 468 501 468 402 c 1
 384 392 l 1
 384 438 370 449 275 449 c 0
 197 449 165 416 165 374 c 0
 165 332 196 304 275 304 c 0
 408 304 468 237 468 152 c 0
 468 53 425 -4 275 -4 c 0
 132 -4 82 15 82 104 c 1
 163 114 l 1
 163 80 190 74 275 74 c 0
 363 74 385 110 385 152 c 0
 385 186 364 228 275 228 c 0
EndSplineSet
EndChar

StartChar: NameMe.1200
Encoding: 573 -1 575
Width: 550
Flags: HW
LayerCount: 4
Fore
SplineSet
275 220 m 4
 153 220 82 276 82 370 c 4
 82 459 165 526 275 526 c 4
 378 526 468 457 468 378 c 5
 387 378 l 5
 387 414 330 451 275 451 c 4
 217 451 162 412 162 370 c 4
 162 328 206 300 275 300 c 4
 388 300 468 241 468 156 c 4
 468 67 385 0 275 0 c 4
 172 0 82 69 82 148 c 5
 163 148 l 5
 163 112 220 75 275 75 c 4
 333 75 388 114 388 156 c 4
 388 190 334 220 275 220 c 4
EndSplineSet
EndChar

StartChar: NameMe.1201
Encoding: 574 -1 576
Width: 550
Flags: HW
LayerCount: 4
Fore
SplineSet
468 0 m 5
 468 526 l 5
 387 526 l 5
 387 173 l 6
 387 122 337 80 275 80 c 4
 213 80 163 122 163 173 c 6
 163 526 l 5
 82 526 l 5
 82 173 l 6
 82 81 172 0 275 0 c 4
 312 0 353 13 387 35 c 13
 387 0 l 5
 468 0 l 5
EndSplineSet
EndChar

StartChar: NameMe.1202
Encoding: 575 -1 577
Width: 550
Flags: HW
LayerCount: 4
Fore
SplineSet
468 526 m 25
 387 526 l 17
 387 86 l 9
 325 86 l 18
 165 86 163 138 163 234 c 2
 163 526 l 9
 82 526 l 17
 82 222 l 2
 82 91 114 0 335 0 c 10
 468 0 l 25
 468 526 l 25
EndSplineSet
EndChar

StartChar: NameMe.1203
Encoding: 576 -1 578
Width: 550
Flags: HW
LayerCount: 4
Fore
SplineSet
383 147 m 5
 386 155 387 164 387 173 c 6
 387 546 l 6
 387 602 335 650 275 650 c 4
 214 650 163 602 163 546 c 6
 163 173 l 6
 163 122 213 80 275 80 c 4
 286 80 296 82 315 88 c 5
 232 230 l 5
 310 274 l 5
 383 147 l 5
356 18 m 5
 330 7 301 0 275 0 c 4
 172 0 82 81 82 173 c 6
 82 558 l 6
 82 649 172 730 275 730 c 4
 376 730 468 649 468 558 c 6
 468 173 l 6
 468 135 455 99 428 69 c 5
 468 0 l 5
 366 0 l 5
 356 18 l 5
EndSplineSet
EndChar

StartChar: NameMe.1204
Encoding: 577 -1 579
Width: 550
Flags: HW
LayerCount: 4
Fore
SplineSet
36 526 m 1029
128 -0 m 1045
248 506 m 1029
312 506 m 1029
312 506 m 1029
350 0 m 1045
312 506 m 1053
119 526 m 5
 36 526 l 5
 129 0 l 5
 202 0 l 5
 276 315 l 5
 351 0 l 5
 424 0 l 5
 514 526 l 5
 431 526 l 5
 380 193 l 5
 312 506 l 5
 248 506 l 5
 173 193 l 5
 119 526 l 5
EndSplineSet
EndChar

StartChar: NameMe.1205
Encoding: 578 -1 580
Width: 550
Flags: HW
LayerCount: 4
Fore
SplineSet
468 0 m 29
 321 361 l 29
 221 361 l 29
 369 0 l 29
 468 0 l 29
275 650 m 22
 335 650 387 602 387 546 c 6
 387 493 l 6
 387 442 337 410 275 410 c 14
 160 410 l 29
 160 650 l 29
 275 650 l 22
276 330 m 22
 378 330 468 401 468 493 c 6
 468 558 l 6
 468 649 377 730 276 730 c 14
 82 730 l 29
 82 0 l 29
 160 0 l 29
 160 330 l 29
 276 330 l 22
EndSplineSet
EndChar

StartChar: NameMe.1206
Encoding: 579 -1 581
Width: 550
Flags: HW
LayerCount: 4
Fore
SplineSet
163 158 m 4
 163 119 218 78 271 78 c 4
 324 78 353 89 389 122 c 5
 388 209 l 5
 369 232 319 246 257 246 c 4
 199 246 163 212 163 158 c 4
387 358 m 6
 387 393 372 451 275 451 c 4
 206 451 162 419 162 370 c 5
 82 370 l 5
 82 411 107 460 142 488 c 4
 179 517 209 526 275 526 c 4
 350 526 391 512 430 475 c 4
 456 450 468 414 468 358 c 6
 468 0 l 5
 387 0 l 5
 387 40 l 5
 366 17 317 0 268 0 c 4
 161 0 82 72 82 171 c 4
 82 235 120 292 178 314 c 4
 262 346 371 306 387 306 c 5
 387 358 l 6
EndSplineSet
EndChar

StartChar: NameMe.1207
Encoding: 580 -1 582
Width: 550
Flags: HW
LayerCount: 4
Fore
SplineSet
315 412 m 1029
116 413 m 6
 116 433 146 454 175 454 c 4
 204 454 235 433 235 413 c 6
 235 -0 l 5
 315 0 l 5
 315 412 l 6
 315 432 345 453 374 453 c 4
 403 453 434 432 434 412 c 6
 434 -0 l 5
 514 0 l 21
 514 383 l 6
 514 467 456 525 374 525 c 4
 337 525 298 513 275 494 c 5
 252 513 212 526 175 526 c 4
 155 526 130 522 116 517 c 5
 116 526 l 5
 36 526 l 21
 36 -0 l 5
 116 0 l 5
 116 413 l 6
514 383 m 1029
434 412 m 1029
434 -0 m 1029
36 -0 m 1029
235 -0 m 1029
EndSplineSet
EndChar

StartChar: NameMe.1208
Encoding: 581 -1 583
Width: 550
Flags: HW
LayerCount: 4
Fore
SplineSet
257 332 m 29
 468 332 l 21
 468 173 l 6
 468 81 377 0 275 0 c 4
 172 0 82 81 82 173 c 6
 82 558 l 6
 82 649 172 730 275 730 c 4
 376 730 468 649 468 558 c 6
 468 511 l 13
 387 511 l 21
 387 546 l 6
 387 602 335 650 275 650 c 4
 214 650 163 602 163 546 c 6
 163 173 l 6
 163 122 213 80 275 80 c 4
 337 80 387 122 387 173 c 6
 387 251 l 13
 257 251 l 29
 257 332 l 29
EndSplineSet
EndChar

StartChar: NameMe.1209
Encoding: 582 -1 584
Width: 550
Flags: W
HStem: 0 80<209.663 340.05> 650 80<211.085 340.034>
VStem: 82 80<129.91 196 451.957 596.309> 388 80<129.515 270.06> 398 78<558.487 586.84>
LayerCount: 4
Fore
SplineSet
387 539 m 17
 387 545 l 2
 387 601 335 649 275 649 c 0
 214 649 163 601 163 545 c 2
 163 493 l 2
 163 441 214 399 275 399 c 1
 377 399 468 318 468 227 c 2
 468 173 l 2
 468 81 377 0 275 0 c 4
 172 0 82 81 82 173 c 2
 82 182 l 9
 163 182 l 17
 163 173 l 2
 163 122 213 80 275 80 c 0
 337 80 387 122 387 173 c 2
 387 215 l 2
 387 271 335 319 275 319 c 1
 173 319 82 401 82 493 c 6
 82 557 l 2
 82 648 172 729 275 729 c 0
 376 729 468 648 468 557 c 2
 468 540 l 9
 387 539 l 17
EndSplineSet
EndChar

StartChar: NameMe.954
Encoding: 583 -1 585
Width: 550
Flags: W
HStem: 0 21G<82.0209 163> 21 60<183.422 356.056> 450 78<191.031 347.306> 710 20G<82 163>
VStem: 82 81<0 21 102.045 423.429 488 730> 387 81<109.131 411.514>
LayerCount: 4
Fore
SplineSet
163 406 m 1x7c
 163 118 l 1
 182 95 232 81 293 81 c 0
 350 81 387 115 387 166 c 2
 387 353 l 2
 387 408 340 450 279 450 c 0
 226 450 200 440 163 406 c 1x7c
82 0 m 17xbc
 82 730 l 1
 163 730 l 1
 163 488 l 1
 184 511 233 528 282 528 c 0
 369 528 468 451 468 383 c 2
 468 148 l 2
 468 87 432 36 372 13 c 0
 288 -19 179 21 163 21 c 5
 163 0 l 9
 82 0 l 17xbc
EndSplineSet
EndChar

StartChar: NameMe.955
Encoding: 584 -1 586
Width: 550
Flags: HW
LayerCount: 4
Fore
SplineSet
779 105 m 1
 732 -18 l 2
 715.772460938 -59.6826171875 703 -76 641 -83 c 1
 649 -152 l 1
 726 -152 777.515625 -131.565429688 796 -82 c 2
 1018 516 l 1
 938 526 l 1
 823 222 l 1
 718 535 l 1
 632 515 l 1
 779 105 l 1
649 -152 m 1048
249 98 m 1
 182 -18 l 2
 157.74137931 -60 151 -76.2258064516 91 -83 c 1
 99 -152 l 1
 176 -152 215.625 -136 246 -82 c 2
 356.8125 115 l 2
 413.529868691 215.830877673 468.222182997 304.67029518 468 526 c 1
 388 516 l 1
 387.858398438 340.498046875 332 187 269 187 c 1
 178 187 168 249 168 535 c 1
 82 515 l 1
 82 290 82 98 249 98 c 1
99 -152 m 1048
EndSplineSet
EndChar

StartChar: NameMe.956
Encoding: 585 -1 587
Width: 550
Flags: W
HStem: 0 82<327.293 450.369> 625 129<193.136 336.864>
VStem: 170 190<647.289 732.327> 235 80<93.3497 141>
LayerCount: 4
Fore
SplineSet
1242 690 m 4xe0
 1242 727 1282 754 1337 754 c 4
 1392 754 1432 727 1432 690 c 4
 1432 652 1392 625 1337 625 c 4
 1282 625 1242 652 1242 690 c 4xe0
1487 82 m 4
 1464 82 1427 82 1427 141 c 6
 1427 504 l 5
 992 504 l 5
 992 424 l 5
 1347 424 l 5
 1347 141 l 6xd0
 1347 89 1357 55 1379 32 c 4
 1397 13 1430 0 1460 0 c 4
 1490 0 1525 2 1580 24 c 5
 1557 98 l 5
 1541 93 1517 82 1487 82 c 4
752 504 m 29
 752 569 l 22
 752 699 806 730 959 730 c 14
 1088 730 l 29
 1088 647 l 29
 968 647 l 22
 854 647 838 637 838 541 c 14
 838 504 l 29
 992 504 l 29
 992 424 l 29
 838 424 l 29
 838 0 l 29
 752 0 l 29
 752 424 l 29
 550 424 l 29
 550 504 l 29
 752 504 l 29
262 506 m 29
 262 569 l 22
 262 699 316 730 469 730 c 14
 590 730 l 29
 590 647 l 29
 478 647 l 22
 364 647 348 637 348 541 c 14
 348 504 l 29
 550 504 l 29
 550 424 l 29
 348 424 l 29
 348 0 l 29
 262 0 l 29
 262 424 l 29
 72 424 l 29
 72 506 l 29
 262 506 l 29
EndSplineSet
EndChar

StartChar: NameMe.957
Encoding: 586 -1 588
Width: 550
Flags: HW
LayerCount: 4
Fore
SplineSet
354 39 m 5
 372.090820312 20.0869140625 411 0 441 0 c 4
 449.486328125 0 458.373046875 0.16015625 468 0.8876953125 c 13
 468 82 l 5
 444 82 419 82 410 119 c 4
 408 127 408 135 408 141 c 5
 408 463 l 5
 327 463 l 5
 327 169 l 5
 327 126 300 78 250 78 c 4
 183 78 163 107 163 168 c 6
 163 216 l 6
 163 271 218 320 280 320 c 12
 468 320 l 5
 468 398 l 29
 280 398 l 22
 213 398 163 437 163 488 c 6
 163 547 l 6
 163 622 188 651 250 651 c 4
 300 651 327 623 327 560 c 5
 408 560 l 5
 408 648 378 729 250 729 c 4
 116 729 82 648 82 559 c 6
 82 490 l 6
 82 439.259765625 112.233398438 391.11328125 158.092773438 359.107421875 c 5
 112.376953125 327.095703125 82 278.858398438 82 228 c 6
 82 170 l 6
 82 41 116 0 250 0 c 4
 292.024414062 0 327.685546875 15.0458984375 354 39 c 5
EndSplineSet
EndChar

StartChar: NameMe.587
Encoding: 587 -1 589
Width: 550
Flags: HW
LayerCount: 4
Fore
SplineSet
397 509 m 21
 397 515 l 6
 397 576 335 629 275 629 c 4
 214 629 153 576 153 515 c 6
 153 503 l 6
 153 446 214 404 275 404 c 5
 377 404 468 328 468 237 c 6
 468 213 l 6
 468 121 378 40 276 40 c 4
 173 40 82 121 82 213 c 6
 82 222 l 13
 153 222 l 21
 153 213 l 6
 153 157 213 110 275 110 c 4
 337 110 397 157 397 213 c 6
 397 225 l 6
 397 286 335 334 275 334 c 5
 173 334 82 411 82 503 c 6
 82 527 l 6
 82 618 173 699 276 699 c 4
 377 699 468 618 468 527 c 6
 468 510 l 13
 397 509 l 21
241 730 m 5
 309 730 l 5
 309 0 l 5
 241 0 l 5
 241 730 l 5
EndSplineSet
EndChar
